<svg width="172" height="503" viewBox="0 0 172 503" fill="none" xmlns="http://www.w3.org/2000/svg">
<g clip-path="url(#clip0_2196_1741)">
<path d="M0.478721 9.63129C3.98506 18.264 12.2495 23.839 21.5472 23.839C34.0825 23.839 44.2811 13.6404 44.2811 1.10512C44.2811 -11.4302 34.0825 -21.6282 21.5472 -21.6282C16.75 -21.6282 12.1602 -20.1459 8.27364 -17.3408L8.11866 -17.2298L0.531708 -23.8965L0.86862 -24.1703L15.5378 -51.4283L17.9669 -55.4356H59.0268C65.1378 -60.9334 73.0151 -63.9598 81.2183 -63.9598C81.7071 -63.9598 82.2073 -63.9483 82.7094 -63.9259V-65.1269C82.7094 -71.848 77.2417 -77.3164 70.52 -77.3164H12.6687C5.94634 -77.3164 0.478568 -71.848 0.478568 -65.1269L0.478721 9.63129ZM21.5472 24.3176C12.0377 24.3176 3.5875 18.606 0.017305 9.76789L0 9.67784V-65.1269C0 -72.112 5.68279 -77.7949 12.6687 -77.7949H70.52C77.5052 -77.7949 83.188 -72.1121 83.188 -65.1269V-63.4226L82.9365 -63.4359C82.3578 -63.4659 81.7797 -63.4812 81.2181 -63.4812C73.1028 -63.4812 65.3111 -60.4758 59.2794 -55.0189L59.2111 -54.957H18.236L15.9523 -51.191L1.26281 -23.8916L8.14837 -17.8405C12.0835 -20.6321 16.7122 -22.1067 21.5471 -22.1067C34.3459 -22.1067 44.7595 -11.6937 44.7595 1.10512C44.7595 13.9046 34.346 24.3176 21.5472 24.3176Z" fill="white"/>
<path d="M0.478568 26.0478V28.0469C0.478568 34.7686 5.94634 40.2364 12.6687 40.2364H70.52C77.2417 40.2364 82.7094 34.7686 82.7094 28.0469V2.43778C82.2053 2.46014 81.7051 2.47102 81.2183 2.47102C62.9038 2.47102 48.0031 -12.4291 48.0031 -30.7442C48.0031 -35.833 49.1343 -40.722 51.3664 -45.2812H24.4243L17.1863 -31.2713C18.6501 -31.4678 20.1146 -31.5674 21.5471 -31.5674C39.563 -31.5674 54.2199 -16.9104 54.2199 1.10546C54.2199 19.1214 39.563 33.7776 21.5471 33.7776C13.837 33.7776 6.37637 31.0364 0.478568 26.0478ZM70.52 40.715H12.6687C5.68279 40.715 0 35.0322 0 28.0469V24.9994L0.396944 25.3466C6.26733 30.475 13.7789 33.2991 21.5471 33.2991C39.2988 33.2991 53.7413 18.8572 53.7413 1.10546C53.7413 -16.6469 39.2988 -31.0888 21.5471 -31.0888C19.9876 -31.0888 18.3891 -30.9689 16.7958 -30.7321L16.3346 -30.6638L24.1327 -45.7598H52.1405L51.9656 -45.4134C49.6538 -40.8223 48.4816 -35.8867 48.4816 -30.7442C48.4816 -12.6932 63.1673 1.99245 81.2183 1.99245C81.7779 1.99245 82.356 1.97713 82.9367 1.94712L83.1882 1.93441V28.0469C83.1882 35.0322 77.5054 40.715 70.5201 40.715" fill="white"/>
</g>
<g clip-path="url(#clip1_2196_1741)">
<path d="M89.1692 9.63129C92.6755 18.264 100.94 23.839 110.238 23.839C122.773 23.839 132.972 13.6404 132.972 1.10512C132.972 -11.4302 122.773 -21.6282 110.238 -21.6282C105.44 -21.6282 100.851 -20.1459 96.9641 -17.3408L96.8091 -17.2298L89.2221 -23.8965L89.559 -24.1703L104.228 -51.4283L106.657 -55.4356H147.717C153.828 -60.9334 161.706 -63.9598 169.909 -63.9598C170.398 -63.9598 170.898 -63.9483 171.4 -63.9259V-65.1269C171.4 -71.848 165.932 -77.3164 159.21 -77.3164H101.359C94.6368 -77.3164 89.169 -71.848 89.169 -65.1269L89.1692 9.63129ZM110.238 24.3176C100.728 24.3176 92.2779 18.606 88.7077 9.76789L88.6904 9.67784V-65.1269C88.6904 -72.112 94.3732 -77.7949 101.359 -77.7949H159.21C166.196 -77.7949 171.878 -72.1121 171.878 -65.1269V-63.4226L171.627 -63.4359C171.048 -63.4659 170.47 -63.4812 169.909 -63.4812C161.793 -63.4812 154.002 -60.4758 147.97 -55.0189L147.901 -54.957H106.926L104.643 -51.191L89.9532 -23.8916L96.8388 -17.8405C100.774 -20.6321 105.403 -22.1067 110.237 -22.1067C123.036 -22.1067 133.45 -11.6937 133.45 1.10512C133.45 13.9046 123.036 24.3176 110.238 24.3176Z" fill="white"/>
<path d="M89.169 26.0478V28.0469C89.169 34.7686 94.6368 40.2364 101.359 40.2364H159.21C165.932 40.2364 171.4 34.7686 171.4 28.0469V2.43778C170.896 2.46014 170.396 2.47102 169.909 2.47102C151.594 2.47102 136.693 -12.4291 136.693 -30.7442C136.693 -35.833 137.825 -40.722 140.057 -45.2812H113.115L105.877 -31.2713C107.34 -31.4678 108.805 -31.5674 110.237 -31.5674C128.253 -31.5674 142.91 -16.9104 142.91 1.10546C142.91 19.1214 128.253 33.7776 110.237 33.7776C102.527 33.7776 95.0668 31.0364 89.169 26.0478ZM159.21 40.715H101.359C94.3732 40.715 88.6904 35.0322 88.6904 28.0469V24.9994L89.0874 25.3466C94.9578 30.475 102.469 33.2991 110.237 33.2991C127.989 33.2991 142.432 18.8572 142.432 1.10546C142.432 -16.6469 127.989 -31.0888 110.237 -31.0888C108.678 -31.0888 107.08 -30.9689 105.486 -30.7321L105.025 -30.6638L112.823 -45.7598H140.831L140.656 -45.4134C138.344 -40.8223 137.172 -35.8867 137.172 -30.7442C137.172 -12.6932 151.858 1.99245 169.909 1.99245C170.468 1.99245 171.046 1.97713 171.627 1.94712L171.879 1.93441V28.0469C171.879 35.0322 166.196 40.715 159.211 40.715" fill="white"/>
</g>
<g clip-path="url(#clip2_2196_1741)">
<path d="M61.4468 104.333C67.5143 101.869 71.4326 96.0604 71.4326 89.5256C71.4326 80.7153 64.2646 73.5473 55.4543 73.5473C46.644 73.5473 39.4764 80.7153 39.4764 89.5256C39.4764 92.8973 40.5182 96.1232 42.4897 98.8549L42.5677 98.9638L37.8821 104.296L37.6896 104.059L18.5315 93.7493L15.7151 92.042L15.7151 63.1834C11.851 58.8883 9.72392 53.3518 9.72392 47.5863C9.72392 47.2427 9.73199 46.8912 9.7477 46.5382L8.90364 46.5382C4.17977 46.5382 0.336356 50.3812 0.336356 55.1055L0.336358 95.7659C0.336358 100.491 4.17977 104.334 8.90364 104.334L61.4468 104.333ZM71.769 89.5256C71.769 96.2093 67.7547 102.148 61.5429 104.658L61.4796 104.67L8.90364 104.67C3.99421 104.67 -1.74588e-07 100.676 -3.89209e-07 95.7659L-2.16653e-06 55.1055C-2.38113e-06 50.196 3.9941 46.2019 8.90364 46.2019L10.1015 46.2019L10.0921 46.3786C10.071 46.7854 10.0603 47.1917 10.0603 47.5864C10.0603 53.2901 12.1726 58.7665 16.0079 63.0059L16.0514 63.0539L16.0514 91.8529L18.6984 93.458L37.8855 103.782L42.1385 98.9429C40.1764 96.1771 39.14 92.9239 39.14 89.5257C39.14 80.5302 46.4587 73.211 55.4543 73.211C64.4503 73.211 71.769 80.5301 71.769 89.5256Z" fill="white"/>
<path d="M16.8206 47.5857C16.8206 56.545 24.1097 63.8336 33.0689 63.8336C42.0282 63.8336 49.3172 56.5449 49.3172 47.5857C49.3172 47.2651 49.3051 46.9287 49.2787 46.5377L16.8587 46.5377C16.8327 46.927 16.8206 47.2633 16.8206 47.5857ZM49.6537 47.5857C49.6537 56.7307 42.2139 64.1699 33.069 64.1699C23.9241 64.1699 16.4844 56.7305 16.4844 47.5857C16.4844 47.2131 16.5005 46.8229 16.5346 46.3573L16.5458 46.2012L49.5919 46.2012L49.6035 46.3573C49.6376 46.8246 49.6537 47.2152 49.6537 47.5857Z" fill="white"/>
<path d="M72.985 104.334L74.3901 104.334C79.1144 104.334 82.9574 100.491 82.9574 95.7659L82.9574 55.1055C82.9574 50.3812 79.1144 46.5382 74.3901 46.5382L56.3909 46.5382C56.4066 46.8926 56.4143 47.2441 56.4143 47.5863C56.4143 60.4585 45.9419 70.9313 33.0692 70.9313C29.4926 70.9313 26.0564 70.1362 22.852 68.5675L22.852 87.5035L32.6987 92.5906C32.5606 91.5619 32.4907 90.5326 32.4907 89.5257C32.4907 76.8634 42.7921 66.5619 55.4545 66.5619C68.1168 66.5619 78.4179 76.8634 78.4179 89.5257C78.4179 94.9447 76.4912 100.188 72.985 104.334ZM83.2937 55.1055L83.2937 95.7659C83.2937 100.676 79.2996 104.67 74.3901 104.67L72.2482 104.67L72.4922 104.391C76.0966 100.265 78.0815 94.9855 78.0815 89.5257C78.0815 77.0491 67.9312 66.8983 55.4545 66.8983C42.9774 66.8983 32.827 77.0491 32.827 89.5257C32.827 90.6218 32.9113 91.7453 33.0777 92.8651L33.1257 93.1893L22.5156 87.7084L22.5156 68.0234L22.7591 68.1463C25.9859 69.7711 29.4548 70.595 33.0692 70.595C45.7562 70.595 56.0779 60.2733 56.0779 47.5863C56.0779 47.193 56.0671 46.7866 56.046 46.3785L56.0371 46.2018L74.3901 46.2018C79.2996 46.2018 83.2937 50.1959 83.2937 55.1054" fill="white"/>
</g>
<g clip-path="url(#clip3_2196_1741)">
<path d="M150.137 104.333C156.205 101.869 160.123 96.0604 160.123 89.5256C160.123 80.7153 152.955 73.5473 144.145 73.5473C135.334 73.5473 128.167 80.7153 128.167 89.5256C128.167 92.8973 129.209 96.1232 131.18 98.8549L131.258 98.9638L126.573 104.296L126.38 104.059L107.222 93.7493L104.406 92.042L104.406 63.1834C100.541 58.8883 98.4143 53.3518 98.4143 47.5863C98.4143 47.2427 98.4224 46.8912 98.4381 46.5382L97.5941 46.5382C92.8702 46.5382 89.0268 50.3812 89.0268 55.1055L89.0268 95.7659C89.0268 100.491 92.8702 104.334 97.5941 104.334L150.137 104.333ZM160.459 89.5256C160.459 96.2093 156.445 102.148 150.233 104.658L150.17 104.67L97.5941 104.67C92.6846 104.67 88.6904 100.676 88.6904 95.7659L88.6904 55.1055C88.6904 50.196 92.6845 46.2019 97.5941 46.2019L98.7919 46.2019L98.7826 46.3786C98.7615 46.7854 98.7507 47.1917 98.7507 47.5864C98.7507 53.2901 100.863 58.7665 104.698 63.0059L104.742 63.0539L104.742 91.8529L107.389 93.458L126.576 103.782L130.829 98.9429C128.867 96.1771 127.83 92.9239 127.83 89.5257C127.83 80.5302 135.149 73.211 144.145 73.211C153.141 73.211 160.459 80.5301 160.459 89.5256Z" fill="white"/>
<path d="M105.512 47.5857C105.512 56.545 112.801 63.8336 121.76 63.8336C130.72 63.8336 138.009 56.5449 138.009 47.5857C138.009 47.2651 137.996 46.9287 137.97 46.5377L105.55 46.5377C105.524 46.927 105.512 47.2633 105.512 47.5857ZM138.345 47.5857C138.345 56.7307 130.905 64.1699 121.76 64.1699C112.615 64.1699 105.176 56.7305 105.176 47.5857C105.176 47.2131 105.192 46.8229 105.226 46.3573L105.237 46.2012L138.283 46.2012L138.295 46.3573C138.329 46.8246 138.345 47.2152 138.345 47.5857Z" fill="white"/>
<path d="M161.675 104.334L163.081 104.334C167.805 104.334 171.648 100.491 171.648 95.7659L171.648 55.1055C171.648 50.3812 167.805 46.5382 163.081 46.5382L145.081 46.5382C145.097 46.8926 145.105 47.2441 145.105 47.5863C145.105 60.4585 134.632 70.9313 121.76 70.9313C118.183 70.9313 114.747 70.1362 111.542 68.5675L111.542 87.5035L121.389 92.5906C121.251 91.5619 121.181 90.5326 121.181 89.5257C121.181 76.8634 131.483 66.5619 144.145 66.5619C156.807 66.5619 167.108 76.8634 167.108 89.5257C167.108 94.9447 165.182 100.188 161.675 104.334ZM171.984 55.1055L171.984 95.7659C171.984 100.676 167.99 104.67 163.081 104.67L160.939 104.67L161.183 104.391C164.787 100.265 166.772 94.9855 166.772 89.5257C166.772 77.0491 156.622 66.8983 144.145 66.8983C131.668 66.8983 121.517 77.0491 121.517 89.5257C121.517 90.6218 121.602 91.7453 121.768 92.8651L121.816 93.1893L111.206 87.7084L111.206 68.0234L111.45 68.1463C114.676 69.7711 118.145 70.595 121.76 70.595C134.447 70.595 144.768 60.2733 144.768 47.5863C144.768 47.193 144.758 46.7866 144.736 46.3785L144.728 46.2018L163.081 46.2018C167.99 46.2018 171.984 50.1959 171.984 55.1054" fill="white"/>
</g>
<g clip-path="url(#clip4_2196_1741)">
<path d="M44.2247 358.895C70.5171 358.895 91.9078 337.505 91.9078 311.214C91.9078 284.92 70.5171 263.531 44.2247 263.531C33.8411 263.531 24.2233 266.867 16.3839 272.524L1.37299 259.333C1.47883 259.245 1.58881 259.165 1.69466 259.077L32.1879 202.411L37.0738 194.354H122.209C134.356 183.365 150.448 176.661 168.079 176.661C169.284 176.661 170.481 176.694 171.67 176.757V173.744C171.67 159.554 160.062 147.945 145.873 147.945H25.7964C11.6078 147.945 -0.000488281 159.554 -0.000488281 173.744V329.008C7.0665 346.509 24.2217 358.896 44.2243 358.896" fill="white"/>
<path d="M119.6 245.107C119.6 271.839 141.348 293.588 168.08 293.588C169.289 293.588 170.484 293.528 171.67 293.441V196.774C170.484 196.687 169.289 196.627 168.08 196.627C141.348 196.627 119.6 218.375 119.6 245.107Z" fill="white"/>
<path d="M106.919 214.438C102.271 223.67 99.6353 234.084 99.6353 245.107C99.6355 282.848 130.339 313.552 168.08 313.552C169.285 313.552 170.482 313.518 171.671 313.457V367.134C171.671 381.322 160.062 392.931 145.874 392.931H25.7974C11.6093 392.93 0.000621375 381.322 0.000488281 367.134V361.902C11.8392 372.245 27.308 378.531 44.2261 378.531C81.3469 378.531 111.544 348.333 111.544 311.214C111.544 274.094 81.3464 243.896 44.2261 243.896C40.8501 243.896 37.5359 244.159 34.2925 244.64L49.896 214.438H106.919ZM157.826 354.729C157.014 354.729 156.22 354.842 155.455 355.068C154.688 355.295 154.01 355.637 153.424 356.09C152.838 356.544 152.367 357.108 152.015 357.779C151.663 358.453 151.487 359.237 151.487 360.128C151.487 361.053 151.679 361.795 152.062 362.358C152.446 362.922 152.928 363.377 153.505 363.72C154.084 364.066 154.712 364.339 155.385 364.542C156.056 364.746 156.683 364.951 157.263 365.153C157.842 365.357 158.324 365.603 158.708 365.894C159.09 366.182 159.283 366.577 159.283 367.079C159.283 367.375 159.208 367.633 159.06 367.852C158.91 368.073 158.714 368.252 158.472 368.393C158.23 368.534 157.955 368.64 157.649 368.71C157.345 368.78 157.043 368.816 156.748 368.816C156.137 368.816 155.545 368.678 154.974 368.404C154.402 368.13 153.928 367.743 153.554 367.242L150.947 370.107C151.745 370.843 152.606 371.375 153.531 371.703C154.452 372.031 155.455 372.196 156.536 372.196C157.395 372.196 158.214 372.088 158.987 371.868C159.764 371.65 160.444 371.313 161.031 370.858C161.619 370.404 162.082 369.833 162.429 369.145C162.774 368.456 162.944 367.649 162.944 366.727C162.944 365.756 162.756 364.981 162.38 364.402C162.004 363.822 161.533 363.361 160.96 363.017C160.388 362.672 159.776 362.407 159.118 362.219C158.459 362.032 157.845 361.843 157.274 361.655C156.702 361.467 156.227 361.241 155.854 360.974C155.478 360.707 155.291 360.325 155.291 359.824C155.291 359.511 155.369 359.245 155.525 359.025C155.682 358.807 155.885 358.631 156.136 358.497C156.386 358.365 156.653 358.266 156.935 358.204C157.214 358.141 157.489 358.11 157.754 358.11C158.209 358.11 158.691 358.2 159.2 358.38C159.644 358.538 160.009 358.77 160.292 359.077L160.408 359.213L162.92 356.466C162.217 355.84 161.426 355.393 160.549 355.127C159.674 354.861 158.766 354.729 157.826 354.729ZM140.733 354.729C139.433 354.729 138.236 354.934 137.139 355.339C136.045 355.747 135.097 356.329 134.298 357.088C133.501 357.848 132.878 358.767 132.432 359.847C131.986 360.926 131.763 362.133 131.763 363.463C131.763 364.794 131.986 365.999 132.432 367.078C132.878 368.158 133.501 369.078 134.298 369.837C135.097 370.597 136.045 371.179 137.139 371.586C138.236 371.992 139.432 372.195 140.733 372.195C142.032 372.195 143.231 371.992 144.325 371.586C145.421 371.179 146.367 370.597 147.166 369.837C147.964 369.078 148.585 368.157 149.032 367.078C149.478 365.999 149.702 364.794 149.702 363.463C149.702 362.133 149.478 360.926 149.032 359.847C148.585 358.767 147.964 357.848 147.166 357.088C146.367 356.329 145.421 355.747 144.325 355.339C143.231 354.934 142.032 354.73 140.733 354.729ZM101.595 355.151L94.4106 371.774H98.4497L99.8335 368.251H106.291L107.722 371.774H111.855L104.624 355.151H101.595ZM113.522 355.152V371.774H117.185V359.941H117.232L124.486 371.774H129.275V355.152H125.614V366.702H125.566L118.5 355.152H113.522ZM140.732 358.109C141.515 358.109 142.224 358.243 142.858 358.509C143.491 358.775 144.036 359.147 144.49 359.624C144.943 360.101 145.29 360.668 145.535 361.326C145.777 361.984 145.899 362.696 145.899 363.463C145.899 364.245 145.777 364.961 145.535 365.61C145.29 366.261 144.943 366.825 144.49 367.302C144.036 367.778 143.491 368.151 142.858 368.417C142.224 368.683 141.514 368.815 140.732 368.815C139.951 368.815 139.242 368.683 138.608 368.417C137.974 368.151 137.429 367.778 136.975 367.302C136.522 366.825 136.175 366.261 135.932 365.61C135.69 364.962 135.568 364.245 135.568 363.463C135.568 362.696 135.69 361.984 135.932 361.326C136.174 360.668 136.522 360.101 136.975 359.624C137.429 359.147 137.974 358.775 138.608 358.509C139.242 358.243 139.951 358.109 140.732 358.109ZM105.045 365.153H100.985L103.002 359.988L105.045 365.153ZM124.181 350.55C124.072 350.784 123.937 350.983 123.781 351.148C123.626 351.313 123.412 351.394 123.149 351.395C122.914 351.395 122.691 351.354 122.479 351.276C122.267 351.2 122.052 351.122 121.833 351.043C121.488 350.902 121.161 350.784 120.846 350.69C120.535 350.596 120.182 350.55 119.791 350.55C119.352 350.55 118.962 350.644 118.619 350.832C118.272 351.02 117.98 351.266 117.735 351.571C117.494 351.876 117.294 352.226 117.138 352.616C116.982 353.007 116.871 353.399 116.809 353.789H118.664C118.741 353.57 118.86 353.35 119.016 353.132C119.172 352.912 119.384 352.803 119.65 352.803C119.884 352.803 120.123 352.854 120.367 352.956C120.609 353.058 120.862 353.17 121.128 353.296C121.394 353.422 121.681 353.535 121.987 353.637C122.291 353.739 122.616 353.789 122.961 353.789C123.446 353.789 123.863 353.703 124.215 353.531C124.567 353.359 124.866 353.128 125.108 352.838C125.351 352.548 125.544 352.209 125.684 351.817C125.824 351.427 125.934 351.003 126.012 350.55H124.181Z" fill="white"/>
<path d="M16.8932 122.929H32.3399L35.3424 118.244H19.8944L21.738 115.368H40.0283L43.1023 110.572H13.1561L0.000488281 131.058H24.8784C27.8902 131.058 30.8501 129.281 33.1069 126.149H14.8341L16.8932 122.929Z" fill="white"/>
<path d="M63.9658 117.657C63.6441 118.163 63.1858 118.556 62.5288 118.951C61.901 119.289 61.1473 119.515 60.4668 119.627C59.6814 119.74 58.3902 119.853 56.663 119.853H52.3944L55.1426 115.569H59.0059C61.2414 115.569 62.7951 115.688 63.5923 116.024C64.3272 116.308 64.4718 116.868 63.9658 117.657ZM73.3242 111.63C72.4209 111.292 71.0423 111.069 69.4225 110.897C67.7391 110.679 65.1339 110.619 61.5768 110.619H46.5353L33.4131 131.064H40.1861C43.954 130.953 47.02 128.833 49.3881 124.699H56.2977C58.5333 124.699 60.675 124.528 62.7859 124.244C64.2522 124.025 65.3091 123.799 66.0268 123.628C67.1234 123.341 68.2928 122.952 69.4317 122.446C70.5668 121.936 71.7111 121.258 72.8646 120.414C74.0194 119.572 74.9361 118.609 75.6246 117.543C76.2365 116.586 76.4774 115.742 76.5397 115.009C76.5013 114.278 76.2219 113.599 75.6074 112.981C75.0553 112.42 74.2247 111.969 73.3242 111.63Z" fill="white"/>
<path d="M134.877 127.721C136.409 126.763 137.567 125.744 138.286 124.615C139.192 123.206 139.075 121.968 138.03 120.89C136.993 119.819 134.489 118.969 130.48 118.406L126.199 117.788C124.148 117.5 123.005 117.218 122.577 116.94C122.315 116.711 122.291 116.431 122.474 116.145C122.727 115.753 123.214 115.474 123.863 115.247C124.791 114.908 126.02 114.739 127.34 114.739C128.762 114.739 129.774 114.908 130.304 115.186C130.936 115.474 131.155 115.921 130.959 116.542H142.442C142.745 115.753 142.84 115.131 142.793 114.568C142.751 114 142.603 113.441 142.217 112.931C141.866 112.367 141.137 111.916 140.31 111.462C139.445 111.07 138.139 110.732 136.388 110.448C134.603 110.218 132.678 110.053 130.342 110.053C128.412 110.053 126.509 110.167 124.535 110.388C122.561 110.618 120.581 111.01 118.793 111.576C116.946 112.084 115.359 112.818 113.867 113.721C112.374 114.627 111.316 115.639 110.59 116.769C109.834 117.952 109.692 118.969 110.201 119.76C110.572 120.603 111.697 121.228 113.269 121.794C114.874 122.302 116.652 122.697 118.71 122.98L122.514 123.541C124.468 123.826 125.609 124.106 125.935 124.391C126.298 124.615 126.286 124.957 125.997 125.406C125.742 125.8 125.359 126.084 124.706 126.309C123.779 126.649 122.488 126.763 120.861 126.763C119.032 126.763 117.717 126.592 117.017 126.249C116.323 125.912 116.137 125.406 116.23 124.786H104.646C104.273 125.689 104.07 126.48 104.245 127.155C104.379 128.056 104.992 128.847 105.98 129.526C106.968 130.204 108.473 130.715 110.454 131.105C112.472 131.445 114.803 131.611 117.344 131.611C119.68 131.611 121.888 131.503 124.241 131.162C126.555 130.881 128.569 130.429 130.22 129.923C131.9 129.355 133.388 128.624 134.877 127.721" fill="white"/>
<path d="M161.419 116.723L160.508 124.17H152.889L161.419 116.723ZM145.059 131.058L148.152 128.35H159.968L159.655 131.058H171.672V110.572H159.362L133.03 131.058H145.059Z" fill="white"/>
<path d="M102.745 110.572L92.0002 117.511L90.2482 110.572H76.7324L82.034 123.554L77.2238 131.06H87.9211C87.9211 131.06 89.17 131.254 90.3289 129.604C91.6388 127.561 93.8943 124.044 94.2106 123.561L116.161 110.572H102.745Z" fill="white"/>
</g>
<g clip-path="url(#clip5_2196_1741)">
<path d="M61.4468 456.546C67.5143 454.082 71.4326 448.273 71.4326 441.739C71.4326 432.928 64.2646 425.76 55.4543 425.76C46.644 425.76 39.4764 432.928 39.4764 441.739C39.4764 445.11 40.5182 448.336 42.4897 451.068L42.5677 451.177L37.8821 456.509L37.6896 456.272L18.5315 445.962L15.7151 444.255L15.7151 415.396C11.851 411.101 9.72392 405.565 9.72392 399.799C9.72392 399.456 9.73199 399.104 9.7477 398.751L8.90364 398.751C4.17977 398.751 0.336356 402.594 0.336356 407.318L0.336358 447.979C0.336358 452.703 4.17977 456.546 8.90364 456.546L61.4468 456.546ZM71.769 441.739C71.769 448.422 67.7547 454.361 61.5429 456.871L61.4796 456.883L8.90364 456.883C3.99421 456.883 -1.74588e-07 452.889 -3.89209e-07 447.979L-2.16653e-06 407.318C-2.38113e-06 402.409 3.9941 398.415 8.90364 398.415L10.1015 398.415L10.0921 398.591C10.071 398.998 10.0603 399.405 10.0603 399.799C10.0603 405.503 12.1726 410.979 16.0079 415.219L16.0514 415.267L16.0514 444.066L18.6984 445.671L37.8855 455.995L42.1385 451.156C40.1764 448.39 39.14 445.137 39.14 441.739C39.14 432.743 46.4587 425.424 55.4543 425.424C64.4503 425.424 71.769 432.743 71.769 441.739Z" fill="white"/>
<path d="M16.8206 399.799C16.8206 408.758 24.1097 416.046 33.0689 416.046C42.0282 416.046 49.3172 408.758 49.3172 399.799C49.3172 399.478 49.3051 399.142 49.2787 398.751L16.8587 398.751C16.8327 399.14 16.8206 399.476 16.8206 399.799ZM49.6537 399.799C49.6537 408.944 42.2139 416.383 33.069 416.383C23.9241 416.383 16.4844 408.943 16.4844 399.799C16.4844 399.426 16.5005 399.036 16.5346 398.57L16.5458 398.414L49.5919 398.414L49.6035 398.57C49.6376 399.038 49.6537 399.428 49.6537 399.799Z" fill="white"/>
<path d="M72.985 456.546L74.3901 456.546C79.1144 456.546 82.9574 452.703 82.9574 447.979L82.9574 407.318C82.9574 402.594 79.1144 398.751 74.3901 398.751L56.3909 398.751C56.4066 399.105 56.4143 399.457 56.4143 399.799C56.4143 412.671 45.9419 423.144 33.0692 423.144C29.4926 423.144 26.0564 422.349 22.852 420.78L22.852 439.716L32.6987 444.804C32.5606 443.775 32.4907 442.745 32.4907 441.739C32.4907 429.076 42.7921 418.775 55.4545 418.775C68.1168 418.775 78.4179 429.076 78.4179 441.739C78.4179 447.158 76.4912 452.401 72.985 456.546ZM83.2937 407.318L83.2937 447.979C83.2937 452.889 79.2996 456.883 74.3901 456.883L72.2482 456.883L72.4922 456.604C76.0966 452.478 78.0815 447.198 78.0815 441.739C78.0815 429.262 67.9312 419.111 55.4545 419.111C42.9774 419.111 32.827 429.262 32.827 441.739C32.827 442.835 32.9113 443.958 33.0777 445.078L33.1257 445.402L22.5156 439.921L22.5156 420.236L22.7591 420.359C25.9859 421.984 29.4548 422.808 33.0692 422.808C45.7562 422.808 56.0779 412.486 56.0779 399.799C56.0779 399.406 56.0671 399 56.046 398.591L56.0371 398.415L74.3901 398.415C79.2996 398.415 83.2937 402.409 83.2937 407.318" fill="white"/>
</g>
<g clip-path="url(#clip6_2196_1741)">
<path d="M150.137 456.546C156.205 454.082 160.123 448.273 160.123 441.739C160.123 432.928 152.955 425.76 144.145 425.76C135.334 425.76 128.167 432.928 128.167 441.739C128.167 445.11 129.209 448.336 131.18 451.068L131.258 451.177L126.573 456.509L126.38 456.272L107.222 445.962L104.406 444.255L104.406 415.396C100.541 411.101 98.4143 405.565 98.4143 399.799C98.4143 399.456 98.4224 399.104 98.4381 398.751L97.5941 398.751C92.8702 398.751 89.0268 402.594 89.0268 407.318L89.0268 447.979C89.0268 452.703 92.8702 456.546 97.5941 456.546L150.137 456.546ZM160.459 441.739C160.459 448.422 156.445 454.361 150.233 456.871L150.17 456.883L97.5941 456.883C92.6846 456.883 88.6904 452.889 88.6904 447.979L88.6904 407.318C88.6904 402.409 92.6845 398.415 97.5941 398.415L98.7919 398.415L98.7826 398.591C98.7615 398.998 98.7507 399.405 98.7507 399.799C98.7507 405.503 100.863 410.979 104.698 415.219L104.742 415.267L104.742 444.066L107.389 445.671L126.576 455.995L130.829 451.156C128.867 448.39 127.83 445.137 127.83 441.739C127.83 432.743 135.149 425.424 144.145 425.424C153.141 425.424 160.459 432.743 160.459 441.739Z" fill="white"/>
<path d="M105.512 399.799C105.512 408.758 112.801 416.046 121.76 416.046C130.72 416.046 138.009 408.758 138.009 399.799C138.009 399.478 137.996 399.142 137.97 398.751L105.55 398.751C105.524 399.14 105.512 399.476 105.512 399.799ZM138.345 399.799C138.345 408.944 130.905 416.383 121.76 416.383C112.615 416.383 105.176 408.943 105.176 399.799C105.176 399.426 105.192 399.036 105.226 398.57L105.237 398.414L138.283 398.414L138.295 398.57C138.329 399.038 138.345 399.428 138.345 399.799Z" fill="white"/>
<path d="M161.675 456.546L163.081 456.546C167.805 456.546 171.648 452.703 171.648 447.979L171.648 407.318C171.648 402.594 167.805 398.751 163.081 398.751L145.081 398.751C145.097 399.105 145.105 399.457 145.105 399.799C145.105 412.671 134.632 423.144 121.76 423.144C118.183 423.144 114.747 422.349 111.542 420.78L111.542 439.716L121.389 444.804C121.251 443.775 121.181 442.745 121.181 441.739C121.181 429.076 131.483 418.775 144.145 418.775C156.807 418.775 167.108 429.076 167.108 441.739C167.108 447.158 165.182 452.401 161.675 456.546ZM171.984 407.318L171.984 447.979C171.984 452.889 167.99 456.883 163.081 456.883L160.939 456.883L161.183 456.604C164.787 452.478 166.772 447.198 166.772 441.739C166.772 429.262 156.622 419.111 144.145 419.111C131.668 419.111 121.517 429.262 121.517 441.739C121.517 442.835 121.602 443.958 121.768 445.078L121.816 445.402L111.206 439.921L111.206 420.236L111.45 420.359C114.676 421.984 118.145 422.808 121.76 422.808C134.447 422.808 144.768 412.486 144.768 399.799C144.768 399.406 144.758 399 144.736 398.591L144.728 398.415L163.081 398.415C167.99 398.415 171.984 402.409 171.984 407.318" fill="white"/>
</g>
<g clip-path="url(#clip7_2196_1741)">
<path d="M0.478721 549.692C3.98506 558.325 12.2495 563.9 21.5472 563.9C34.0825 563.9 44.2811 553.701 44.2811 541.166C44.2811 528.63 34.0825 518.432 21.5472 518.432C16.75 518.432 12.1602 519.915 8.27364 522.72L8.11866 522.831L0.531708 516.164L0.86862 515.89L15.5378 488.632L17.9669 484.625H59.0268C65.1378 479.127 73.0151 476.101 81.2183 476.101C81.7071 476.101 82.2073 476.112 82.7094 476.135V474.934C82.7094 468.213 77.2417 462.744 70.52 462.744H12.6687C5.94634 462.744 0.478568 468.213 0.478568 474.934L0.478721 549.692ZM21.5472 564.378C12.0377 564.378 3.5875 558.667 0.017305 549.828L0 549.738V474.934C0 467.949 5.68279 462.266 12.6687 462.266H70.52C77.5052 462.266 83.188 467.948 83.188 474.934V476.638L82.9365 476.625C82.3578 476.595 81.7797 476.579 81.2181 476.579C73.1028 476.579 65.3111 479.585 59.2794 485.042L59.2111 485.104H18.236L15.9523 488.87L1.26281 516.169L8.14837 522.22C12.0835 519.428 16.7122 517.954 21.5471 517.954C34.3459 517.954 44.7595 528.367 44.7595 541.166C44.7595 553.965 34.346 564.378 21.5472 564.378Z" fill="white"/>
<path d="M81.218 486.199C68.4708 486.199 58.1006 496.57 58.1006 509.317C58.1006 522.064 68.4709 532.435 81.218 532.435C81.6742 532.435 82.1528 532.418 82.7091 532.38V486.253C82.1552 486.216 81.6767 486.199 81.218 486.199ZM81.218 532.914C68.2066 532.914 57.6221 522.328 57.6221 509.317C57.6221 496.306 68.2068 485.721 81.218 485.721C81.7482 485.721 82.3033 485.744 82.9658 485.792L83.1879 485.808V532.826L82.9658 532.842C82.3009 532.891 81.7451 532.914 81.218 532.914Z" fill="white"/>
<path d="M0.478568 566.108V568.107C0.478568 574.829 5.94634 580.297 12.6687 580.297H70.52C77.2417 580.297 82.7094 574.829 82.7094 568.107V542.498C82.2053 542.521 81.7051 542.532 81.2183 542.532C62.9038 542.532 48.0031 527.631 48.0031 509.316C48.0031 504.228 49.1343 499.339 51.3664 494.779H24.4243L17.1863 508.789C18.6501 508.593 20.1146 508.493 21.5471 508.493C39.563 508.493 54.2199 523.15 54.2199 541.166C54.2199 559.182 39.563 573.838 21.5471 573.838C13.837 573.838 6.37637 571.097 0.478568 566.108ZM70.52 580.776H12.6687C5.68279 580.776 0 575.093 0 568.107V565.06L0.396944 565.407C6.26733 570.536 13.7789 573.36 21.5471 573.36C39.2988 573.36 53.7413 558.918 53.7413 541.166C53.7413 523.414 39.2988 508.972 21.5471 508.972C19.9876 508.972 18.3891 509.092 16.7958 509.328L16.3346 509.397L24.1327 494.301H52.1405L51.9656 494.647C49.6538 499.238 48.4816 504.174 48.4816 509.316C48.4816 527.367 63.1673 542.053 81.2183 542.053C81.7779 542.053 82.356 542.038 82.9367 542.008L83.1882 541.995V568.107C83.1882 575.093 77.5054 580.776 70.5201 580.776" fill="white"/>
</g>
<g clip-path="url(#clip8_2196_1741)">
<path d="M89.1692 549.692C92.6755 558.325 100.94 563.9 110.238 563.9C122.773 563.9 132.972 553.701 132.972 541.166C132.972 528.63 122.773 518.432 110.238 518.432C105.44 518.432 100.851 519.915 96.9641 522.72L96.8091 522.831L89.2221 516.164L89.559 515.89L104.228 488.632L106.657 484.625H147.717C153.828 479.127 161.706 476.101 169.909 476.101C170.398 476.101 170.898 476.112 171.4 476.135V474.934C171.4 468.213 165.932 462.744 159.21 462.744H101.359C94.6368 462.744 89.169 468.213 89.169 474.934L89.1692 549.692ZM110.238 564.378C100.728 564.378 92.2779 558.667 88.7077 549.828L88.6904 549.738V474.934C88.6904 467.949 94.3732 462.266 101.359 462.266H159.21C166.196 462.266 171.878 467.948 171.878 474.934V476.638L171.627 476.625C171.048 476.595 170.47 476.579 169.909 476.579C161.793 476.579 154.002 479.585 147.97 485.042L147.901 485.104H106.926L104.643 488.87L89.9532 516.169L96.8388 522.22C100.774 519.428 105.403 517.954 110.237 517.954C123.036 517.954 133.45 528.367 133.45 541.166C133.45 553.965 123.036 564.378 110.238 564.378Z" fill="white"/>
<path d="M169.909 486.199C157.162 486.199 146.792 496.57 146.792 509.317C146.792 522.064 157.162 532.435 169.909 532.435C170.366 532.435 170.844 532.418 171.401 532.38V486.253C170.847 486.216 170.368 486.199 169.909 486.199ZM169.909 532.914C156.898 532.914 146.313 522.328 146.313 509.317C146.313 496.306 156.898 485.721 169.909 485.721C170.44 485.721 170.995 485.744 171.657 485.792L171.879 485.808V532.826L171.657 532.842C170.992 532.891 170.437 532.914 169.909 532.914Z" fill="white"/>
<path d="M89.169 566.108V568.107C89.169 574.829 94.6368 580.297 101.359 580.297H159.21C165.932 580.297 171.4 574.829 171.4 568.107V542.498C170.896 542.521 170.396 542.532 169.909 542.532C151.594 542.532 136.693 527.631 136.693 509.316C136.693 504.228 137.825 499.339 140.057 494.779H113.115L105.877 508.789C107.34 508.593 108.805 508.493 110.237 508.493C128.253 508.493 142.91 523.15 142.91 541.166C142.91 559.182 128.253 573.838 110.237 573.838C102.527 573.838 95.0668 571.097 89.169 566.108ZM159.21 580.776H101.359C94.3732 580.776 88.6904 575.093 88.6904 568.107V565.06L89.0874 565.407C94.9578 570.536 102.469 573.36 110.237 573.36C127.989 573.36 142.432 558.918 142.432 541.166C142.432 523.414 127.989 508.972 110.237 508.972C108.678 508.972 107.08 509.092 105.486 509.328L105.025 509.397L112.823 494.301H140.831L140.656 494.647C138.344 499.238 137.172 504.174 137.172 509.316C137.172 527.367 151.858 542.053 169.909 542.053C170.468 542.053 171.046 542.038 171.627 542.008L171.879 541.995V568.107C171.879 575.093 166.196 580.776 159.211 580.776" fill="white"/>
</g>
<defs>
<clipPath id="clip0_2196_1741">
<rect width="83.3091" height="118.532" fill="white" transform="translate(0 -77.7949)"/>
</clipPath>
<clipPath id="clip1_2196_1741">
<rect width="83.3091" height="118.532" fill="white" transform="translate(88.6904 -77.7949)"/>
</clipPath>
<clipPath id="clip2_2196_1741">
<rect width="58.5532" height="83.3091" fill="white" transform="translate(0 104.67) rotate(-90)"/>
</clipPath>
<clipPath id="clip3_2196_1741">
<rect width="58.5532" height="83.3091" fill="white" transform="translate(88.6904 104.67) rotate(-90)"/>
</clipPath>
<clipPath id="clip4_2196_1741">
<rect width="171.962" height="282.896" fill="white" transform="translate(0 110.053)"/>
</clipPath>
<clipPath id="clip5_2196_1741">
<rect width="58.5532" height="83.3091" fill="white" transform="translate(0 456.883) rotate(-90)"/>
</clipPath>
<clipPath id="clip6_2196_1741">
<rect width="58.5532" height="83.3091" fill="white" transform="translate(88.6904 456.883) rotate(-90)"/>
</clipPath>
<clipPath id="clip7_2196_1741">
<rect width="83.3091" height="118.532" fill="white" transform="translate(0 462.266)"/>
</clipPath>
<clipPath id="clip8_2196_1741">
<rect width="83.3091" height="118.532" fill="white" transform="translate(88.6904 462.266)"/>
</clipPath>
</defs>
</svg>
