<svg width="150" height="273" viewBox="0 0 150 273" fill="none" xmlns="http://www.w3.org/2000/svg">
<g clip-path="url(#clip0_2356_1171)">
<path d="M0.428709 7.80334C0.428764 3.40318 4.00805 -0.176054 8.4082 -0.176148L9.71191 -0.176148L9.69824 0.0865475L9.68945 0.240844L9.68847 0.240844C9.6704 0.589567 9.66211 0.938068 9.66211 1.276C9.66217 6.16548 11.4736 10.8602 14.7617 14.4948L14.7988 14.5358L14.8633 14.6071L14.8633 39.5651L17.0293 40.8795L33.5117 49.7487L36.9453 45.8414C35.2856 43.4335 34.4082 40.6206 34.4082 37.6852C34.4082 29.7377 40.8738 23.2721 48.8213 23.2721C56.7691 23.2722 63.2344 29.7377 63.2344 37.6852C63.2344 43.5899 59.6871 48.8379 54.2002 51.0543L54.1777 51.0631L54.1543 51.068L54.0996 51.0778L54.0762 51.0826L8.4082 51.0826C4.0081 51.0825 0.428711 47.5028 0.428711 43.1022L0.428709 7.80334ZM53.9727 50.2906C59.1214 48.1793 62.4424 43.2407 62.4424 37.6852C62.4424 30.1746 56.3318 24.0641 48.8213 24.0641C41.3107 24.0641 35.2002 30.1746 35.2002 37.6852C35.2002 40.5598 36.0877 43.3095 37.7686 45.6383L37.7695 45.6383L37.8369 45.733L37.9531 45.8951L37.8213 46.0436L34.0898 50.2906L53.9727 50.2906ZM1.2207 43.1022C1.2207 47.0658 4.44534 50.2906 8.4082 50.2906L32.8477 50.2906L16.6484 41.5719L16.6367 41.566L14.1924 40.0836L14.0713 40.0104L14.0713 14.9098C10.7169 11.1457 8.8702 6.31053 8.87012 1.276C8.87012 1.05884 8.87465 0.837854 8.88183 0.615844L8.4082 0.615844C4.44537 0.615938 1.22076 3.84015 1.2207 7.80334L1.2207 43.1022Z" fill="#F3F3F3" stroke="#F3F3F3" stroke-width="0.5"/>
<path d="M15.5312 1.27576C15.5313 8.91549 21.7471 15.131 29.3867 15.1312C37.0266 15.1312 43.2431 8.91552 43.2432 1.27576C43.2432 1.06906 43.2345 0.854045 43.2217 0.615599L15.5508 0.615601C15.5382 0.853068 15.5312 1.06816 15.5312 1.27576ZM43.9639 -0.176393L43.9805 0.0550524L43.9912 0.190795C44.0212 0.601019 44.0352 0.946666 44.0352 1.27576C44.0351 9.35296 37.4638 15.9232 29.3867 15.9232C21.3097 15.923 14.7393 9.35272 14.7393 1.27576C14.7393 0.944774 14.7533 0.599545 14.7832 0.190796L14.7842 0.191772L14.793 0.0560303L14.8096 -0.176392L43.9639 -0.176393Z" fill="#F3F3F3" stroke="#F3F3F3" stroke-width="0.5"/>
<mask id="path-3-outside-1_2356_1171" maskUnits="userSpaceOnUse" x="19.2256" y="-1.16724" width="55" height="53" fill="black">
<rect fill="white" x="19.2256" y="-1.16724" width="55" height="53"/>
<path d="M64.0404 50.5408L65.2602 50.5408C69.3616 50.5408 72.6979 47.2045 72.6979 43.1027L72.6979 7.80357C72.6979 3.70218 69.3616 0.365912 65.2602 0.365912L49.6343 0.365913C49.6479 0.673526 49.6546 0.978709 49.6546 1.27576C49.6546 12.4508 40.563 21.5427 29.3876 21.5427C26.2826 21.5427 23.2995 20.8525 20.5176 19.4905L20.5176 35.9298L29.066 40.3462C28.9461 39.453 28.8854 38.5595 28.8854 37.6854C28.8854 26.6926 37.8286 17.7494 48.8214 17.7494C59.8141 17.7494 68.757 26.6926 68.757 37.6854C68.757 42.3898 67.0843 46.9421 64.0404 50.5408ZM72.9899 7.80357L72.9899 43.1027C72.9899 47.3653 69.5224 50.8328 65.2602 50.8328L63.4007 50.8328L63.6126 50.5906C66.7418 47.0086 68.465 42.4253 68.465 37.6854C68.465 26.8538 59.6529 18.0414 48.8214 18.0414C37.9894 18.0414 29.1774 26.8538 29.1774 37.6854C29.1774 38.6369 29.2506 39.6123 29.395 40.5844L29.4367 40.8659L20.2256 36.1077L20.2256 19.0182L20.437 19.1249C23.2383 20.5355 26.2498 21.2507 29.3876 21.2507C40.4018 21.2507 49.3626 12.2899 49.3626 1.27576C49.3626 0.934324 49.3532 0.581577 49.3349 0.227243L49.3272 0.0738075L65.2602 0.0738068C69.5224 0.0738066 72.9899 3.54128 72.9899 7.80347"/>
</mask>
<path d="M64.0404 50.5408L65.2602 50.5408C69.3616 50.5408 72.6979 47.2045 72.6979 43.1027L72.6979 7.80357C72.6979 3.70218 69.3616 0.365912 65.2602 0.365912L49.6343 0.365913C49.6479 0.673526 49.6546 0.978709 49.6546 1.27576C49.6546 12.4508 40.563 21.5427 29.3876 21.5427C26.2826 21.5427 23.2995 20.8525 20.5176 19.4905L20.5176 35.9298L29.066 40.3462C28.9461 39.453 28.8854 38.5595 28.8854 37.6854C28.8854 26.6926 37.8286 17.7494 48.8214 17.7494C59.8141 17.7494 68.757 26.6926 68.757 37.6854C68.757 42.3898 67.0843 46.9421 64.0404 50.5408ZM72.9899 7.80357L72.9899 43.1027C72.9899 47.3653 69.5224 50.8328 65.2602 50.8328L63.4007 50.8328L63.6126 50.5906C66.7418 47.0086 68.465 42.4253 68.465 37.6854C68.465 26.8538 59.6529 18.0414 48.8214 18.0414C37.9894 18.0414 29.1774 26.8538 29.1774 37.6854C29.1774 38.6369 29.2506 39.6123 29.395 40.5844L29.4367 40.8659L20.2256 36.1077L20.2256 19.0182L20.437 19.1249C23.2383 20.5355 26.2498 21.2507 29.3876 21.2507C40.4018 21.2507 49.3626 12.2899 49.3626 1.27576C49.3626 0.934324 49.3532 0.581577 49.3349 0.227243L49.3272 0.0738075L65.2602 0.0738068C69.5224 0.0738066 72.9899 3.54128 72.9899 7.80347" fill="#F3F3F3"/>
<path d="M64.0404 50.5408L63.6587 50.2179L62.9626 51.0408L64.0404 51.0408L64.0404 50.5408ZM49.6343 0.365912L49.6343 -0.134088L49.1116 -0.134088L49.1348 0.388064L49.6343 0.365912ZM20.5176 19.4905L20.7374 19.0415L20.0176 18.689L20.0176 19.4905L20.5176 19.4905ZM20.5176 35.9298L20.0176 35.9298L20.0176 36.2343L20.2881 36.374L20.5176 35.9298ZM29.066 40.3462L28.8365 40.7904L29.6893 41.2309L29.5616 40.2796L29.066 40.3462ZM63.4007 50.8328L63.0244 50.5036L62.2992 51.3328L63.4007 51.3328L63.4007 50.8328ZM63.6126 50.5906L63.9889 50.9197L63.9891 50.9195L63.6126 50.5906ZM29.395 40.5844L29.8896 40.5112L29.8896 40.511L29.395 40.5844ZM29.4367 40.8659L29.2072 41.3101L30.0742 41.758L29.9313 40.7927L29.4367 40.8659ZM20.2256 36.1077L19.7256 36.1077L19.7256 36.4122L19.9961 36.5519L20.2256 36.1077ZM20.2256 19.0182L20.4509 18.5718L19.7256 18.2056L19.7256 19.0182L20.2256 19.0182ZM20.437 19.1249L20.2116 19.5712L20.2121 19.5715L20.437 19.1249ZM49.3349 0.227244L48.8356 0.252486L48.8356 0.253051L49.3349 0.227244ZM49.3272 0.0738093L49.3272 -0.426191L48.8012 -0.426191L48.8278 0.0990512L49.3272 0.0738093ZM64.0404 50.5408L64.0404 51.0408L65.2602 51.0408L65.2602 50.5408L65.2602 50.0408L64.0404 50.0408L64.0404 50.5408ZM65.2602 50.5408L65.2602 51.0408C69.6378 51.0408 73.1979 47.4806 73.1979 43.1027L72.6979 43.1027L72.1979 43.1027C72.1979 46.9284 69.0855 50.0408 65.2602 50.0408L65.2602 50.5408ZM72.6979 43.1027L73.1979 43.1027L73.1979 7.80357L72.6979 7.80357L72.1979 7.80357L72.1979 43.1027L72.6979 43.1027ZM72.6979 7.80357L73.1979 7.80357C73.1979 3.42604 69.6378 -0.134089 65.2602 -0.134089L65.2602 0.365911L65.2602 0.865911C69.0855 0.865911 72.1979 3.97833 72.1979 7.80357L72.6979 7.80357ZM65.2602 0.365911L65.2602 -0.134089L49.6343 -0.134088L49.6343 0.365912L49.6343 0.865912L65.2602 0.865911L65.2602 0.365911ZM49.6343 0.365912L49.1348 0.388064C49.1481 0.688292 49.1546 0.98609 49.1546 1.27576L49.6546 1.27576L50.1546 1.27576C50.1546 0.971327 50.1478 0.658759 50.1338 0.34376L49.6343 0.365912ZM49.6546 1.27576L49.1546 1.27576C49.1546 12.1746 40.2868 21.0427 29.3876 21.0427L29.3876 21.5427L29.3876 22.0427C40.8391 22.0427 50.1546 12.7269 50.1546 1.27576L49.6546 1.27576ZM29.3876 21.5427L29.3876 21.0427C26.3586 21.0427 23.4507 20.3698 20.7374 19.0415L20.5176 19.4905L20.2977 19.9396C23.1482 21.3351 26.2066 22.0427 29.3876 22.0427L29.3876 21.5427ZM20.5176 19.4905L20.0176 19.4905L20.0176 35.9298L20.5176 35.9298L21.0176 35.9298L21.0176 19.4905L20.5176 19.4905ZM20.5176 35.9298L20.2881 36.374L28.8365 40.7904L29.066 40.3462L29.2955 39.9019L20.7471 35.4856L20.5176 35.9298ZM29.066 40.3462L29.5616 40.2796C29.4445 39.4078 29.3854 38.5365 29.3854 37.6854L28.8854 37.6854L28.3854 37.6854C28.3854 38.5824 28.4477 39.4982 28.5704 40.4127L29.066 40.3462ZM28.8854 37.6854L29.3854 37.6854C29.3854 26.9688 38.1047 18.2494 48.8214 18.2494L48.8214 17.7494L48.8214 17.2494C37.5524 17.2494 28.3854 26.4165 28.3854 37.6854L28.8854 37.6854ZM48.8214 17.7494L48.8214 18.2494C59.538 18.2494 68.257 26.9687 68.257 37.6854L68.757 37.6854L69.257 37.6854C69.257 26.4165 60.0903 17.2494 48.8214 17.2494L48.8214 17.7494ZM68.757 37.6854L68.257 37.6854C68.257 42.2711 66.6266 46.7091 63.6587 50.2179L64.0404 50.5408L64.4222 50.8637C67.5421 47.1751 69.257 42.5086 69.257 37.6854L68.757 37.6854ZM72.9899 7.80357L72.4899 7.80357L72.4899 43.1027L72.9899 43.1027L73.4899 43.1027L73.4899 7.80357L72.9899 7.80357ZM72.9899 43.1027L72.4899 43.1027C72.4899 47.0892 69.2463 50.3328 65.2602 50.3328L65.2602 50.8328L65.2602 51.3328C69.7986 51.3328 73.4899 47.6414 73.4899 43.1027L72.9899 43.1027ZM65.2602 50.8328L65.2602 50.3328L63.4007 50.3328L63.4007 50.8328L63.4007 51.3328L65.2602 51.3328L65.2602 50.8328ZM63.4007 50.8328L63.7771 51.1619L63.9889 50.9197L63.6126 50.5906L63.2362 50.2614L63.0244 50.5036L63.4007 50.8328ZM63.6126 50.5906L63.9891 50.9195C67.1976 47.2468 68.965 42.5467 68.9649 37.6854L68.4649 37.6854L67.9649 37.6854C67.965 42.3038 66.2859 46.7704 63.236 50.2616L63.6126 50.5906ZM68.4649 37.6854L68.9649 37.6854C68.9649 26.5777 59.9291 17.5414 48.8214 17.5414L48.8214 18.0414L48.8214 18.5414C59.3768 18.5414 67.9649 27.1299 67.9649 37.6854L68.4649 37.6854ZM48.8214 18.0414L48.8214 17.5414C37.7132 17.5414 28.6774 26.5777 28.6774 37.6854L29.1774 37.6854L29.6774 37.6854C29.6774 27.1299 38.2655 18.5414 48.8214 18.5414L48.8214 18.0414ZM29.1774 37.6854L28.6774 37.6854C28.6774 38.6623 28.7525 39.6622 28.9004 40.6579L29.395 40.5844L29.8896 40.511C29.7486 39.5623 29.6774 38.6116 29.6774 37.6854L29.1774 37.6854ZM29.395 40.5844L28.9004 40.6577L28.9421 40.9391L29.4367 40.8659L29.9313 40.7927L29.8896 40.5112L29.395 40.5844ZM29.4367 40.8659L29.6662 40.4217L20.4551 35.6635L20.2256 36.1077L19.9961 36.5519L29.2072 41.3101L29.4367 40.8659ZM20.2256 36.1077L20.7256 36.1077L20.7256 19.0182L20.2256 19.0182L19.7256 19.0182L19.7256 36.1077L20.2256 36.1077ZM20.2256 19.0182L20.0002 19.4645L20.2116 19.5712L20.437 19.1249L20.6623 18.6785L20.4509 18.5718L20.2256 19.0182ZM20.437 19.1249L20.2121 19.5715C23.0832 21.0172 26.1718 21.7507 29.3876 21.7507L29.3876 21.2507L29.3876 20.7507C26.3279 20.7507 23.3933 20.0538 20.6618 18.6783L20.437 19.1249ZM29.3876 21.2507L29.3876 21.7507C40.6779 21.7507 49.8626 12.5661 49.8626 1.27576L49.3626 1.27576L48.8626 1.27576C48.8626 12.0138 40.1257 20.7507 29.3876 20.7507L29.3876 21.2507ZM49.3626 1.27576L49.8626 1.27576C49.8626 0.925334 49.853 0.563971 49.8342 0.201434L49.3349 0.227244L48.8356 0.253051C48.8535 0.599185 48.8626 0.943316 48.8626 1.27576L49.3626 1.27576ZM49.3349 0.227244L49.8343 0.201998L49.8265 0.0485636L49.3272 0.0738093L48.8278 0.0990512L48.8356 0.252486L49.3349 0.227244ZM49.3272 0.0738093L49.3272 0.573809L65.2602 0.573809L65.2602 0.0738086L65.2602 -0.426191L49.3272 -0.426191L49.3272 0.0738093ZM65.2602 0.0738086L65.2602 0.573809C69.2463 0.573808 72.4899 3.81742 72.4899 7.80347L72.9899 7.80347L73.4899 7.80347C73.4899 3.26513 69.7986 -0.426192 65.2602 -0.426191L65.2602 0.0738086Z" fill="#F3F3F3" mask="url(#path-3-outside-1_2356_1171)"/>
</g>
<g clip-path="url(#clip1_2356_1171)">
<path d="M77.4258 7.80334C77.4258 3.40318 81.0051 -0.176054 85.4053 -0.176148L86.709 -0.176148L86.6953 0.0865475L86.6865 0.240844L86.6855 0.240844C86.6675 0.589567 86.6592 0.938068 86.6592 1.276C86.6592 6.16548 88.4707 10.8602 91.7588 14.4948L91.7959 14.5358L91.8603 14.6071L91.8604 39.5651L94.0264 40.8795L110.509 49.7487L113.942 45.8414C112.283 43.4335 111.405 40.6206 111.405 37.6852C111.405 29.7377 117.871 23.2721 125.818 23.2721C133.766 23.2722 140.231 29.7377 140.231 37.6852C140.231 43.5899 136.684 48.8379 131.197 51.0543L131.175 51.0631L131.151 51.068L131.097 51.0778L131.073 51.0826L85.4053 51.0826C81.0052 51.0825 77.4258 47.5028 77.4258 43.1022L77.4258 7.80334ZM130.97 50.2906C136.119 48.1793 139.439 43.2407 139.439 37.6852C139.439 30.1746 133.329 24.0641 125.818 24.0641C118.308 24.0641 112.197 30.1746 112.197 37.6852C112.197 40.5598 113.085 43.3095 114.766 45.6383L114.767 45.6383L114.834 45.733L114.95 45.8951L114.818 46.0436L111.087 50.2906L130.97 50.2906ZM78.2178 43.1022C78.2178 47.0658 81.4424 50.2906 85.4053 50.2906L109.845 50.2906L93.6455 41.5719L93.6338 41.566L91.1895 40.0836L91.0684 40.0104L91.0684 14.9098C87.714 11.1457 85.8673 6.31053 85.8672 1.276C85.8672 1.05884 85.8717 0.837854 85.8789 0.615844L85.4053 0.615844C81.4424 0.615938 78.2178 3.84015 78.2178 7.80334L78.2178 43.1022Z" fill="#F3F3F3" stroke="#F3F3F3" stroke-width="0.5"/>
<path d="M92.5283 1.27576C92.5284 8.91549 98.7442 15.131 106.384 15.1312C114.024 15.1312 120.24 8.91552 120.24 1.27576C120.24 1.06906 120.232 0.854045 120.219 0.615599L92.5479 0.615601C92.5352 0.853068 92.5283 1.06816 92.5283 1.27576ZM120.961 -0.176393L120.978 0.0550524L120.988 0.190795C121.018 0.601019 121.032 0.946666 121.032 1.27576C121.032 9.35296 114.461 15.9232 106.384 15.9232C98.3068 15.923 91.7364 9.35272 91.7363 1.27576C91.7363 0.944774 91.7503 0.599545 91.7803 0.190796L91.7812 0.191772L91.79 0.0560303L91.8066 -0.176392L120.961 -0.176393Z" fill="#F3F3F3" stroke="#F3F3F3" stroke-width="0.5"/>
<mask id="path-7-outside-2_2356_1171" maskUnits="userSpaceOnUse" x="96.2227" y="-1.16724" width="55" height="53" fill="black">
<rect fill="white" x="96.2227" y="-1.16724" width="55" height="53"/>
<path d="M141.038 50.5408L142.257 50.5408C146.359 50.5408 149.695 47.2045 149.695 43.1027L149.695 7.80357C149.695 3.70218 146.359 0.365912 142.257 0.365912L126.631 0.365913C126.645 0.673526 126.652 0.978709 126.652 1.27576C126.652 12.4508 117.56 21.5427 106.385 21.5427C103.28 21.5427 100.297 20.8525 97.5147 19.4905L97.5147 35.9298L106.063 40.3462C105.943 39.453 105.882 38.5595 105.882 37.6854C105.882 26.6926 114.826 17.7494 125.818 17.7494C136.811 17.7494 145.754 26.6926 145.754 37.6854C145.754 42.3898 144.081 46.9421 141.038 50.5408ZM149.987 7.80357L149.987 43.1027C149.987 47.3653 146.52 50.8328 142.257 50.8328L140.398 50.8328L140.61 50.5906C143.739 47.0086 145.462 42.4253 145.462 37.6854C145.462 26.8538 136.65 18.0414 125.818 18.0414C114.986 18.0414 106.174 26.8538 106.174 37.6854C106.174 38.6369 106.248 39.6123 106.392 40.5844L106.434 40.8659L97.2227 36.1077L97.2227 19.0182L97.434 19.1249C100.235 20.5355 103.247 21.2507 106.385 21.2507C117.399 21.2507 126.36 12.2899 126.36 1.27576C126.36 0.934324 126.35 0.581577 126.332 0.227243L126.324 0.0738075L142.257 0.0738068C146.52 0.0738066 149.987 3.54128 149.987 7.80347"/>
</mask>
<path d="M141.038 50.5408L142.257 50.5408C146.359 50.5408 149.695 47.2045 149.695 43.1027L149.695 7.80357C149.695 3.70218 146.359 0.365912 142.257 0.365912L126.631 0.365913C126.645 0.673526 126.652 0.978709 126.652 1.27576C126.652 12.4508 117.56 21.5427 106.385 21.5427C103.28 21.5427 100.297 20.8525 97.5147 19.4905L97.5147 35.9298L106.063 40.3462C105.943 39.453 105.882 38.5595 105.882 37.6854C105.882 26.6926 114.826 17.7494 125.818 17.7494C136.811 17.7494 145.754 26.6926 145.754 37.6854C145.754 42.3898 144.081 46.9421 141.038 50.5408ZM149.987 7.80357L149.987 43.1027C149.987 47.3653 146.52 50.8328 142.257 50.8328L140.398 50.8328L140.61 50.5906C143.739 47.0086 145.462 42.4253 145.462 37.6854C145.462 26.8538 136.65 18.0414 125.818 18.0414C114.986 18.0414 106.174 26.8538 106.174 37.6854C106.174 38.6369 106.248 39.6123 106.392 40.5844L106.434 40.8659L97.2227 36.1077L97.2227 19.0182L97.434 19.1249C100.235 20.5355 103.247 21.2507 106.385 21.2507C117.399 21.2507 126.36 12.2899 126.36 1.27576C126.36 0.934324 126.35 0.581577 126.332 0.227243L126.324 0.0738075L142.257 0.0738068C146.52 0.0738066 149.987 3.54128 149.987 7.80347" fill="#F3F3F3"/>
<path d="M141.038 50.5408L140.656 50.2179L139.96 51.0408L141.038 51.0408L141.038 50.5408ZM126.631 0.365912L126.631 -0.134088L126.109 -0.134088L126.132 0.388064L126.631 0.365912ZM97.5147 19.4905L97.7345 19.0415L97.0147 18.689L97.0147 19.4905L97.5147 19.4905ZM97.5147 35.9298L97.0147 35.9298L97.0147 36.2343L97.2852 36.374L97.5147 35.9298ZM106.063 40.3462L105.834 40.7904L106.686 41.2309L106.559 40.2796L106.063 40.3462ZM140.398 50.8328L140.021 50.5036L139.296 51.3328L140.398 51.3328L140.398 50.8328ZM140.61 50.5906L140.986 50.9197L140.986 50.9195L140.61 50.5906ZM106.392 40.5844L106.887 40.5112L106.887 40.511L106.392 40.5844ZM106.434 40.8659L106.204 41.3101L107.071 41.758L106.928 40.7927L106.434 40.8659ZM97.2227 36.1077L96.7227 36.1077L96.7227 36.4122L96.9932 36.5519L97.2227 36.1077ZM97.2227 19.0182L97.448 18.5718L96.7227 18.2056L96.7227 19.0182L97.2227 19.0182ZM97.434 19.1249L97.2087 19.5712L97.2091 19.5715L97.434 19.1249ZM126.332 0.227244L125.833 0.252486L125.833 0.253051L126.332 0.227244ZM126.324 0.0738093L126.324 -0.426191L125.798 -0.426191L125.825 0.0990512L126.324 0.0738093ZM141.038 50.5408L141.038 51.0408L142.257 51.0408L142.257 50.5408L142.257 50.0408L141.038 50.0408L141.038 50.5408ZM142.257 50.5408L142.257 51.0408C146.635 51.0408 150.195 47.4806 150.195 43.1027L149.695 43.1027L149.195 43.1027C149.195 46.9284 146.083 50.0408 142.257 50.0408L142.257 50.5408ZM149.695 43.1027L150.195 43.1027L150.195 7.80357L149.695 7.80357L149.195 7.80357L149.195 43.1027L149.695 43.1027ZM149.695 7.80357L150.195 7.80357C150.195 3.42604 146.635 -0.134089 142.257 -0.134089L142.257 0.365911L142.257 0.865911C146.083 0.865911 149.195 3.97833 149.195 7.80357L149.695 7.80357ZM142.257 0.365911L142.257 -0.134089L126.631 -0.134088L126.631 0.365912L126.631 0.865912L142.257 0.865911L142.257 0.365911ZM126.631 0.365912L126.132 0.388064C126.145 0.688292 126.152 0.98609 126.152 1.27576L126.652 1.27576L127.152 1.27576C127.152 0.971327 127.145 0.658759 127.131 0.34376L126.631 0.365912ZM126.652 1.27576L126.152 1.27576C126.152 12.1746 117.284 21.0427 106.385 21.0427L106.385 21.5427L106.385 22.0427C117.836 22.0427 127.152 12.7269 127.152 1.27576L126.652 1.27576ZM106.385 21.5427L106.385 21.0427C103.356 21.0427 100.448 20.3698 97.7345 19.0415L97.5147 19.4905L97.2948 19.9396C100.145 21.3351 103.204 22.0427 106.385 22.0427L106.385 21.5427ZM97.5147 19.4905L97.0147 19.4905L97.0147 35.9298L97.5147 35.9298L98.0147 35.9298L98.0147 19.4905L97.5147 19.4905ZM97.5147 35.9298L97.2852 36.374L105.834 40.7904L106.063 40.3462L106.293 39.9019L97.7442 35.4856L97.5147 35.9298ZM106.063 40.3462L106.559 40.2796C106.442 39.4078 106.382 38.5365 106.382 37.6854L105.882 37.6854L105.382 37.6854C105.382 38.5824 105.445 39.4982 105.568 40.4127L106.063 40.3462ZM105.882 37.6854L106.382 37.6854C106.382 26.9688 115.102 18.2494 125.818 18.2494L125.818 17.7494L125.818 17.2494C114.55 17.2494 105.382 26.4165 105.382 37.6854L105.882 37.6854ZM125.818 17.7494L125.818 18.2494C136.535 18.2494 145.254 26.9687 145.254 37.6854L145.754 37.6854L146.254 37.6854C146.254 26.4165 137.087 17.2494 125.818 17.2494L125.818 17.7494ZM145.754 37.6854L145.254 37.6854C145.254 42.2711 143.624 46.7091 140.656 50.2179L141.038 50.5408L141.419 50.8637C144.539 47.1751 146.254 42.5086 146.254 37.6854L145.754 37.6854ZM149.987 7.80357L149.487 7.80357L149.487 43.1027L149.987 43.1027L150.487 43.1027L150.487 7.80357L149.987 7.80357ZM149.987 43.1027L149.487 43.1027C149.487 47.0892 146.243 50.3328 142.257 50.3328L142.257 50.8328L142.257 51.3328C146.796 51.3328 150.487 47.6414 150.487 43.1027L149.987 43.1027ZM142.257 50.8328L142.257 50.3328L140.398 50.3328L140.398 50.8328L140.398 51.3328L142.257 51.3328L142.257 50.8328ZM140.398 50.8328L140.774 51.1619L140.986 50.9197L140.61 50.5906L140.233 50.2614L140.021 50.5036L140.398 50.8328ZM140.61 50.5906L140.986 50.9195C144.195 47.2468 145.962 42.5467 145.962 37.6854L145.462 37.6854L144.962 37.6854C144.962 42.3038 143.283 46.7704 140.233 50.2616L140.61 50.5906ZM145.462 37.6854L145.962 37.6854C145.962 26.5777 136.926 17.5414 125.818 17.5414L125.818 18.0414L125.818 18.5414C136.374 18.5414 144.962 27.1299 144.962 37.6854L145.462 37.6854ZM125.818 18.0414L125.818 17.5414C114.71 17.5414 105.674 26.5777 105.674 37.6854L106.174 37.6854L106.674 37.6854C106.674 27.1299 115.263 18.5414 125.818 18.5414L125.818 18.0414ZM106.174 37.6854L105.674 37.6854C105.674 38.6623 105.75 39.6622 105.898 40.6579L106.392 40.5844L106.887 40.511C106.746 39.5623 106.674 38.6116 106.674 37.6854L106.174 37.6854ZM106.392 40.5844L105.897 40.6577L105.939 40.9391L106.434 40.8659L106.928 40.7927L106.887 40.5112L106.392 40.5844ZM106.434 40.8659L106.663 40.4217L97.4521 35.6635L97.2227 36.1077L96.9932 36.5519L106.204 41.3101L106.434 40.8659ZM97.2227 36.1077L97.7227 36.1077L97.7227 19.0182L97.2227 19.0182L96.7227 19.0182L96.7227 36.1077L97.2227 36.1077ZM97.2227 19.0182L96.9973 19.4645L97.2087 19.5712L97.434 19.1249L97.6594 18.6785L97.448 18.5718L97.2227 19.0182ZM97.434 19.1249L97.2091 19.5715C100.08 21.0172 103.169 21.7507 106.385 21.7507L106.385 21.2507L106.385 20.7507C103.325 20.7507 100.39 20.0538 97.6589 18.6783L97.434 19.1249ZM106.385 21.2507L106.385 21.7507C117.675 21.7507 126.86 12.5661 126.86 1.27576L126.36 1.27576L125.86 1.27576C125.86 12.0138 117.123 20.7507 106.385 20.7507L106.385 21.2507ZM126.36 1.27576L126.86 1.27576C126.86 0.925334 126.85 0.563971 126.831 0.201434L126.332 0.227244L125.833 0.253051C125.851 0.599185 125.86 0.943316 125.86 1.27576L126.36 1.27576ZM126.332 0.227244L126.831 0.201998L126.824 0.0485636L126.324 0.0738093L125.825 0.0990512L125.833 0.252486L126.332 0.227244ZM126.324 0.0738093L126.324 0.573809L142.257 0.573809L142.257 0.0738086L142.257 -0.426191L126.324 -0.426191L126.324 0.0738093ZM142.257 0.0738086L142.257 0.573809C146.243 0.573808 149.487 3.81742 149.487 7.80347L149.987 7.80347L150.487 7.80347C150.487 3.26513 146.796 -0.426192 142.257 -0.426191L142.257 0.0738086Z" fill="#F3F3F3" mask="url(#path-7-outside-2_2356_1171)"/>
</g>
<g clip-path="url(#clip2_2356_1171)">
<path d="M1.53676 212.171C7.82143 227.64 22.6344 237.631 39.2994 237.631C61.7673 237.631 80.0471 219.355 80.0471 196.892C80.0471 174.429 61.7673 156.154 39.2994 156.154C30.7011 156.154 22.4744 158.811 15.5082 163.837L15.2304 164.036L1.63173 152.09L2.2356 151.599L28.5282 102.753L32.8821 95.5721H106.477C117.43 85.7202 131.549 80.2969 146.252 80.2969C147.129 80.2969 148.025 80.3175 148.925 80.3576V78.2055C148.925 66.1615 139.125 56.3622 127.077 56.3622H23.3857C11.3368 56.3622 1.53648 66.1615 1.53648 78.2055L1.53676 212.171ZM39.2994 238.488C22.2548 238.488 7.10886 228.253 0.709728 212.415L0.678711 212.254V78.2055C0.678711 65.6884 10.8644 55.5046 23.3857 55.5046H127.077C139.597 55.5046 149.783 65.6881 149.783 78.2055V81.2596L149.332 81.2357C148.295 81.182 147.259 81.1545 146.252 81.1545C131.706 81.1545 117.741 86.5401 106.93 96.3188L106.807 96.4297H33.3644L29.2713 103.178L2.94214 152.098L15.2836 162.942C22.3369 157.939 30.6333 155.297 39.2991 155.297C62.2394 155.297 80.9046 173.957 80.9046 196.892C80.9046 219.828 62.2397 238.488 39.2994 238.488Z" fill="#F3F3F3"/>
<path d="M146.253 98.392C123.405 98.392 104.818 116.976 104.818 139.819C104.818 162.662 123.405 181.246 146.253 181.246C147.07 181.246 147.928 181.215 148.925 181.148V98.4891C147.933 98.4227 147.075 98.392 146.253 98.392ZM146.253 182.104C122.931 182.104 103.96 163.135 103.96 139.819C103.96 116.503 122.932 97.5347 146.253 97.5347C147.203 97.5347 148.198 97.5758 149.385 97.6628L149.783 97.6914V181.946L149.385 181.976C148.194 182.063 147.198 182.104 146.253 182.104Z" fill="#F3F3F3"/>
<path d="M1.53648 241.588V245.171C1.53648 257.216 11.3368 267.014 23.3857 267.014H127.077C139.125 267.014 148.925 257.216 148.925 245.171V199.28C148.021 199.32 147.125 199.339 146.252 199.339C113.426 199.339 86.7182 172.639 86.7182 139.818C86.7182 130.699 88.7459 121.938 92.7465 113.768H44.4562L31.4831 138.874C34.1066 138.522 36.7316 138.343 39.2991 138.343C71.5904 138.343 97.861 164.608 97.861 196.892C97.861 229.176 71.5904 255.44 39.2991 255.44C25.4798 255.44 12.1076 250.528 1.53648 241.588ZM127.077 267.872H23.3857C10.8644 267.872 0.678711 257.688 0.678711 245.171V239.71L1.39018 240.332C11.9121 249.522 25.3757 254.583 39.2991 254.583C71.1169 254.583 97.0033 228.703 97.0033 196.892C97.0033 165.08 71.1169 139.201 39.2991 139.201C36.504 139.201 33.6389 139.416 30.7831 139.84L29.9564 139.962L43.9336 112.911H94.1341L93.8206 113.531C89.6769 121.758 87.576 130.603 87.576 139.818C87.576 172.165 113.898 198.482 146.252 198.482C147.255 198.482 148.292 198.454 149.332 198.4L149.783 198.378V245.171C149.783 257.688 139.597 267.872 127.077 267.872" fill="#F3F3F3"/>
</g>
<defs>
<clipPath id="clip0_2356_1171">
<rect width="50.8328" height="72.3246" fill="white" transform="translate(0.678711 50.8328) rotate(-90)"/>
</clipPath>
<clipPath id="clip1_2356_1171">
<rect width="50.8328" height="72.3246" fill="white" transform="translate(77.6758 50.8328) rotate(-90)"/>
</clipPath>
<clipPath id="clip2_2356_1171">
<rect width="149.288" height="212.407" fill="white" transform="translate(0.678711 55.5049)"/>
</clipPath>
</defs>
</svg>
