<svg width="942" height="625" viewBox="0 0 942 625" fill="none" xmlns="http://www.w3.org/2000/svg">
<g opacity="0.33" clip-path="url(#clip0_2511_1054)">
<path d="M89.9135 360.61C103.932 395.132 136.974 417.426 174.146 417.426C224.263 417.426 265.037 376.642 265.037 326.515C265.037 276.387 224.263 235.606 174.146 235.606C154.967 235.606 136.617 241.533 121.078 252.751L120.458 253.195L90.1253 226.535L91.4723 225.44L150.12 116.437L159.832 100.412H323.991C348.423 78.4271 379.917 66.3248 412.714 66.3248C414.668 66.3248 416.668 66.3707 418.675 66.4601V61.6576C418.675 34.7805 396.815 12.9128 369.941 12.9128H138.649C111.773 12.9128 89.9128 34.7805 89.9128 61.6576L89.9135 360.61ZM174.146 419.34C136.127 419.34 102.342 396.499 88.0687 361.156L87.9995 360.796V61.6576C87.9995 33.7247 110.72 10.999 138.649 10.999H369.941C397.869 10.999 420.589 33.7241 420.589 61.6576V68.4731L419.583 68.4198C417.269 68.2997 414.958 68.2385 412.713 68.2385C380.268 68.2385 349.116 80.2569 325.001 102.079L324.728 102.326H160.908L151.778 117.386L93.0483 226.555L120.577 250.752C136.31 239.589 154.816 233.692 174.146 233.692C225.316 233.692 266.95 275.333 266.95 326.515C266.95 377.699 225.316 419.34 174.146 419.34Z" fill="#E30613"/>
<path d="M412.714 106.705C361.75 106.705 320.29 148.178 320.29 199.152C320.29 250.127 361.751 291.599 412.714 291.599C414.538 291.599 416.451 291.53 418.676 291.38V106.922C416.461 106.774 414.548 106.705 412.714 106.705ZM412.714 293.514C360.694 293.514 318.376 251.184 318.376 199.153C318.376 147.121 360.695 104.792 412.714 104.792C414.834 104.792 417.053 104.884 419.702 105.078L420.59 105.142V293.162L419.702 293.228C417.043 293.423 414.821 293.514 412.714 293.514Z" fill="#E30613"/>
<path d="M89.9133 426.259V434.253C89.9133 461.133 111.774 482.998 138.65 482.998H369.942C396.815 482.998 418.676 461.133 418.676 434.253V331.844C416.66 331.933 414.66 331.977 412.714 331.977C339.492 331.977 279.918 272.393 279.918 199.152C279.918 178.802 284.441 159.251 293.365 141.019H185.649L156.712 197.044C162.564 196.258 168.419 195.86 174.146 195.86C246.174 195.86 304.773 254.472 304.773 326.516C304.773 398.56 246.174 457.17 174.146 457.17C143.321 457.17 113.493 446.208 89.9133 426.259ZM369.942 484.912H138.65C110.72 484.912 88 462.187 88 434.253V422.066L89.587 423.455C113.057 443.963 143.089 455.256 174.146 455.256C245.118 455.256 302.86 397.504 302.86 326.516C302.86 255.526 245.118 197.774 174.146 197.774C167.911 197.774 161.52 198.253 155.15 199.2L153.306 199.473L184.484 139.105H296.46L295.761 140.491C286.518 158.85 281.832 178.587 281.832 199.152C281.832 271.336 340.546 330.063 412.714 330.063C414.951 330.063 417.263 330.002 419.584 329.882L420.59 329.831V434.253C420.59 462.187 397.87 484.912 369.942 484.912" fill="#E30613"/>
</g>
<g opacity="0.33" clip-path="url(#clip1_2511_1054)">
<path d="M522.913 500.61C536.932 535.132 569.974 557.426 607.146 557.426C657.263 557.426 698.037 516.642 698.037 466.515C698.037 416.387 657.263 375.606 607.146 375.606C587.967 375.606 569.617 381.533 554.078 392.751L553.458 393.195L523.125 366.535L524.472 365.44L583.12 256.437L592.832 240.412H756.991C781.423 218.427 812.917 206.325 845.714 206.325C847.668 206.325 849.668 206.371 851.675 206.46V201.658C851.675 174.78 829.815 152.913 802.941 152.913H571.649C544.773 152.913 522.913 174.78 522.913 201.658L522.913 500.61ZM607.146 559.34C569.127 559.34 535.342 536.499 521.069 501.156L521 500.796V201.658C521 173.725 543.72 150.999 571.649 150.999H802.941C830.869 150.999 853.589 173.724 853.589 201.658V208.473L852.583 208.42C850.269 208.3 847.958 208.239 845.713 208.239C813.268 208.239 782.116 220.257 758.001 242.079L757.728 242.326H593.908L584.778 257.386L526.048 366.555L553.577 390.752C569.31 379.589 587.816 373.692 607.146 373.692C658.316 373.692 699.95 415.333 699.95 466.515C699.95 517.699 658.316 559.34 607.146 559.34Z" fill="#E30613"/>
<path d="M845.714 246.705C794.75 246.705 753.29 288.178 753.29 339.152C753.29 390.127 794.751 431.599 845.714 431.599C847.538 431.599 849.451 431.53 851.676 431.38V246.922C849.461 246.774 847.548 246.705 845.714 246.705ZM845.714 433.514C793.694 433.514 751.376 391.184 751.376 339.153C751.376 287.121 793.695 244.792 845.714 244.792C847.834 244.792 850.053 244.884 852.702 245.078L853.59 245.142V433.162L852.702 433.228C850.043 433.423 847.821 433.514 845.714 433.514Z" fill="#E30613"/>
<path d="M522.913 566.259V574.253C522.913 601.133 544.774 622.998 571.65 622.998H802.942C829.815 622.998 851.676 601.133 851.676 574.253V471.844C849.66 471.933 847.66 471.977 845.714 471.977C772.492 471.977 712.918 412.393 712.918 339.152C712.918 318.802 717.441 299.251 726.365 281.019H618.649L589.712 337.044C595.564 336.258 601.419 335.86 607.146 335.86C679.174 335.86 737.773 394.472 737.773 466.516C737.773 538.56 679.174 597.17 607.146 597.17C576.321 597.17 546.493 586.208 522.913 566.259ZM802.942 624.912H571.65C543.72 624.912 521 602.187 521 574.253V562.066L522.587 563.455C546.057 583.963 576.089 595.256 607.146 595.256C678.118 595.256 735.86 537.504 735.86 466.516C735.86 395.526 678.118 337.774 607.146 337.774C600.911 337.774 594.52 338.253 588.15 339.2L586.306 339.473L617.484 279.105H729.46L728.761 280.491C719.518 298.85 714.832 318.587 714.832 339.152C714.832 411.336 773.546 470.063 845.714 470.063C847.951 470.063 850.263 470.002 852.584 469.882L853.59 469.831V574.253C853.59 602.187 830.87 624.912 802.942 624.912" fill="#E30613"/>
</g>
<defs>
<clipPath id="clip0_2511_1054">
<rect width="333" height="474" fill="white" transform="translate(88 11)"/>
</clipPath>
<clipPath id="clip1_2511_1054">
<rect width="333" height="474" fill="white" transform="translate(521 151)"/>
</clipPath>
</defs>
</svg>
