<svg width="527" height="370" viewBox="0 0 527 370" fill="none" xmlns="http://www.w3.org/2000/svg">
<g opacity="0.5" clip-path="url(#clip0_2196_1841)">
<path d="M511.217 3.10449L511.716 3.10645C516.442 3.11912 521.132 3.29066 525.78 3.61523V63.6221C520.968 63.1482 516.088 62.9043 511.153 62.9043C479.037 62.9043 449.271 73.1785 424.977 90.6104L424.924 90.5645L424.602 90.7988C387.352 117.806 363.052 161.638 362.975 211.05L362.974 211.551H363.01C363.28 293.009 429.633 359.197 511.153 359.197C516.088 359.197 520.968 358.952 525.78 358.479V418.483C521.132 418.808 516.442 418.981 511.716 418.993L511.217 418.994V420.08C396.316 419.809 302.923 326.252 302.923 211.288C302.923 177.718 310.898 145.981 325.036 117.853L325.4 117.128H152.905L152.766 117.398L105.133 209.598L104.685 210.465L105.65 210.321C115.524 208.857 125.618 208.087 135.895 208.087C248.977 208.087 340.978 300.088 340.979 413.171C340.979 526.254 248.977 618.255 135.895 618.255C84.0555 618.255 36.6481 598.921 0.500977 567.085V468.12C22.2592 521.535 74.7506 559.286 135.895 559.286C216.463 559.286 282.013 493.739 282.013 413.171C282.013 332.599 216.463 267.053 135.895 267.053C104.217 267.053 74.8653 277.186 50.9043 294.377L5.80273 254.748C5.98052 254.605 6.15876 254.46 6.34375 254.31L6.4209 254.247L6.46875 254.159L99.5693 81.1484L114.34 56.7949H371.409L371.552 56.665C408.52 23.1256 457.517 2.62173 511.217 2.49512V3.10449Z" stroke="#E30613"/>
</g>
<defs>
<clipPath id="clip0_2196_1841">
<rect width="526.279" height="620" fill="white"/>
</clipPath>
</defs>
</svg>
