<svg width="1200" height="1646" viewBox="0 0 1200 1646" fill="none" xmlns="http://www.w3.org/2000/svg">
<path d="M1182.37 164.49C1192.05 164.49 1201.62 164.962 1211.12 165.655V951.792C1201.61 952.482 1192.05 952.954 1182.37 952.954C964.857 952.954 787.895 776.101 787.895 558.723C787.895 341.344 964.857 164.49 1182.37 164.49Z" stroke="#E30613"/>
<mask id="path-2-inside-1_2314_3899" fill="white">
<path d="M1182.37 953.452C964.578 953.452 787.393 776.375 787.393 558.719C787.393 341.064 964.578 163.987 1182.37 163.987C1192.22 163.987 1201.95 164.474 1211.62 165.183V2.20065C1201.93 1.70374 1192.18 1.43457 1182.37 1.43457C1038.73 1.43457 907.617 56.0114 808.661 145.48H115.056L75.2507 211.077L-173.182 672.462C-174.044 673.173 -174.95 673.831 -175.805 674.542L-53.509 781.947C10.3465 735.89 88.7169 708.725 173.313 708.725C387.52 708.725 561.79 882.891 561.79 1096.96C561.79 1311.03 387.518 1485.19 173.313 1485.19C10.3387 1485.19 -129.417 1384.33 -186.992 1241.84V1509.68C-90.5383 1593.89 35.479 1645.08 173.313 1645.08C475.729 1645.08 721.768 1399.2 721.768 1096.96C721.768 794.734 475.731 548.849 173.313 548.849C145.808 548.849 118.811 550.994 92.3864 554.92L219.507 309.001H684.089C646.205 384.184 624.742 468.963 624.742 558.717C624.742 866.004 874.891 1116.01 1182.37 1116.01C1192.18 1116.01 1201.93 1115.74 1211.62 1115.23V952.251C1201.95 952.962 1192.22 953.446 1182.37 953.446"/>
</mask>
<path d="M1211.62 165.183L1211.55 166.18L1212.62 166.259V165.183H1211.62ZM1211.62 2.20065H1212.62V1.25061L1211.67 1.20196L1211.62 2.20065ZM808.661 145.48V146.48H809.046L809.332 146.222L808.661 145.48ZM115.056 145.48V144.48H114.493L114.201 144.962L115.056 145.48ZM75.2507 211.077L74.3958 210.558L74.3824 210.58L74.3702 210.603L75.2507 211.077ZM-173.182 672.462L-172.545 673.233L-172.394 673.108L-172.301 672.936L-173.182 672.462ZM-175.805 674.542L-176.445 673.774L-177.343 674.522L-176.465 675.294L-175.805 674.542ZM-53.509 781.947L-54.1689 782.698L-53.5702 783.224L-52.924 782.758L-53.509 781.947ZM-186.992 1241.84L-186.065 1241.47L-187.992 1241.84H-186.992ZM-186.992 1509.68H-187.992V1510.14L-187.65 1510.44L-186.992 1509.68ZM92.3864 554.92L91.4981 554.461L90.601 556.196L92.5334 555.909L92.3864 554.92ZM219.507 309.001V308.001H218.898L218.619 308.542L219.507 309.001ZM684.089 309.001L684.982 309.451L685.713 308.001H684.089V309.001ZM1211.62 1115.23L1211.67 1116.23L1212.62 1116.18V1115.23H1211.62ZM1211.62 952.251H1212.62V951.174L1211.55 951.253L1211.62 952.251ZM1182.37 953.452V952.452C965.13 952.452 788.393 775.822 788.393 558.719H787.393H786.393C786.393 776.927 964.027 954.452 1182.37 954.452V953.452ZM787.393 558.719H788.393C788.393 341.617 965.13 164.987 1182.37 164.987V163.987V162.987C964.027 162.987 786.393 340.512 786.393 558.719H787.393ZM1182.37 163.987V164.987C1192.19 164.987 1201.89 165.472 1211.55 166.18L1211.62 165.183L1211.69 164.186C1202.01 163.476 1192.25 162.987 1182.37 162.987V163.987ZM1211.62 165.183H1212.62V2.20065H1211.62H1210.62V165.183H1211.62ZM1211.62 2.20065L1211.67 1.20196C1201.97 0.704243 1192.2 0.43457 1182.37 0.43457V1.43457V2.43457C1192.16 2.43457 1201.89 2.70324 1211.57 3.19933L1211.62 2.20065ZM1182.37 1.43457V0.43457C1038.47 0.43457 907.122 55.1105 807.991 144.739L808.661 145.48L809.332 146.222C908.111 56.9123 1038.99 2.43457 1182.37 2.43457V1.43457ZM808.661 145.48V144.48H115.056V145.48V146.48H808.661V145.48ZM115.056 145.48L114.201 144.962L74.3958 210.558L75.2507 211.077L76.1056 211.596L115.911 145.999L115.056 145.48ZM75.2507 211.077L74.3702 210.603L-174.062 671.988L-173.182 672.462L-172.301 672.936L76.1312 211.551L75.2507 211.077ZM-173.182 672.462L-173.818 671.69C-174.235 672.035 -174.665 672.367 -175.109 672.712C-175.549 673.053 -176.002 673.406 -176.445 673.774L-175.805 674.542L-175.165 675.311C-174.753 674.968 -174.326 674.636 -173.883 674.292C-173.445 673.952 -172.99 673.6 -172.545 673.233L-173.182 672.462ZM-175.805 674.542L-176.465 675.294L-54.1689 782.698L-53.509 781.947L-52.8491 781.195L-175.145 673.791L-175.805 674.542ZM-53.509 781.947L-52.924 782.758C10.7673 736.819 88.9343 709.725 173.313 709.725V708.725V707.725C88.4994 707.725 9.92569 734.96 -54.0939 781.136L-53.509 781.947ZM173.313 708.725V709.725C386.969 709.725 560.79 883.444 560.79 1096.96H561.79H562.79C562.79 882.338 388.072 707.725 173.313 707.725V708.725ZM561.79 1096.96H560.79C560.79 1310.48 386.966 1484.19 173.313 1484.19V1485.19V1486.19C388.069 1486.19 562.79 1311.58 562.79 1096.96H561.79ZM173.313 1485.19V1484.19C10.7614 1484.19 -128.636 1383.59 -186.065 1241.47L-186.992 1241.84L-187.919 1242.22C-130.197 1385.07 9.91595 1486.19 173.313 1486.19V1485.19ZM-186.992 1241.84H-187.992V1509.68H-186.992H-185.992V1241.84H-186.992ZM-186.992 1509.68L-187.65 1510.44C-91.0219 1594.8 35.2266 1646.08 173.313 1646.08V1645.08V1644.08C35.7314 1644.08 -90.0547 1592.99 -186.335 1508.93L-186.992 1509.68ZM173.313 1645.08V1646.08C476.281 1646.08 722.768 1399.75 722.768 1096.96H721.768H720.768C720.768 1398.64 475.177 1644.08 173.313 1644.08V1645.08ZM721.768 1096.96H722.768C722.768 794.181 476.283 547.849 173.313 547.849V548.849V549.849C475.18 549.849 720.768 795.287 720.768 1096.96H721.768ZM173.313 548.849V547.849C145.756 547.849 118.71 549.998 92.2394 553.931L92.3864 554.92L92.5334 555.909C118.912 551.99 145.86 549.849 173.313 549.849V548.849ZM92.3864 554.92L93.2747 555.379L220.395 309.46L219.507 309.001L218.619 308.542L91.4981 554.461L92.3864 554.92ZM219.507 309.001V310.001H684.089V309.001V308.001H219.507V309.001ZM684.089 309.001L683.196 308.551C645.244 383.869 623.742 468.802 623.742 558.717H624.742H625.742C625.742 469.125 647.166 384.499 684.982 309.451L684.089 309.001ZM624.742 558.717H623.742C623.742 866.557 874.34 1117.01 1182.37 1117.01V1116.01V1115.01C875.443 1115.01 625.742 865.451 625.742 558.717H624.742ZM1182.37 1116.01V1117.01C1192.2 1117.01 1201.97 1116.74 1211.67 1116.23L1211.62 1115.23L1211.57 1114.23C1201.89 1114.74 1192.16 1115.01 1182.37 1115.01V1116.01ZM1211.62 1115.23H1212.62V952.251H1211.62H1210.62V1115.23H1211.62ZM1211.62 952.251L1211.55 951.253C1201.89 951.964 1192.19 952.446 1182.37 952.446V953.446V954.446C1192.25 954.446 1202.01 953.961 1211.69 953.248L1211.62 952.251Z" fill="#E30613" mask="url(#path-2-inside-1_2314_3899)"/>
</svg>
