<svg width="873" height="873" viewBox="0 0 873 873" fill="none" xmlns="http://www.w3.org/2000/svg">
<g clip-path="url(#clip0_2353_1114)">
<path d="M323.809 510.937C272.236 510.937 230.277 468.978 230.277 417.405H230.256C230.305 386.209 245.646 358.535 269.165 341.483L269.197 341.512C284.573 330.417 303.442 323.873 323.809 323.873C327.043 323.873 330.24 324.038 333.391 324.36V510.45C330.24 510.772 327.043 510.937 323.809 510.937ZM333.391 285.702C330.343 285.482 327.267 285.366 324.166 285.358V284.97C289.942 284.97 258.708 298.005 235.16 319.369H72.2544L62.8017 334.955L3.81851 444.563C3.60944 444.734 3.39426 444.902 3.1852 445.077L32.2273 470.595C47.3917 459.653 65.9986 453.198 86.0873 453.198C136.951 453.198 178.335 494.579 178.335 545.445C178.335 596.309 136.951 637.69 86.0873 637.69C46.9034 637.69 13.3461 613.132 0.000488281 578.599V643.092C22.968 663.364 53.1165 675.68 86.0873 675.68C157.899 675.68 216.322 617.257 216.322 545.445C216.322 473.634 157.899 415.211 86.0873 415.211C79.5616 415.211 73.1516 415.7 66.8816 416.63L97.0562 358.223H205.623C196.645 376.085 191.581 396.238 191.581 417.555C191.581 490.664 251.057 550.14 324.166 550.14V549.45C327.267 549.442 330.343 549.326 333.391 549.106V285.702Z" fill="#E30613"/>
</g>
<g clip-path="url(#clip1_2353_1114)">
<path d="M756.809 707.304C705.237 707.304 663.277 665.344 663.277 613.772H663.257C663.305 582.576 678.646 554.902 702.165 537.85L702.198 537.878C717.574 526.784 736.442 520.24 756.809 520.24C760.044 520.24 763.241 520.405 766.392 520.727V706.817C763.241 707.139 760.044 707.304 756.809 707.304ZM766.392 482.068C763.344 481.849 760.267 481.733 757.166 481.725V481.337C722.942 481.337 691.708 494.372 668.161 515.736H505.255L495.802 531.322L436.819 640.93C436.61 641.101 436.395 641.269 436.186 641.444L465.228 666.962C480.392 656.019 498.999 649.565 519.088 649.565C569.952 649.565 611.335 690.946 611.335 741.812C611.335 792.676 569.952 834.057 519.088 834.057C479.904 834.057 446.347 809.499 433.001 774.966V839.458C455.969 859.731 486.117 872.046 519.088 872.046C590.899 872.046 649.322 813.623 649.322 741.812C649.322 670 590.899 611.577 519.088 611.577C512.562 611.577 506.152 612.067 499.882 612.996L530.057 554.589H638.623C629.646 572.452 624.581 592.605 624.581 613.922C624.581 687.03 684.058 746.507 757.166 746.507V745.817C760.267 745.808 763.344 745.693 766.392 745.473V482.068Z" fill="#E30613"/>
</g>
<defs>
<clipPath id="clip0_2353_1114">
<rect width="333.391" height="392.762" fill="white" transform="translate(0 283.707)"/>
</clipPath>
<clipPath id="clip1_2353_1114">
<rect width="333.391" height="392.762" fill="white" transform="translate(433 480.074)"/>
</clipPath>
</defs>
</svg>
