<svg width="1200" height="432" viewBox="0 0 1200 432" fill="none" xmlns="http://www.w3.org/2000/svg">
<g opacity="0.25" clip-path="url(#clip0_2505_1401)">
<path d="M1.91346 360.611C15.9319 395.132 48.9735 417.426 86.1461 417.426C136.263 417.426 177.037 376.643 177.037 326.515C177.037 276.387 136.263 235.606 86.1461 235.606C66.9669 235.606 48.6166 241.534 33.0779 252.751L32.4582 253.195L2.1253 226.535L3.47229 225.44L62.1201 116.438L71.8319 100.413H235.991C260.423 78.4276 291.917 66.3252 324.714 66.3252C326.668 66.3252 328.668 66.3712 330.675 66.4606V61.6581C330.675 34.781 308.815 12.9133 281.941 12.9133H50.6493C23.7732 12.9133 1.91285 34.781 1.91285 61.6581L1.91346 360.611ZM86.1461 419.34C48.1268 419.34 14.3425 396.5 0.0686979 361.157L-0.000488281 360.797V61.6581C-0.000488281 33.7252 22.7195 10.9995 50.6493 10.9995H281.941C309.869 10.9995 332.589 33.7246 332.589 61.6581V68.4735L331.583 68.4203C329.269 68.3002 326.958 68.239 324.713 68.239C292.268 68.239 261.116 80.2574 237.001 102.079L236.728 102.327H72.9077L63.7776 117.387L5.04827 226.555L32.577 250.753C48.3098 239.589 66.8156 233.693 86.1455 233.693C137.316 233.693 178.95 275.334 178.95 326.515C178.95 377.699 137.316 419.34 86.1461 419.34Z" fill="#E30613"/>
<path d="M324.714 106.705C273.75 106.705 232.29 148.178 232.29 199.152C232.29 250.127 273.751 291.599 324.714 291.599C326.538 291.599 328.451 291.53 330.676 291.38V106.922C328.461 106.774 326.548 106.705 324.714 106.705ZM324.714 293.514C272.694 293.514 230.376 251.184 230.376 199.153C230.376 147.121 272.695 104.792 324.714 104.792C326.834 104.792 329.053 104.884 331.702 105.078L332.59 105.142V293.162L331.702 293.228C329.043 293.423 326.821 293.514 324.714 293.514Z" fill="#E30613"/>
<path d="M1.91334 426.259V434.253C1.91334 461.133 23.7737 482.998 50.6498 482.998H281.942C308.815 482.998 330.676 461.133 330.676 434.253V331.844C328.66 331.933 326.66 331.977 324.714 331.977C251.492 331.977 191.918 272.393 191.918 199.152C191.918 178.802 196.441 159.251 205.365 141.019H97.6493L68.7117 197.044C74.5637 196.258 80.4189 195.86 86.146 195.86C158.174 195.86 216.773 254.472 216.773 326.516C216.773 398.56 158.174 457.17 86.146 457.17C55.3208 457.17 25.493 446.208 1.91334 426.259ZM281.942 484.912H50.6498C22.72 484.912 0 462.187 0 434.253V422.066L1.587 423.455C25.057 443.963 55.0887 455.256 86.146 455.256C157.118 455.256 214.86 397.504 214.86 326.516C214.86 255.526 157.118 197.774 86.146 197.774C79.9113 197.774 73.5204 198.253 67.1504 199.2L65.3063 199.473L96.4835 139.105H208.46L207.761 140.491C198.518 158.85 193.832 178.587 193.832 199.152C193.832 271.336 252.546 330.063 324.714 330.063C326.951 330.063 329.263 330.002 331.584 329.882L332.59 329.831V434.253C332.59 462.187 309.87 484.912 281.942 484.912" fill="#E30613"/>
</g>
<g opacity="0.25" clip-path="url(#clip1_2505_1401)">
<path d="M434.913 500.611C448.932 535.132 481.974 557.426 519.146 557.426C569.263 557.426 610.037 516.643 610.037 466.515C610.037 416.387 569.263 375.606 519.146 375.606C499.967 375.606 481.617 381.534 466.078 392.751L465.458 393.195L435.125 366.535L436.472 365.44L495.12 256.438L504.832 240.413H668.991C693.423 218.428 724.917 206.325 757.714 206.325C759.668 206.325 761.668 206.371 763.675 206.461V201.658C763.675 174.781 741.815 152.913 714.941 152.913H483.649C456.773 152.913 434.913 174.781 434.913 201.658L434.913 500.611ZM519.146 559.34C481.127 559.34 447.342 536.5 433.069 501.157L433 500.797V201.658C433 173.725 455.72 151 483.649 151H714.941C742.869 151 765.589 173.725 765.589 201.658V208.474L764.583 208.42C762.269 208.3 759.958 208.239 757.713 208.239C725.268 208.239 694.116 220.257 670.001 242.079L669.728 242.327H505.908L496.778 257.387L438.048 366.555L465.577 390.753C481.31 379.589 499.816 373.693 519.146 373.693C570.316 373.693 611.95 415.334 611.95 466.515C611.95 517.699 570.316 559.34 519.146 559.34Z" fill="#E30613"/>
<path d="M757.714 246.705C706.75 246.705 665.29 288.178 665.29 339.152C665.29 390.127 706.751 431.599 757.714 431.599C759.538 431.599 761.451 431.53 763.676 431.38V246.922C761.461 246.774 759.548 246.705 757.714 246.705ZM757.714 433.514C705.694 433.514 663.376 391.184 663.376 339.153C663.376 287.121 705.695 244.792 757.714 244.792C759.834 244.792 762.053 244.884 764.702 245.078L765.59 245.142V433.162L764.702 433.228C762.043 433.423 759.821 433.514 757.714 433.514Z" fill="#E30613"/>
<path d="M434.913 566.259V574.253C434.913 601.133 456.774 622.998 483.65 622.998H714.942C741.815 622.998 763.676 601.133 763.676 574.253V471.844C761.66 471.933 759.66 471.977 757.714 471.977C684.492 471.977 624.918 412.393 624.918 339.152C624.918 318.802 629.441 299.251 638.365 281.019H530.649L501.712 337.044C507.564 336.258 513.419 335.86 519.146 335.86C591.174 335.86 649.773 394.472 649.773 466.516C649.773 538.56 591.174 597.17 519.146 597.17C488.321 597.17 458.493 586.208 434.913 566.259ZM714.942 624.912H483.65C455.72 624.912 433 602.187 433 574.253V562.066L434.587 563.455C458.057 583.963 488.089 595.256 519.146 595.256C590.118 595.256 647.86 537.504 647.86 466.516C647.86 395.526 590.118 337.774 519.146 337.774C512.911 337.774 506.52 338.253 500.15 339.2L498.306 339.473L529.484 279.105H641.46L640.761 280.491C631.518 298.85 626.832 318.587 626.832 339.152C626.832 411.336 685.546 470.063 757.714 470.063C759.951 470.063 762.263 470.002 764.584 469.882L765.59 469.831V574.253C765.59 602.187 742.87 624.912 714.942 624.912" fill="#E30613"/>
</g>
<g opacity="0.25" clip-path="url(#clip2_2505_1401)">
<path d="M867.913 360.611C881.932 395.132 914.974 417.426 952.146 417.426C1002.26 417.426 1043.04 376.643 1043.04 326.515C1043.04 276.387 1002.26 235.606 952.146 235.606C932.967 235.606 914.617 241.534 899.078 252.751L898.458 253.195L868.125 226.535L869.472 225.44L928.12 116.438L937.832 100.413H1101.99C1126.42 78.4276 1157.92 66.3252 1190.71 66.3252C1192.67 66.3252 1194.67 66.3712 1196.68 66.4606V61.6581C1196.68 34.781 1174.81 12.9133 1147.94 12.9133H916.649C889.773 12.9133 867.913 34.781 867.913 61.6581L867.913 360.611ZM952.146 419.34C914.127 419.34 880.342 396.5 866.069 361.157L866 360.797V61.6581C866 33.7252 888.72 10.9995 916.649 10.9995H1147.94C1175.87 10.9995 1198.59 33.7246 1198.59 61.6581V68.4735L1197.58 68.4203C1195.27 68.3002 1192.96 68.239 1190.71 68.239C1158.27 68.239 1127.12 80.2574 1103 102.079L1102.73 102.327H938.908L929.778 117.387L871.048 226.555L898.577 250.753C914.31 239.589 932.816 233.693 952.146 233.693C1003.32 233.693 1044.95 275.334 1044.95 326.515C1044.95 377.699 1003.32 419.34 952.146 419.34Z" fill="#E30613"/>
<path d="M1190.71 106.705C1139.75 106.705 1098.29 148.178 1098.29 199.152C1098.29 250.127 1139.75 291.599 1190.71 291.599C1192.54 291.599 1194.45 291.53 1196.68 291.38V106.922C1194.46 106.774 1192.55 106.705 1190.71 106.705ZM1190.71 293.514C1138.69 293.514 1096.38 251.184 1096.38 199.153C1096.38 147.121 1138.69 104.792 1190.71 104.792C1192.83 104.792 1195.05 104.884 1197.7 105.078L1198.59 105.142V293.162L1197.7 293.228C1195.04 293.423 1192.82 293.514 1190.71 293.514Z" fill="#E30613"/>
<path d="M867.913 426.259V434.253C867.913 461.133 889.774 482.998 916.65 482.998H1147.94C1174.82 482.998 1196.68 461.133 1196.68 434.253V331.844C1194.66 331.933 1192.66 331.977 1190.71 331.977C1117.49 331.977 1057.92 272.393 1057.92 199.152C1057.92 178.802 1062.44 159.251 1071.36 141.019H963.649L934.712 197.044C940.564 196.258 946.419 195.86 952.146 195.86C1024.17 195.86 1082.77 254.472 1082.77 326.516C1082.77 398.56 1024.17 457.17 952.146 457.17C921.321 457.17 891.493 446.208 867.913 426.259ZM1147.94 484.912H916.65C888.72 484.912 866 462.187 866 434.253V422.066L867.587 423.455C891.057 443.963 921.089 455.256 952.146 455.256C1023.12 455.256 1080.86 397.504 1080.86 326.516C1080.86 255.526 1023.12 197.774 952.146 197.774C945.911 197.774 939.52 198.253 933.15 199.2L931.306 199.473L962.484 139.105H1074.46L1073.76 140.491C1064.52 158.85 1059.83 178.587 1059.83 199.152C1059.83 271.336 1118.55 330.063 1190.71 330.063C1192.95 330.063 1195.26 330.002 1197.58 329.882L1198.59 329.831V434.253C1198.59 462.187 1175.87 484.912 1147.94 484.912" fill="#E30613"/>
</g>
<defs>
<clipPath id="clip0_2505_1401">
<rect width="333" height="474" fill="white" transform="translate(0 11)"/>
</clipPath>
<clipPath id="clip1_2505_1401">
<rect width="333" height="474" fill="white" transform="translate(433 151)"/>
</clipPath>
<clipPath id="clip2_2505_1401">
<rect width="333" height="474" fill="white" transform="translate(866 11)"/>
</clipPath>
</defs>
</svg>
