<svg width="870" height="599" viewBox="0 0 870 599" fill="none" xmlns="http://www.w3.org/2000/svg">
<g clip-path="url(#clip0_2353_1085)">
<path d="M323.666 11.8569L324.165 11.8579C327.097 11.8658 330.007 11.9708 332.891 12.1685V49.8091C329.902 49.5213 326.872 49.3726 323.809 49.3726C303.476 49.3726 284.627 55.8613 269.228 66.8745L269.194 66.8442L268.872 67.0786C245.229 84.2202 229.805 112.041 229.756 143.404L229.755 143.905H229.78C230.05 195.524 272.127 237.437 323.809 237.437C326.872 237.437 329.902 237.287 332.891 237V274.639C330.007 274.837 327.097 274.942 324.165 274.95L323.666 274.952V275.636C251.062 275.366 192.081 216.221 192.081 143.555C192.081 122.319 197.126 102.242 206.07 84.4478L206.434 83.7231H96.7515L96.6118 83.9937L66.437 142.4L65.9897 143.267L66.9546 143.125C73.2008 142.198 79.5867 141.71 86.0874 141.71C157.623 141.71 215.822 199.91 215.822 271.445C215.822 342.98 157.623 401.18 86.0874 401.18C53.3239 401.18 23.3594 388.971 0.500488 368.864V307.177C14.5194 340.629 47.6028 364.191 86.0874 364.191C137.228 364.191 178.834 322.585 178.834 271.445C178.834 220.303 137.228 178.698 86.0874 178.698C66.0328 178.698 47.4465 185.097 32.2593 195.958L3.95947 171.091C4.01639 171.046 4.0747 170.999 4.13428 170.951L4.21143 170.888L4.25928 170.8L63.2417 61.1929L72.5366 45.8687H235.353L235.497 45.7388C258.841 24.5597 289.767 11.5995 323.666 11.4731V11.8569Z" stroke="#E30613"/>
</g>
<g clip-path="url(#clip1_2353_1085)">
<path d="M756.666 208.224L757.165 208.225C760.097 208.232 763.007 208.337 765.892 208.535V246.176C762.902 245.888 759.873 245.739 756.81 245.739C736.476 245.739 717.627 252.228 702.229 263.241L702.194 263.211L701.872 263.445C678.23 280.587 662.806 308.408 662.757 339.771L662.756 340.271H662.78C663.05 391.891 705.128 433.804 756.81 433.804C759.873 433.804 762.902 433.654 765.892 433.366V471.006C763.007 471.203 760.097 471.309 757.165 471.316L756.666 471.318V472.003C684.063 471.732 625.081 412.587 625.081 339.922C625.081 318.685 630.127 298.609 639.07 280.814L639.435 280.09H529.752L529.612 280.36L499.438 338.767L498.99 339.634L499.955 339.491C506.201 338.565 512.587 338.077 519.088 338.077C590.623 338.077 648.822 396.276 648.822 467.812C648.822 539.347 590.623 597.547 519.088 597.547C486.324 597.547 456.36 585.338 433.501 565.23V503.544C447.52 536.996 480.603 560.558 519.088 560.558C570.228 560.558 611.835 518.952 611.835 467.812C611.835 416.669 570.228 375.064 519.088 375.064C499.033 375.064 480.447 381.464 465.26 392.324L436.96 367.458C437.017 367.412 437.075 367.366 437.135 367.317L437.212 367.255L437.26 367.167L496.242 257.56L505.537 242.235H668.354L668.497 242.105C691.842 220.926 722.768 207.966 756.666 207.84V208.224Z" stroke="#E30613"/>
</g>
<defs>
<clipPath id="clip0_2353_1085">
<rect width="333.391" height="392.762" fill="white" transform="translate(0 9.70654)"/>
</clipPath>
<clipPath id="clip1_2353_1085">
<rect width="333.391" height="392.762" fill="white" transform="translate(433 206.074)"/>
</clipPath>
</defs>
</svg>
