<svg width="2526" height="355" viewBox="0 0 2526 355" fill="none" xmlns="http://www.w3.org/2000/svg">
<g opacity="0.5" clip-path="url(#clip0_2349_1693)">
<g clip-path="url(#clip1_2349_1693)">
<path d="M177.839 168.492C195.4 161.359 206.74 144.548 206.74 125.635C206.74 100.136 185.995 79.3898 160.496 79.3898C134.997 79.3898 114.252 100.136 114.252 125.635C114.252 135.393 117.267 144.729 122.974 152.635L123.199 152.951L109.638 168.384L109.081 167.698L53.6335 137.859L45.482 132.918L45.482 49.3944C34.2986 36.9637 28.1424 20.9398 28.1424 4.2531C28.1424 3.25874 28.1657 2.24132 28.2112 1.21986L25.7683 1.21986C12.0964 1.21986 0.972752 12.3423 0.972753 26.0154L0.972758 143.695C0.972758 157.369 12.0964 168.492 25.7683 168.492L177.839 168.492ZM207.714 125.635C207.714 144.979 196.096 162.168 178.117 169.43L177.934 169.465L25.7683 169.465C11.5594 169.465 -0.000732927 157.906 -0.000733548 143.695L-0.000738692 26.0154C-0.000739313 11.8061 11.559 0.246369 25.7683 0.246368L29.2352 0.246368L29.2081 0.757888C29.147 1.93511 29.1158 3.11109 29.1158 4.25343C29.1158 20.7613 35.2294 36.611 46.3297 48.8807L46.4555 49.0197L46.4555 132.37L54.1164 137.016L109.648 166.897L121.957 152.89C116.278 144.885 113.279 135.47 113.279 125.635C113.279 99.5998 134.461 78.4166 160.496 78.4166C186.532 78.4166 207.714 99.5995 207.714 125.635Z" fill="white"/>
<path d="M48.6831 4.25272C48.6831 30.1828 69.7794 51.2775 95.7092 51.2775C121.639 51.2775 142.735 30.1825 142.735 4.25271C142.735 3.3247 142.7 2.35121 142.624 1.21947L48.7934 1.21948C48.718 2.34623 48.6831 3.31972 48.6831 4.25272ZM143.709 4.25271C143.709 30.7202 122.177 52.251 95.7095 52.251C69.242 52.251 47.71 30.7198 47.71 4.25272C47.71 3.17425 47.7567 2.04499 47.8554 0.697364L47.8878 0.245661L143.53 0.245656L143.564 0.69736C143.663 2.04997 143.709 3.18047 143.709 4.25271Z" fill="white"/>
<path d="M211.234 168.492L215.301 168.492C228.974 168.492 240.096 157.369 240.096 143.695L240.096 26.0154C240.096 12.3422 228.974 1.21984 215.301 1.21984L163.207 1.21984C163.253 2.24536 163.275 3.26277 163.275 4.25308C163.275 41.5081 132.965 71.8187 95.7091 71.8187C85.3576 71.8187 75.4125 69.5175 66.1383 64.9771L66.1383 119.782L94.6368 134.505C94.2371 131.528 94.0346 128.549 94.0346 125.635C94.0346 88.9873 123.849 59.1726 160.497 59.1726C197.144 59.1726 226.958 88.9873 226.958 125.635C226.958 141.318 221.382 156.495 211.234 168.492ZM241.07 26.0154L241.07 143.695C241.07 157.906 229.51 169.465 215.301 169.465L209.101 169.465L209.808 168.658C220.24 156.716 225.984 141.437 225.984 125.635C225.984 89.5247 196.607 60.1461 160.497 60.1461C124.385 60.1461 95.0081 89.5247 95.0081 125.635C95.0081 128.807 95.2521 132.059 95.7337 135.3L95.8726 136.238L65.1648 120.375L65.1648 63.4024L65.8694 63.7582C75.2084 68.4608 85.2483 70.8452 95.7091 70.8452C132.428 70.8452 162.301 40.9719 162.301 4.25308C162.301 3.1148 162.27 1.93882 162.209 0.757546L162.183 0.246026L215.301 0.246023C229.51 0.246023 241.07 11.8058 241.07 26.015" fill="white"/>
</g>
<g clip-path="url(#clip2_2349_1693)">
<path d="M177.839 353.534C195.4 346.401 206.74 329.59 206.74 310.677C206.74 285.178 185.995 264.432 160.496 264.432C134.997 264.432 114.252 285.178 114.252 310.677C114.252 320.435 117.267 329.771 122.974 337.677L123.199 337.993L109.638 353.426L109.081 352.74L53.6335 322.901L45.482 317.959L45.482 234.436C34.2986 222.006 28.1424 205.982 28.1424 189.295C28.1424 188.301 28.1657 187.283 28.2112 186.262L25.7683 186.262C12.0964 186.262 0.972752 197.384 0.972753 211.057L0.972758 328.737C0.972758 342.411 12.0964 353.534 25.7683 353.534L177.839 353.534ZM207.714 310.677C207.714 330.021 196.096 347.21 178.117 354.472L177.934 354.507L25.7683 354.507C11.5594 354.507 -0.000732927 342.948 -0.000733548 328.737L-0.000738692 211.057C-0.000739313 196.848 11.559 185.288 25.7683 185.288L29.2352 185.288L29.2081 185.8C29.147 186.977 29.1158 188.153 29.1158 189.295C29.1158 205.803 35.2294 221.653 46.3297 233.923L46.4555 234.062L46.4555 317.412L54.1164 322.058L109.648 351.939L121.957 337.932C116.278 329.927 113.279 320.512 113.279 310.677C113.279 284.642 134.461 263.459 160.496 263.459C186.532 263.459 207.714 284.641 207.714 310.677Z" fill="white"/>
<path d="M48.6831 189.295C48.6831 215.225 69.7794 236.319 95.7092 236.319C121.639 236.319 142.735 215.224 142.735 189.295C142.735 188.367 142.7 187.393 142.624 186.261L48.7934 186.261C48.718 187.388 48.6831 188.362 48.6831 189.295ZM143.709 189.295C143.709 215.762 122.177 237.293 95.7095 237.293C69.242 237.293 47.71 215.762 47.71 189.295C47.71 188.216 47.7567 187.087 47.8554 185.739L47.8878 185.288L143.53 185.288L143.564 185.739C143.663 187.092 143.709 188.222 143.709 189.295Z" fill="white"/>
<path d="M211.234 353.534L215.301 353.534C228.974 353.534 240.096 342.411 240.096 328.737L240.096 211.057C240.096 197.384 228.974 186.262 215.301 186.262L163.207 186.262C163.253 187.287 163.275 188.305 163.275 189.295C163.275 226.55 132.965 256.861 95.7091 256.861C85.3576 256.861 75.4125 254.56 66.1383 250.019L66.1383 304.824L94.6368 319.547C94.2371 316.57 94.0346 313.591 94.0346 310.677C94.0346 274.029 123.849 244.215 160.497 244.215C197.144 244.215 226.958 274.029 226.958 310.677C226.958 326.36 221.382 341.537 211.234 353.534ZM241.07 211.057L241.07 328.737C241.07 342.948 229.51 354.507 215.301 354.507L209.101 354.507L209.808 353.7C220.24 341.758 225.984 326.479 225.984 310.677C225.984 274.567 196.607 245.188 160.497 245.188C124.385 245.188 95.0081 274.567 95.0081 310.677C95.0081 313.849 95.2521 317.101 95.7337 320.342L95.8726 321.28L65.1648 305.417L65.1648 248.444L65.8694 248.8C75.2084 253.503 85.2483 255.887 95.7091 255.887C132.428 255.887 162.301 226.014 162.301 189.295C162.301 188.157 162.27 186.981 162.209 185.8L162.183 185.288L215.301 185.288C229.51 185.288 241.07 196.848 241.07 211.057" fill="white"/>
</g>
<g clip-path="url(#clip3_2349_1693)">
<path d="M258.122 261.475C268.611 287.294 293.334 303.968 321.148 303.968C358.647 303.968 389.156 273.466 389.156 235.975C389.156 198.484 358.647 167.984 321.148 167.984C306.797 167.984 293.067 172.417 281.44 180.807L280.977 181.139L258.281 161.2L259.288 160.381L303.171 78.8571L310.437 66.8721H433.267C451.548 50.4292 475.113 41.3779 499.652 41.3779C501.115 41.3779 502.611 41.4122 504.113 41.4791V37.8873C504.113 17.7858 487.756 1.43082 467.649 1.43082H294.588C274.478 1.43082 258.122 17.7858 258.122 37.8873L258.122 261.475ZM321.148 305.399C292.7 305.399 267.422 288.317 256.742 261.884L256.69 261.614V37.8873C256.69 16.9961 273.69 -0.000488281 294.588 -0.000488281H467.649C488.545 -0.000488281 505.545 16.9957 505.545 37.8873V42.9846L504.793 42.9447C503.061 42.855 501.332 42.8092 499.652 42.8092C475.375 42.8092 452.067 51.7978 434.023 68.1184L433.818 68.3034H311.242L304.411 79.567L260.468 161.214L281.066 179.312C292.837 170.963 306.684 166.553 321.147 166.553C359.435 166.553 390.587 197.696 390.587 235.975C390.587 274.256 359.435 305.399 321.148 305.399Z" fill="white"/>
<path d="M499.653 71.5773C461.52 71.5773 430.498 102.595 430.498 140.719C430.498 178.844 461.521 209.861 499.653 209.861C501.018 209.861 502.449 209.809 504.114 209.697V71.7395C502.457 71.6286 501.025 71.5773 499.653 71.5773ZM499.653 211.292C460.73 211.292 429.066 179.634 429.066 140.719C429.066 101.805 460.73 70.1465 499.653 70.1465C501.239 70.1465 502.9 70.2152 504.882 70.3604L505.546 70.408V211.029L504.882 211.079C502.892 211.224 501.23 211.292 499.653 211.292Z" fill="white"/>
<path d="M258.122 310.574V316.553C258.122 336.656 274.479 353.009 294.588 353.009H467.649C487.757 353.009 504.113 336.656 504.113 316.553V239.961C502.605 240.027 501.109 240.06 499.653 240.06C444.865 240.06 400.29 195.497 400.29 140.719C400.29 125.5 403.674 110.878 410.351 97.2419H329.755L308.103 139.143C312.481 138.555 316.862 138.257 321.148 138.257C375.042 138.257 418.888 182.094 418.888 235.976C418.888 289.858 375.042 333.692 321.148 333.692C298.083 333.692 275.765 325.494 258.122 310.574ZM467.649 354.441H294.588C273.69 354.441 256.69 337.444 256.69 316.553V307.438L257.878 308.477C275.439 323.815 297.91 332.261 321.148 332.261C374.252 332.261 417.456 289.068 417.456 235.976C417.456 182.882 374.252 139.689 321.148 139.689C316.483 139.689 311.701 140.047 306.934 140.755L305.555 140.96L328.883 95.8105H412.667L412.144 96.8466C405.228 110.578 401.722 125.339 401.722 140.719C401.722 194.706 445.654 238.629 499.653 238.629C501.327 238.629 503.056 238.583 504.793 238.493L505.546 238.455V316.553C505.546 337.444 488.546 354.441 467.649 354.441" fill="white"/>
</g>
<g clip-path="url(#clip4_2349_1693)">
<path d="M699.268 168.492C716.829 161.359 728.169 144.548 728.169 125.635C728.169 100.136 707.423 79.3898 681.924 79.3898C656.426 79.3898 635.681 100.136 635.681 125.635C635.681 135.393 638.696 144.729 644.402 152.635L644.628 152.951L631.067 168.384L630.51 167.698L575.062 137.859L566.911 132.918L566.911 49.3944C555.727 36.9637 549.571 20.9398 549.571 4.2531C549.571 3.25874 549.594 2.24132 549.64 1.21986L547.197 1.21986C533.525 1.21986 522.401 12.3423 522.401 26.0154L522.401 143.695C522.401 157.369 533.525 168.492 547.197 168.492L699.268 168.492ZM729.143 125.635C729.143 144.979 717.524 162.168 699.546 169.43L699.363 169.465L547.197 169.465C532.988 169.465 521.428 157.906 521.428 143.695L521.428 26.0154C521.428 11.8061 532.988 0.246369 547.197 0.246368L550.664 0.246368L550.637 0.757888C550.576 1.93511 550.545 3.11109 550.545 4.25343C550.545 20.7613 556.658 36.611 567.758 48.8807L567.884 49.0197L567.884 132.37L575.545 137.016L631.077 166.897L643.386 152.89C637.707 144.885 634.707 135.47 634.707 125.635C634.707 99.5998 655.889 78.4166 681.924 78.4166C707.961 78.4166 729.143 99.5995 729.143 125.635Z" fill="white"/>
<path d="M570.112 4.25272C570.112 30.1828 591.208 51.2775 617.138 51.2775C643.068 51.2775 664.164 30.1825 664.164 4.25271C664.164 3.3247 664.128 2.35121 664.052 1.21947L570.222 1.21948C570.146 2.34623 570.112 3.31972 570.112 4.25272ZM665.137 4.25271C665.137 30.7202 643.605 52.251 617.138 52.251C590.67 52.251 569.138 30.7198 569.138 4.25272C569.138 3.17425 569.185 2.04499 569.284 0.697364L569.316 0.245661L664.959 0.245656L664.992 0.69736C665.091 2.04997 665.137 3.18047 665.137 4.25271Z" fill="white"/>
<path d="M732.662 168.492L736.729 168.492C750.402 168.492 761.525 157.369 761.525 143.695L761.525 26.0154C761.525 12.3422 750.402 1.21984 736.729 1.21984L684.636 1.21984C684.681 2.24536 684.703 3.26277 684.703 4.25308C684.703 41.5081 654.394 71.8187 617.138 71.8187C606.786 71.8187 596.841 69.5175 587.567 64.9771L587.567 119.782L616.065 134.505C615.666 131.528 615.463 128.549 615.463 125.635C615.463 88.9873 645.278 59.1726 681.925 59.1726C718.573 59.1726 748.386 88.9873 748.386 125.635C748.386 141.318 742.81 156.495 732.662 168.492ZM762.498 26.0154L762.498 143.695C762.498 157.906 750.938 169.465 736.729 169.465L730.53 169.465L731.236 168.658C741.668 156.716 747.413 141.437 747.413 125.635C747.413 89.5247 718.035 60.1461 681.925 60.1461C645.814 60.1461 616.437 89.5247 616.437 125.635C616.437 128.807 616.681 132.059 617.162 135.3L617.301 136.238L586.593 120.375L586.593 63.4024L587.298 63.7582C596.637 68.4608 606.677 70.8452 617.138 70.8452C653.856 70.8452 683.73 40.9719 683.73 4.25308C683.73 3.1148 683.698 1.93882 683.637 0.757546L683.612 0.246026L736.729 0.246023C750.938 0.246023 762.498 11.8058 762.498 26.015" fill="white"/>
</g>
<g clip-path="url(#clip5_2349_1693)">
<path d="M699.268 353.534C716.829 346.401 728.169 329.59 728.169 310.677C728.169 285.178 707.423 264.432 681.924 264.432C656.426 264.432 635.681 285.178 635.681 310.677C635.681 320.435 638.696 329.771 644.402 337.677L644.628 337.993L631.067 353.426L630.51 352.74L575.062 322.901L566.911 317.959L566.911 234.436C555.727 222.006 549.571 205.982 549.571 189.295C549.571 188.301 549.594 187.283 549.64 186.262L547.197 186.262C533.525 186.262 522.401 197.384 522.401 211.057L522.401 328.737C522.401 342.411 533.525 353.534 547.197 353.534L699.268 353.534ZM729.143 310.677C729.143 330.021 717.524 347.21 699.546 354.472L699.363 354.507L547.197 354.507C532.988 354.507 521.428 342.948 521.428 328.737L521.428 211.057C521.428 196.848 532.988 185.288 547.197 185.288L550.664 185.288L550.637 185.8C550.576 186.977 550.545 188.153 550.545 189.295C550.545 205.803 556.658 221.653 567.758 233.923L567.884 234.062L567.884 317.412L575.545 322.058L631.077 351.939L643.386 337.932C637.707 329.927 634.707 320.512 634.707 310.677C634.707 284.642 655.889 263.459 681.924 263.459C707.961 263.459 729.143 284.641 729.143 310.677Z" fill="white"/>
<path d="M570.112 189.295C570.112 215.225 591.208 236.319 617.138 236.319C643.068 236.319 664.164 215.224 664.164 189.295C664.164 188.367 664.128 187.393 664.052 186.261L570.222 186.261C570.146 187.388 570.112 188.362 570.112 189.295ZM665.137 189.295C665.137 215.762 643.605 237.293 617.138 237.293C590.67 237.293 569.138 215.762 569.138 189.295C569.138 188.216 569.185 187.087 569.284 185.739L569.316 185.288L664.959 185.288L664.992 185.739C665.091 187.092 665.137 188.222 665.137 189.295Z" fill="white"/>
<path d="M732.662 353.534L736.729 353.534C750.402 353.534 761.525 342.411 761.525 328.737L761.525 211.057C761.525 197.384 750.402 186.262 736.729 186.262L684.636 186.262C684.681 187.287 684.703 188.305 684.703 189.295C684.703 226.55 654.394 256.861 617.138 256.861C606.786 256.861 596.841 254.56 587.567 250.019L587.567 304.824L616.065 319.547C615.666 316.57 615.463 313.591 615.463 310.677C615.463 274.029 645.278 244.215 681.925 244.215C718.573 244.215 748.386 274.029 748.386 310.677C748.386 326.36 742.81 341.537 732.662 353.534ZM762.498 211.057L762.498 328.737C762.498 342.948 750.938 354.507 736.729 354.507L730.53 354.507L731.236 353.7C741.668 341.758 747.413 326.479 747.413 310.677C747.413 274.567 718.035 245.188 681.925 245.188C645.814 245.188 616.437 274.567 616.437 310.677C616.437 313.849 616.681 317.101 617.162 320.342L617.301 321.28L586.593 305.417L586.593 248.444L587.298 248.8C596.637 253.503 606.677 255.887 617.138 255.887C653.856 255.887 683.73 226.014 683.73 189.295C683.73 188.157 683.698 186.981 683.637 185.8L683.612 185.288L736.729 185.288C750.938 185.288 762.498 196.848 762.498 211.057" fill="white"/>
</g>
<g clip-path="url(#clip6_2349_1693)">
<path d="M779.55 261.475C790.039 287.294 814.762 303.968 842.576 303.968C880.075 303.968 910.584 273.466 910.584 235.975C910.584 198.484 880.075 167.984 842.576 167.984C828.225 167.984 814.495 172.417 802.869 180.807L802.405 181.139L779.709 161.2L780.717 160.381L824.599 78.8571L831.866 66.8721H954.695C972.976 50.4292 996.541 41.3779 1021.08 41.3779C1022.54 41.3779 1024.04 41.4122 1025.54 41.4791V37.8873C1025.54 17.7858 1009.18 1.43082 989.077 1.43082H816.016C795.907 1.43082 779.55 17.7858 779.55 37.8873L779.55 261.475ZM842.576 305.399C814.129 305.399 788.85 288.317 778.17 261.884L778.118 261.614V37.8873C778.118 16.9961 795.118 -0.000488281 816.016 -0.000488281H989.077C1009.97 -0.000488281 1026.97 16.9957 1026.97 37.8873V42.9846L1026.22 42.9447C1024.49 42.855 1022.76 42.8092 1021.08 42.8092C996.804 42.8092 973.495 51.7978 955.451 68.1184L955.247 68.3034H832.671L825.839 79.567L781.896 161.214L802.494 179.312C814.266 170.963 828.112 166.553 842.576 166.553C880.863 166.553 912.015 197.696 912.015 235.975C912.015 274.256 880.863 305.399 842.576 305.399Z" fill="white"/>
<path d="M1021.08 71.5773C982.948 71.5773 951.926 102.595 951.926 140.719C951.926 178.844 982.949 209.861 1021.08 209.861C1022.45 209.861 1023.88 209.809 1025.54 209.697V71.7395C1023.88 71.6286 1022.45 71.5773 1021.08 71.5773ZM1021.08 211.292C982.158 211.292 950.495 179.634 950.495 140.719C950.495 101.805 982.158 70.1465 1021.08 70.1465C1022.67 70.1465 1024.33 70.2152 1026.31 70.3604L1026.97 70.408V211.029L1026.31 211.079C1024.32 211.224 1022.66 211.292 1021.08 211.292Z" fill="white"/>
<path d="M779.55 310.574V316.553C779.55 336.656 795.907 353.009 816.017 353.009H989.077C1009.19 353.009 1025.54 336.656 1025.54 316.553V239.961C1024.03 240.027 1022.54 240.06 1021.08 240.06C966.294 240.06 921.719 195.497 921.719 140.719C921.719 125.5 925.103 110.878 931.78 97.2419H851.183L829.531 139.143C833.91 138.555 838.291 138.257 842.576 138.257C896.47 138.257 940.316 182.094 940.316 235.976C940.316 289.858 896.47 333.692 842.576 333.692C819.512 333.692 797.193 325.494 779.55 310.574ZM989.077 354.441H816.017C795.119 354.441 778.119 337.444 778.119 316.553V307.438L779.306 308.477C796.867 323.815 819.338 332.261 842.576 332.261C895.68 332.261 938.884 289.068 938.884 235.976C938.884 182.882 895.68 139.689 842.576 139.689C837.911 139.689 833.129 140.047 828.363 140.755L826.983 140.96L850.311 95.8105H934.096L933.572 96.8466C926.657 110.578 923.15 125.339 923.15 140.719C923.15 194.706 967.082 238.629 1021.08 238.629C1022.76 238.629 1024.48 238.583 1026.22 238.493L1026.97 238.455V316.553C1026.97 337.444 1009.97 354.441 989.078 354.441" fill="white"/>
</g>
<g clip-path="url(#clip7_2349_1693)">
<path d="M1220.7 168.492C1238.26 161.359 1249.6 144.548 1249.6 125.635C1249.6 100.136 1228.85 79.3898 1203.35 79.3898C1177.85 79.3898 1157.11 100.136 1157.11 125.635C1157.11 135.393 1160.12 144.729 1165.83 152.635L1166.06 152.951L1152.5 168.384L1151.94 167.698L1096.49 137.859L1088.34 132.918L1088.34 49.3944C1077.16 36.9637 1071 20.9398 1071 4.2531C1071 3.25874 1071.02 2.24132 1071.07 1.21986L1068.63 1.21986C1054.95 1.21986 1043.83 12.3423 1043.83 26.0154L1043.83 143.695C1043.83 157.369 1054.95 168.492 1068.63 168.492L1220.7 168.492ZM1250.57 125.635C1250.57 144.979 1238.95 162.168 1220.97 169.43L1220.79 169.465L1068.63 169.465C1054.42 169.465 1042.86 157.906 1042.86 143.695L1042.86 26.0154C1042.86 11.8061 1054.42 0.246369 1068.63 0.246368L1072.09 0.246368L1072.06 0.757888C1072 1.93511 1071.97 3.11109 1071.97 4.25343C1071.97 20.7613 1078.09 36.611 1089.19 48.8807L1089.31 49.0197L1089.31 132.37L1096.97 137.016L1152.5 166.897L1164.81 152.89C1159.14 144.885 1156.14 135.47 1156.14 125.635C1156.14 99.5998 1177.32 78.4166 1203.35 78.4166C1229.39 78.4166 1250.57 99.5995 1250.57 125.635Z" fill="white"/>
<path d="M1091.54 4.25272C1091.54 30.1828 1112.64 51.2775 1138.57 51.2775C1164.5 51.2775 1185.59 30.1825 1185.59 4.25271C1185.59 3.3247 1185.56 2.35121 1185.48 1.21947L1091.65 1.21948C1091.57 2.34623 1091.54 3.31972 1091.54 4.25272ZM1186.57 4.25271C1186.57 30.7202 1165.03 52.251 1138.57 52.251C1112.1 52.251 1090.57 30.7198 1090.57 4.25272C1090.57 3.17425 1090.61 2.04499 1090.71 0.697364L1090.74 0.245661L1186.39 0.245656L1186.42 0.69736C1186.52 2.04997 1186.57 3.18047 1186.57 4.25271Z" fill="white"/>
<path d="M1254.09 168.492L1258.16 168.492C1271.83 168.492 1282.95 157.369 1282.95 143.695L1282.95 26.0154C1282.95 12.3422 1271.83 1.21984 1258.16 1.21984L1206.06 1.21984C1206.11 2.24536 1206.13 3.26277 1206.13 4.25308C1206.13 41.5081 1175.82 71.8187 1138.57 71.8187C1128.21 71.8187 1118.27 69.5175 1108.99 64.9771L1108.99 119.782L1137.49 134.505C1137.09 131.528 1136.89 128.549 1136.89 125.635C1136.89 88.9873 1166.71 59.1726 1203.35 59.1726C1240 59.1726 1269.81 88.9873 1269.81 125.635C1269.81 141.318 1264.24 156.495 1254.09 168.492ZM1283.93 26.0154L1283.93 143.695C1283.93 157.906 1272.37 169.465 1258.16 169.465L1251.96 169.465L1252.66 168.658C1263.1 156.716 1268.84 141.437 1268.84 125.635C1268.84 89.5247 1239.46 60.1461 1203.35 60.1461C1167.24 60.1461 1137.86 89.5247 1137.86 125.635C1137.86 128.807 1138.11 132.059 1138.59 135.3L1138.73 136.238L1108.02 120.375L1108.02 63.4024L1108.73 63.7582C1118.07 68.4608 1128.1 70.8452 1138.57 70.8452C1175.28 70.8452 1205.16 40.9719 1205.16 4.25308C1205.16 3.1148 1205.13 1.93882 1205.07 0.757546L1205.04 0.246026L1258.16 0.246023C1272.37 0.246023 1283.93 11.8058 1283.93 26.015" fill="white"/>
</g>
<g clip-path="url(#clip8_2349_1693)">
<path d="M1220.7 353.534C1238.26 346.401 1249.6 329.59 1249.6 310.677C1249.6 285.178 1228.85 264.432 1203.35 264.432C1177.85 264.432 1157.11 285.178 1157.11 310.677C1157.11 320.435 1160.12 329.771 1165.83 337.677L1166.06 337.993L1152.5 353.426L1151.94 352.74L1096.49 322.901L1088.34 317.959L1088.34 234.436C1077.16 222.006 1071 205.982 1071 189.295C1071 188.301 1071.02 187.283 1071.07 186.262L1068.63 186.262C1054.95 186.262 1043.83 197.384 1043.83 211.057L1043.83 328.737C1043.83 342.411 1054.95 353.534 1068.63 353.534L1220.7 353.534ZM1250.57 310.677C1250.57 330.021 1238.95 347.21 1220.97 354.472L1220.79 354.507L1068.63 354.507C1054.42 354.507 1042.86 342.948 1042.86 328.737L1042.86 211.057C1042.86 196.848 1054.42 185.288 1068.63 185.288L1072.09 185.288L1072.06 185.8C1072 186.977 1071.97 188.153 1071.97 189.295C1071.97 205.803 1078.09 221.653 1089.19 233.923L1089.31 234.062L1089.31 317.412L1096.97 322.058L1152.5 351.939L1164.81 337.932C1159.14 329.927 1156.14 320.512 1156.14 310.677C1156.14 284.642 1177.32 263.459 1203.35 263.459C1229.39 263.459 1250.57 284.641 1250.57 310.677Z" fill="white"/>
<path d="M1091.54 189.295C1091.54 215.225 1112.64 236.319 1138.57 236.319C1164.5 236.319 1185.59 215.224 1185.59 189.295C1185.59 188.367 1185.56 187.393 1185.48 186.261L1091.65 186.261C1091.57 187.388 1091.54 188.362 1091.54 189.295ZM1186.57 189.295C1186.57 215.762 1165.03 237.293 1138.57 237.293C1112.1 237.293 1090.57 215.762 1090.57 189.295C1090.57 188.216 1090.61 187.087 1090.71 185.739L1090.74 185.288L1186.39 185.288L1186.42 185.739C1186.52 187.092 1186.57 188.222 1186.57 189.295Z" fill="white"/>
<path d="M1254.09 353.534L1258.16 353.534C1271.83 353.534 1282.95 342.411 1282.95 328.737L1282.95 211.057C1282.95 197.384 1271.83 186.262 1258.16 186.262L1206.06 186.262C1206.11 187.287 1206.13 188.305 1206.13 189.295C1206.13 226.55 1175.82 256.861 1138.57 256.861C1128.21 256.861 1118.27 254.56 1108.99 250.019L1108.99 304.824L1137.49 319.547C1137.09 316.57 1136.89 313.591 1136.89 310.677C1136.89 274.029 1166.71 244.215 1203.35 244.215C1240 244.215 1269.81 274.029 1269.81 310.677C1269.81 326.36 1264.24 341.537 1254.09 353.534ZM1283.93 211.057L1283.93 328.737C1283.93 342.948 1272.37 354.507 1258.16 354.507L1251.96 354.507L1252.66 353.7C1263.1 341.758 1268.84 326.479 1268.84 310.677C1268.84 274.567 1239.46 245.188 1203.35 245.188C1167.24 245.188 1137.86 274.567 1137.86 310.677C1137.86 313.849 1138.11 317.101 1138.59 320.342L1138.73 321.28L1108.02 305.417L1108.02 248.444L1108.73 248.8C1118.07 253.503 1128.1 255.887 1138.57 255.887C1175.28 255.887 1205.16 226.014 1205.16 189.295C1205.16 188.157 1205.13 186.981 1205.07 185.8L1205.04 185.288L1258.16 185.288C1272.37 185.288 1283.93 196.848 1283.93 211.057" fill="white"/>
</g>
<g clip-path="url(#clip9_2349_1693)">
<path d="M1300.98 261.475C1311.47 287.294 1336.19 303.968 1364 303.968C1401.5 303.968 1432.01 273.466 1432.01 235.975C1432.01 198.484 1401.5 167.984 1364 167.984C1349.65 167.984 1335.92 172.417 1324.3 180.807L1323.83 181.139L1301.14 161.2L1302.15 160.381L1346.03 78.8571L1353.29 66.8721H1476.12C1494.4 50.4292 1517.97 41.3779 1542.51 41.3779C1543.97 41.3779 1545.47 41.4122 1546.97 41.4791V37.8873C1546.97 17.7858 1530.61 1.43082 1510.51 1.43082H1337.44C1317.33 1.43082 1300.98 17.7858 1300.98 37.8873L1300.98 261.475ZM1364 305.399C1335.56 305.399 1310.28 288.317 1299.6 261.884L1299.55 261.614V37.8873C1299.55 16.9961 1316.55 -0.000488281 1337.44 -0.000488281H1510.51C1531.4 -0.000488281 1548.4 16.9957 1548.4 37.8873V42.9846L1547.65 42.9447C1545.92 42.855 1544.19 42.8092 1542.51 42.8092C1518.23 42.8092 1494.92 51.7978 1476.88 68.1184L1476.68 68.3034H1354.1L1347.27 79.567L1303.32 161.214L1323.92 179.312C1335.69 170.963 1349.54 166.553 1364 166.553C1402.29 166.553 1433.44 197.696 1433.44 235.975C1433.44 274.256 1402.29 305.399 1364 305.399Z" fill="white"/>
<path d="M1542.51 71.5773C1504.38 71.5773 1473.35 102.595 1473.35 140.719C1473.35 178.844 1504.38 209.861 1542.51 209.861C1543.87 209.861 1545.31 209.809 1546.97 209.697V71.7395C1545.31 71.6286 1543.88 71.5773 1542.51 71.5773ZM1542.51 211.292C1503.59 211.292 1471.92 179.634 1471.92 140.719C1471.92 101.805 1503.59 70.1465 1542.51 70.1465C1544.1 70.1465 1545.76 70.2152 1547.74 70.3604L1548.4 70.408V211.029L1547.74 211.079C1545.75 211.224 1544.09 211.292 1542.51 211.292Z" fill="white"/>
<path d="M1300.98 310.574V316.553C1300.98 336.656 1317.34 353.009 1337.45 353.009H1510.51C1530.61 353.009 1546.97 336.656 1546.97 316.553V239.961C1545.46 240.027 1543.97 240.06 1542.51 240.06C1487.72 240.06 1443.15 195.497 1443.15 140.719C1443.15 125.5 1446.53 110.878 1453.21 97.2419H1372.61L1350.96 139.143C1355.34 138.555 1359.72 138.257 1364 138.257C1417.9 138.257 1461.74 182.094 1461.74 235.976C1461.74 289.858 1417.9 333.692 1364 333.692C1340.94 333.692 1318.62 325.494 1300.98 310.574ZM1510.51 354.441H1337.45C1316.55 354.441 1299.55 337.444 1299.55 316.553V307.438L1300.73 308.477C1318.3 323.815 1340.77 332.261 1364 332.261C1417.11 332.261 1460.31 289.068 1460.31 235.976C1460.31 182.882 1417.11 139.689 1364 139.689C1359.34 139.689 1354.56 140.047 1349.79 140.755L1348.41 140.96L1371.74 95.8105H1455.52L1455 96.8466C1448.09 110.578 1444.58 125.339 1444.58 140.719C1444.58 194.706 1488.51 238.629 1542.51 238.629C1544.18 238.629 1545.91 238.583 1547.65 238.493L1548.4 238.455V316.553C1548.4 337.444 1531.4 354.441 1510.51 354.441" fill="white"/>
</g>
<g clip-path="url(#clip10_2349_1693)">
<path d="M1742.13 168.492C1759.69 161.359 1771.03 144.548 1771.03 125.635C1771.03 100.136 1750.28 79.3898 1724.78 79.3898C1699.28 79.3898 1678.54 100.136 1678.54 125.635C1678.54 135.393 1681.55 144.729 1687.26 152.635L1687.48 152.951L1673.92 168.384L1673.37 167.698L1617.92 137.859L1609.77 132.918L1609.77 49.3944C1598.58 36.9637 1592.43 20.9398 1592.43 4.2531C1592.43 3.25874 1592.45 2.24132 1592.5 1.21986L1590.05 1.21986C1576.38 1.21986 1565.26 12.3423 1565.26 26.0154L1565.26 143.695C1565.26 157.369 1576.38 168.492 1590.05 168.492L1742.13 168.492ZM1772 125.635C1772 144.979 1760.38 162.168 1742.4 169.43L1742.22 169.465L1590.05 169.465C1575.85 169.465 1564.28 157.906 1564.28 143.695L1564.28 26.0154C1564.28 11.8061 1575.84 0.246369 1590.05 0.246368L1593.52 0.246368L1593.49 0.757888C1593.43 1.93511 1593.4 3.11109 1593.4 4.25343C1593.4 20.7613 1599.52 36.611 1610.62 48.8807L1610.74 49.0197L1610.74 132.37L1618.4 137.016L1673.93 166.897L1686.24 152.89C1680.56 144.885 1677.56 135.47 1677.56 125.635C1677.56 99.5998 1698.75 78.4166 1724.78 78.4166C1750.82 78.4166 1772 99.5995 1772 125.635Z" fill="white"/>
<path d="M1612.97 4.25272C1612.97 30.1828 1634.07 51.2775 1659.99 51.2775C1685.92 51.2775 1707.02 30.1825 1707.02 4.25271C1707.02 3.3247 1706.99 2.35121 1706.91 1.21947L1613.08 1.21948C1613 2.34623 1612.97 3.31972 1612.97 4.25272ZM1707.99 4.25271C1707.99 30.7202 1686.46 52.251 1660 52.251C1633.53 52.251 1612 30.7198 1612 4.25272C1612 3.17425 1612.04 2.04499 1612.14 0.697364L1612.17 0.245661L1707.82 0.245656L1707.85 0.69736C1707.95 2.04997 1707.99 3.18047 1707.99 4.25271Z" fill="white"/>
<path d="M1775.52 168.492L1779.59 168.492C1793.26 168.492 1804.38 157.369 1804.38 143.695L1804.38 26.0154C1804.38 12.3422 1793.26 1.21984 1779.59 1.21984L1727.49 1.21984C1727.54 2.24536 1727.56 3.26277 1727.56 4.25308C1727.56 41.5081 1697.25 71.8187 1659.99 71.8187C1649.64 71.8187 1639.7 69.5175 1630.42 64.9771L1630.42 119.782L1658.92 134.505C1658.52 131.528 1658.32 128.549 1658.32 125.635C1658.32 88.9873 1688.13 59.1726 1724.78 59.1726C1761.43 59.1726 1791.24 88.9873 1791.24 125.635C1791.24 141.318 1785.67 156.495 1775.52 168.492ZM1805.35 26.0154L1805.35 143.695C1805.35 157.906 1793.8 169.465 1779.59 169.465L1773.39 169.465L1774.09 168.658C1784.53 156.716 1790.27 141.437 1790.27 125.635C1790.27 89.5247 1760.89 60.1461 1724.78 60.1461C1688.67 60.1461 1659.29 89.5247 1659.29 125.635C1659.29 128.807 1659.54 132.059 1660.02 135.3L1660.16 136.238L1629.45 120.375L1629.45 63.4024L1630.15 63.7582C1639.49 68.4608 1649.53 70.8452 1659.99 70.8452C1696.71 70.8452 1726.59 40.9719 1726.59 4.25308C1726.59 3.1148 1726.56 1.93882 1726.49 0.757546L1726.47 0.246026L1779.59 0.246023C1793.8 0.246023 1805.35 11.8058 1805.35 26.015" fill="white"/>
</g>
<g clip-path="url(#clip11_2349_1693)">
<path d="M1742.13 353.534C1759.69 346.401 1771.03 329.59 1771.03 310.677C1771.03 285.178 1750.28 264.432 1724.78 264.432C1699.28 264.432 1678.54 285.178 1678.54 310.677C1678.54 320.435 1681.55 329.771 1687.26 337.677L1687.48 337.993L1673.92 353.426L1673.37 352.74L1617.92 322.901L1609.77 317.959L1609.77 234.436C1598.58 222.006 1592.43 205.982 1592.43 189.295C1592.43 188.301 1592.45 187.283 1592.5 186.262L1590.05 186.262C1576.38 186.262 1565.26 197.384 1565.26 211.057L1565.26 328.737C1565.26 342.411 1576.38 353.534 1590.05 353.534L1742.13 353.534ZM1772 310.677C1772 330.021 1760.38 347.21 1742.4 354.472L1742.22 354.507L1590.05 354.507C1575.85 354.507 1564.28 342.948 1564.28 328.737L1564.28 211.057C1564.28 196.848 1575.84 185.288 1590.05 185.288L1593.52 185.288L1593.49 185.8C1593.43 186.977 1593.4 188.153 1593.4 189.295C1593.4 205.803 1599.52 221.653 1610.62 233.923L1610.74 234.062L1610.74 317.412L1618.4 322.058L1673.93 351.939L1686.24 337.932C1680.56 329.927 1677.56 320.512 1677.56 310.677C1677.56 284.642 1698.75 263.459 1724.78 263.459C1750.82 263.459 1772 284.641 1772 310.677Z" fill="white"/>
<path d="M1612.97 189.295C1612.97 215.225 1634.07 236.319 1659.99 236.319C1685.92 236.319 1707.02 215.224 1707.02 189.295C1707.02 188.367 1706.99 187.393 1706.91 186.261L1613.08 186.261C1613 187.388 1612.97 188.362 1612.97 189.295ZM1707.99 189.295C1707.99 215.762 1686.46 237.293 1660 237.293C1633.53 237.293 1612 215.762 1612 189.295C1612 188.216 1612.04 187.087 1612.14 185.739L1612.17 185.288L1707.82 185.288L1707.85 185.739C1707.95 187.092 1707.99 188.222 1707.99 189.295Z" fill="white"/>
<path d="M1775.52 353.534L1779.59 353.534C1793.26 353.534 1804.38 342.411 1804.38 328.737L1804.38 211.057C1804.38 197.384 1793.26 186.262 1779.59 186.262L1727.49 186.262C1727.54 187.287 1727.56 188.305 1727.56 189.295C1727.56 226.55 1697.25 256.861 1659.99 256.861C1649.64 256.861 1639.7 254.56 1630.42 250.019L1630.42 304.824L1658.92 319.547C1658.52 316.57 1658.32 313.591 1658.32 310.677C1658.32 274.029 1688.13 244.215 1724.78 244.215C1761.43 244.215 1791.24 274.029 1791.24 310.677C1791.24 326.36 1785.67 341.537 1775.52 353.534ZM1805.35 211.057L1805.35 328.737C1805.35 342.948 1793.8 354.507 1779.59 354.507L1773.39 354.507L1774.09 353.7C1784.53 341.758 1790.27 326.479 1790.27 310.677C1790.27 274.567 1760.89 245.188 1724.78 245.188C1688.67 245.188 1659.29 274.567 1659.29 310.677C1659.29 313.849 1659.54 317.101 1660.02 320.342L1660.16 321.28L1629.45 305.417L1629.45 248.444L1630.15 248.8C1639.49 253.503 1649.53 255.887 1659.99 255.887C1696.71 255.887 1726.59 226.014 1726.59 189.295C1726.59 188.157 1726.56 186.981 1726.49 185.8L1726.47 185.288L1779.59 185.288C1793.8 185.288 1805.35 196.848 1805.35 211.057" fill="white"/>
</g>
<g clip-path="url(#clip12_2349_1693)">
<path d="M1822.41 261.475C1832.9 287.294 1857.62 303.968 1885.43 303.968C1922.93 303.968 1953.44 273.466 1953.44 235.975C1953.44 198.484 1922.93 167.984 1885.43 167.984C1871.08 167.984 1857.35 172.417 1845.73 180.807L1845.26 181.139L1822.57 161.2L1823.57 160.381L1867.46 78.8571L1874.72 66.8721H1997.55C2015.83 50.4292 2039.4 41.3779 2063.94 41.3779C2065.4 41.3779 2066.9 41.4122 2068.4 41.4791V37.8873C2068.4 17.7858 2052.04 1.43082 2031.93 1.43082H1858.87C1838.76 1.43082 1822.41 17.7858 1822.41 37.8873L1822.41 261.475ZM1885.43 305.399C1856.99 305.399 1831.71 288.317 1821.03 261.884L1820.98 261.614V37.8873C1820.98 16.9961 1837.98 -0.000488281 1858.87 -0.000488281H2031.93C2052.83 -0.000488281 2069.83 16.9957 2069.83 37.8873V42.9846L2069.08 42.9447C2067.35 42.855 2065.62 42.8092 2063.94 42.8092C2039.66 42.8092 2016.35 51.7978 1998.31 68.1184L1998.1 68.3034H1875.53L1868.7 79.567L1824.75 161.214L1845.35 179.312C1857.12 170.963 1870.97 166.553 1885.43 166.553C1923.72 166.553 1954.87 197.696 1954.87 235.975C1954.87 274.256 1923.72 305.399 1885.43 305.399Z" fill="white"/>
<path d="M2063.94 71.5773C2025.8 71.5773 1994.78 102.595 1994.78 140.719C1994.78 178.844 2025.8 209.861 2063.94 209.861C2065.3 209.861 2066.73 209.809 2068.4 209.697V71.7395C2066.74 71.6286 2065.31 71.5773 2063.94 71.5773ZM2063.94 211.292C2025.01 211.292 1993.35 179.634 1993.35 140.719C1993.35 101.805 2025.01 70.1465 2063.94 70.1465C2065.52 70.1465 2067.18 70.2152 2069.17 70.3604L2069.83 70.408V211.029L2069.17 211.079C2067.18 211.224 2065.51 211.292 2063.94 211.292Z" fill="white"/>
<path d="M1822.41 310.574V316.553C1822.41 336.656 1838.76 353.009 1858.87 353.009H2031.93C2052.04 353.009 2068.4 336.656 2068.4 316.553V239.961C2066.89 240.027 2065.39 240.06 2063.94 240.06C2009.15 240.06 1964.58 195.497 1964.58 140.719C1964.58 125.5 1967.96 110.878 1974.64 97.2419H1894.04L1872.39 139.143C1876.77 138.555 1881.15 138.257 1885.43 138.257C1939.33 138.257 1983.17 182.094 1983.17 235.976C1983.17 289.858 1939.33 333.692 1885.43 333.692C1862.37 333.692 1840.05 325.494 1822.41 310.574ZM2031.93 354.441H1858.87C1837.98 354.441 1820.98 337.444 1820.98 316.553V307.438L1822.16 308.477C1839.72 323.815 1862.19 332.261 1885.43 332.261C1938.54 332.261 1981.74 289.068 1981.74 235.976C1981.74 182.882 1938.54 139.689 1885.43 139.689C1880.77 139.689 1875.99 140.047 1871.22 140.755L1869.84 140.96L1893.17 95.8105H1976.95L1976.43 96.8466C1969.51 110.578 1966.01 125.339 1966.01 140.719C1966.01 194.706 2009.94 238.629 2063.94 238.629C2065.61 238.629 2067.34 238.583 2069.08 238.493L2069.83 238.455V316.553C2069.83 337.444 2052.83 354.441 2031.93 354.441" fill="white"/>
</g>
<g clip-path="url(#clip13_2349_1693)">
<path d="M2263.55 168.492C2281.11 161.359 2292.46 144.548 2292.46 125.635C2292.46 100.136 2271.71 79.3898 2246.21 79.3898C2220.71 79.3898 2199.97 100.136 2199.97 125.635C2199.97 135.393 2202.98 144.729 2208.69 152.635L2208.91 152.951L2195.35 168.384L2194.8 167.698L2139.35 137.859L2131.2 132.918L2131.2 49.3944C2120.01 36.9637 2113.86 20.9398 2113.86 4.2531C2113.86 3.25874 2113.88 2.24132 2113.93 1.21986L2111.48 1.21986C2097.81 1.21986 2086.69 12.3423 2086.69 26.0154L2086.69 143.695C2086.69 157.369 2097.81 168.492 2111.48 168.492L2263.55 168.492ZM2293.43 125.635C2293.43 144.979 2281.81 162.168 2263.83 169.43L2263.65 169.465L2111.48 169.465C2097.27 169.465 2085.71 157.906 2085.71 143.695L2085.71 26.0154C2085.71 11.8061 2097.27 0.246369 2111.48 0.246368L2114.95 0.246368L2114.92 0.757888C2114.86 1.93511 2114.83 3.11109 2114.83 4.25343C2114.83 20.7613 2120.94 36.611 2132.04 48.8807L2132.17 49.0197L2132.17 132.37L2139.83 137.016L2195.36 166.897L2207.67 152.89C2201.99 144.885 2198.99 135.47 2198.99 125.635C2198.99 99.5998 2220.18 78.4166 2246.21 78.4166C2272.25 78.4166 2293.43 99.5995 2293.43 125.635Z" fill="white"/>
<path d="M2134.4 4.25272C2134.4 30.1828 2155.49 51.2775 2181.42 51.2775C2207.35 51.2775 2228.45 30.1825 2228.45 4.25271C2228.45 3.3247 2228.41 2.35121 2228.34 1.21947L2134.51 1.21948C2134.43 2.34623 2134.4 3.31972 2134.4 4.25272ZM2229.42 4.25271C2229.42 30.7202 2207.89 52.251 2181.42 52.251C2154.96 52.251 2133.42 30.7198 2133.42 4.25272C2133.42 3.17425 2133.47 2.04499 2133.57 0.697364L2133.6 0.245661L2229.24 0.245656L2229.28 0.69736C2229.38 2.04997 2229.42 3.18047 2229.42 4.25271Z" fill="white"/>
<path d="M2296.95 168.492L2301.01 168.492C2314.69 168.492 2325.81 157.369 2325.81 143.695L2325.81 26.0154C2325.81 12.3422 2314.69 1.21984 2301.01 1.21984L2248.92 1.21984C2248.97 2.24536 2248.99 3.26277 2248.99 4.25308C2248.99 41.5081 2218.68 71.8187 2181.42 71.8187C2171.07 71.8187 2161.13 69.5175 2151.85 64.9771L2151.85 119.782L2180.35 134.505C2179.95 131.528 2179.75 128.549 2179.75 125.635C2179.75 88.9873 2209.56 59.1726 2246.21 59.1726C2282.86 59.1726 2312.67 88.9873 2312.67 125.635C2312.67 141.318 2307.1 156.495 2296.95 168.492ZM2326.78 26.0154L2326.78 143.695C2326.78 157.906 2315.22 169.465 2301.01 169.465L2294.82 169.465L2295.52 168.658C2305.95 156.716 2311.7 141.437 2311.7 125.635C2311.7 89.5247 2282.32 60.1461 2246.21 60.1461C2210.1 60.1461 2180.72 89.5247 2180.72 125.635C2180.72 128.807 2180.97 132.059 2181.45 135.3L2181.59 136.238L2150.88 120.375L2150.88 63.4024L2151.58 63.7582C2160.92 68.4608 2170.96 70.8452 2181.42 70.8452C2218.14 70.8452 2248.02 40.9719 2248.02 4.25308C2248.02 3.1148 2247.98 1.93882 2247.92 0.757546L2247.9 0.246026L2301.01 0.246023C2315.22 0.246023 2326.78 11.8058 2326.78 26.015" fill="white"/>
</g>
<g clip-path="url(#clip14_2349_1693)">
<path d="M2263.55 353.534C2281.11 346.401 2292.46 329.59 2292.46 310.677C2292.46 285.178 2271.71 264.432 2246.21 264.432C2220.71 264.432 2199.97 285.178 2199.97 310.677C2199.97 320.435 2202.98 329.771 2208.69 337.677L2208.91 337.993L2195.35 353.426L2194.8 352.74L2139.35 322.901L2131.2 317.959L2131.2 234.436C2120.01 222.006 2113.86 205.982 2113.86 189.295C2113.86 188.301 2113.88 187.283 2113.93 186.262L2111.48 186.262C2097.81 186.262 2086.69 197.384 2086.69 211.057L2086.69 328.737C2086.69 342.411 2097.81 353.534 2111.48 353.534L2263.55 353.534ZM2293.43 310.677C2293.43 330.021 2281.81 347.21 2263.83 354.472L2263.65 354.507L2111.48 354.507C2097.27 354.507 2085.71 342.948 2085.71 328.737L2085.71 211.057C2085.71 196.848 2097.27 185.288 2111.48 185.288L2114.95 185.288L2114.92 185.8C2114.86 186.977 2114.83 188.153 2114.83 189.295C2114.83 205.803 2120.94 221.653 2132.04 233.923L2132.17 234.062L2132.17 317.412L2139.83 322.058L2195.36 351.939L2207.67 337.932C2201.99 329.927 2198.99 320.512 2198.99 310.677C2198.99 284.642 2220.18 263.459 2246.21 263.459C2272.25 263.459 2293.43 284.641 2293.43 310.677Z" fill="white"/>
<path d="M2134.4 189.295C2134.4 215.225 2155.49 236.319 2181.42 236.319C2207.35 236.319 2228.45 215.224 2228.45 189.295C2228.45 188.367 2228.41 187.393 2228.34 186.261L2134.51 186.261C2134.43 187.388 2134.4 188.362 2134.4 189.295ZM2229.42 189.295C2229.42 215.762 2207.89 237.293 2181.42 237.293C2154.96 237.293 2133.42 215.762 2133.42 189.295C2133.42 188.216 2133.47 187.087 2133.57 185.739L2133.6 185.288L2229.24 185.288L2229.28 185.739C2229.38 187.092 2229.42 188.222 2229.42 189.295Z" fill="white"/>
<path d="M2296.95 353.534L2301.01 353.534C2314.69 353.534 2325.81 342.411 2325.81 328.737L2325.81 211.057C2325.81 197.384 2314.69 186.262 2301.01 186.262L2248.92 186.262C2248.97 187.287 2248.99 188.305 2248.99 189.295C2248.99 226.55 2218.68 256.861 2181.42 256.861C2171.07 256.861 2161.13 254.56 2151.85 250.019L2151.85 304.824L2180.35 319.547C2179.95 316.57 2179.75 313.591 2179.75 310.677C2179.75 274.029 2209.56 244.215 2246.21 244.215C2282.86 244.215 2312.67 274.029 2312.67 310.677C2312.67 326.36 2307.1 341.537 2296.95 353.534ZM2326.78 211.057L2326.78 328.737C2326.78 342.948 2315.22 354.507 2301.01 354.507L2294.82 354.507L2295.52 353.7C2305.95 341.758 2311.7 326.479 2311.7 310.677C2311.7 274.567 2282.32 245.188 2246.21 245.188C2210.1 245.188 2180.72 274.567 2180.72 310.677C2180.72 313.849 2180.97 317.101 2181.45 320.342L2181.59 321.28L2150.88 305.417L2150.88 248.444L2151.58 248.8C2160.92 253.503 2170.96 255.887 2181.42 255.887C2218.14 255.887 2248.02 226.014 2248.02 189.295C2248.02 188.157 2247.98 186.981 2247.92 185.8L2247.9 185.288L2301.01 185.288C2315.22 185.288 2326.78 196.848 2326.78 211.057" fill="white"/>
</g>
<g clip-path="url(#clip15_2349_1693)">
<path d="M2343.84 261.475C2354.33 287.294 2379.05 303.968 2406.86 303.968C2444.36 303.968 2474.87 273.466 2474.87 235.975C2474.87 198.484 2444.36 167.984 2406.86 167.984C2392.51 167.984 2378.78 172.417 2367.15 180.807L2366.69 181.139L2343.99 161.2L2345 160.381L2388.88 78.8571L2396.15 66.8721H2518.98C2537.26 50.4292 2560.83 41.3779 2585.37 41.3779C2586.83 41.3779 2588.32 41.4122 2589.83 41.4791V37.8873C2589.83 17.7858 2573.47 1.43082 2553.36 1.43082H2380.3C2360.19 1.43082 2343.84 17.7858 2343.84 37.8873L2343.84 261.475ZM2406.86 305.399C2378.41 305.399 2353.14 288.317 2342.46 261.884L2342.4 261.614V37.8873C2342.4 16.9961 2359.4 -0.000488281 2380.3 -0.000488281H2553.36C2574.26 -0.000488281 2591.26 16.9957 2591.26 37.8873V42.9846L2590.51 42.9447C2588.78 42.855 2587.05 42.8092 2585.37 42.8092C2561.09 42.8092 2537.78 51.7978 2519.74 68.1184L2519.53 68.3034H2396.96L2390.12 79.567L2346.18 161.214L2366.78 179.312C2378.55 170.963 2392.4 166.553 2406.86 166.553C2445.15 166.553 2476.3 197.696 2476.3 235.975C2476.3 274.256 2445.15 305.399 2406.86 305.399Z" fill="white"/>
<path d="M2585.37 71.5773C2547.23 71.5773 2516.21 102.595 2516.21 140.719C2516.21 178.844 2547.23 209.861 2585.37 209.861C2586.73 209.861 2588.16 209.809 2589.83 209.697V71.7395C2588.17 71.6286 2586.74 71.5773 2585.37 71.5773ZM2585.37 211.292C2546.44 211.292 2514.78 179.634 2514.78 140.719C2514.78 101.805 2546.44 70.1465 2585.37 70.1465C2586.95 70.1465 2588.61 70.2152 2590.59 70.3604L2591.26 70.408V211.029L2590.59 211.079C2588.61 211.224 2586.94 211.292 2585.37 211.292Z" fill="white"/>
<path d="M2343.84 310.574V316.553C2343.84 336.656 2360.19 353.009 2380.3 353.009H2553.36C2573.47 353.009 2589.83 336.656 2589.83 316.553V239.961C2588.32 240.027 2586.82 240.06 2585.37 240.06C2530.58 240.06 2486 195.497 2486 140.719C2486 125.5 2489.39 110.878 2496.07 97.2419H2415.47L2393.82 139.143C2398.2 138.555 2402.58 138.257 2406.86 138.257C2460.76 138.257 2504.6 182.094 2504.6 235.976C2504.6 289.858 2460.76 333.692 2406.86 333.692C2383.8 333.692 2361.48 325.494 2343.84 310.574ZM2553.36 354.441H2380.3C2359.4 354.441 2342.4 337.444 2342.4 316.553V307.438L2343.59 308.477C2361.15 323.815 2383.62 332.261 2406.86 332.261C2459.97 332.261 2503.17 289.068 2503.17 235.976C2503.17 182.882 2459.97 139.689 2406.86 139.689C2402.2 139.689 2397.41 140.047 2392.65 140.755L2391.27 140.96L2414.6 95.8105H2498.38L2497.86 96.8466C2490.94 110.578 2487.44 125.339 2487.44 140.719C2487.44 194.706 2531.37 238.629 2585.37 238.629C2587.04 238.629 2588.77 238.583 2590.51 238.493L2591.26 238.455V316.553C2591.26 337.444 2574.26 354.441 2553.36 354.441" fill="white"/>
</g>
</g>
<defs>
<clipPath id="clip0_2349_1693">
<rect width="2526" height="355" fill="white"/>
</clipPath>
<clipPath id="clip1_2349_1693">
<rect width="169.465" height="241.114" fill="white" transform="translate(0 169.465) rotate(-90)"/>
</clipPath>
<clipPath id="clip2_2349_1693">
<rect width="169.465" height="241.114" fill="white" transform="translate(0 354.507) rotate(-90)"/>
</clipPath>
<clipPath id="clip3_2349_1693">
<rect width="249.162" height="354.507" fill="white" transform="translate(256.69)"/>
</clipPath>
<clipPath id="clip4_2349_1693">
<rect width="169.465" height="241.114" fill="white" transform="translate(521.428 169.465) rotate(-90)"/>
</clipPath>
<clipPath id="clip5_2349_1693">
<rect width="169.465" height="241.114" fill="white" transform="translate(521.428 354.507) rotate(-90)"/>
</clipPath>
<clipPath id="clip6_2349_1693">
<rect width="249.162" height="354.507" fill="white" transform="translate(778.119)"/>
</clipPath>
<clipPath id="clip7_2349_1693">
<rect width="169.465" height="241.114" fill="white" transform="translate(1042.86 169.465) rotate(-90)"/>
</clipPath>
<clipPath id="clip8_2349_1693">
<rect width="169.465" height="241.114" fill="white" transform="translate(1042.86 354.507) rotate(-90)"/>
</clipPath>
<clipPath id="clip9_2349_1693">
<rect width="249.162" height="354.507" fill="white" transform="translate(1299.55)"/>
</clipPath>
<clipPath id="clip10_2349_1693">
<rect width="169.465" height="241.114" fill="white" transform="translate(1564.29 169.465) rotate(-90)"/>
</clipPath>
<clipPath id="clip11_2349_1693">
<rect width="169.465" height="241.114" fill="white" transform="translate(1564.29 354.507) rotate(-90)"/>
</clipPath>
<clipPath id="clip12_2349_1693">
<rect width="249.162" height="354.507" fill="white" transform="translate(1820.98)"/>
</clipPath>
<clipPath id="clip13_2349_1693">
<rect width="169.465" height="241.114" fill="white" transform="translate(2085.71 169.465) rotate(-90)"/>
</clipPath>
<clipPath id="clip14_2349_1693">
<rect width="169.465" height="241.114" fill="white" transform="translate(2085.71 354.507) rotate(-90)"/>
</clipPath>
<clipPath id="clip15_2349_1693">
<rect width="249.162" height="354.507" fill="white" transform="translate(2342.4)"/>
</clipPath>
</defs>
</svg>
