<svg width="169" height="22" viewBox="0 0 169 22" fill="none" xmlns="http://www.w3.org/2000/svg">
<path d="M16.5562 12.9113H31.6949L34.6387 8.31927H19.4975L21.3048 5.50135H39.2311L42.2437 0.800781H12.8935L0 20.8788H24.3819C27.3343 20.8788 30.2353 19.1367 32.4463 16.0662H14.5382L16.5562 12.9113Z" fill="white"/>
<path d="M62.6917 7.74385C62.3764 8.2396 61.9269 8.62461 61.2828 9.01178C60.6685 9.34315 59.9296 9.5655 59.2617 9.67408C58.4921 9.78613 57.2272 9.89644 55.5349 9.89644H51.3508L54.0437 5.69768H57.8307C60.0218 5.69768 61.5445 5.81405 62.3249 6.14282C63.0456 6.42141 63.1879 6.97037 62.6917 7.74385ZM71.8636 1.83678C70.9781 1.50541 69.6271 1.28781 68.0399 1.11824C66.3895 0.904103 63.8368 0.845703 60.3505 0.845703H45.6086L32.7476 20.8843H39.3849C43.0783 20.7753 46.0831 18.6967 48.4049 14.645H55.1763C57.3665 14.645 59.4659 14.478 61.535 14.1999C62.9716 13.9853 64.0077 13.763 64.7119 13.5956C65.7869 13.3148 66.9329 12.9332 68.0494 12.4375C69.1612 11.9383 70.2833 11.2734 71.4133 10.4463C72.5449 9.62131 73.443 8.67739 74.1178 7.63267C74.7183 6.69438 74.954 5.86726 75.0155 5.14872C74.9783 4.43277 74.704 3.76701 74.1014 3.16008C73.5598 2.61112 72.7465 2.16901 71.8636 1.83678Z" fill="white"/>
<path d="M132.191 17.6069C133.693 16.6686 134.827 15.6689 135.532 14.5632C136.42 13.1815 136.306 11.968 135.283 10.9121C134.265 9.86259 131.811 9.02985 127.881 8.47786L123.687 7.87136C121.676 7.59018 120.556 7.31375 120.137 7.04122C119.879 6.8154 119.856 6.54287 120.035 6.26211C120.283 5.87797 120.76 5.60414 121.397 5.38178C122.306 5.04998 123.511 4.883 124.804 4.883C126.198 4.883 127.19 5.04998 127.71 5.32252C128.328 5.60414 128.544 6.04192 128.352 6.65145H139.606C139.903 5.87797 139.996 5.26758 139.95 4.71559C139.908 4.15971 139.764 3.61118 139.384 3.11196C139.041 2.55824 138.327 2.11743 137.516 1.67272C136.668 1.28771 135.389 0.956778 133.672 0.678187C131.922 0.452806 130.036 0.291016 127.747 0.291016C125.856 0.291016 123.991 0.402192 122.055 0.619787C120.12 0.845601 118.18 1.22975 116.428 1.7839C114.618 2.28225 113.062 3.00079 111.599 3.88631C110.135 4.77485 109.099 5.76593 108.388 6.8738C107.647 8.03315 107.507 9.02985 108.006 9.80419C108.37 10.6313 109.472 11.2443 111.013 11.7976C112.586 12.2968 114.329 12.6831 116.345 12.9617L120.074 13.5102C121.988 13.7888 123.107 14.0648 123.427 14.343C123.782 14.5632 123.77 14.8976 123.488 15.3375C123.237 15.7247 122.862 16.0028 122.222 16.223C121.314 16.5574 120.048 16.6686 118.454 16.6686C116.661 16.6686 115.372 16.5012 114.686 16.1646C114.005 15.8337 113.825 15.3375 113.915 14.7301H102.562C102.196 15.6161 101.997 16.39 102.168 17.0527C102.3 17.9357 102.901 18.71 103.87 19.3758C104.838 20.0407 106.312 20.542 108.253 20.9236C110.232 21.2571 112.517 21.4198 115.006 21.4198C117.295 21.4198 119.46 21.3138 121.766 20.9794C124.035 20.7034 126.009 20.2613 127.626 19.7651C129.273 19.2084 130.731 18.4924 132.191 17.6069Z" fill="white"/>
<path d="M158.205 6.82941L157.313 14.129H149.844L158.205 6.82941ZM142.17 20.8788L145.203 18.2257H156.782L156.477 20.8788H168.253V0.800781H156.189L130.382 20.8788H142.17Z" fill="white"/>
<path d="M100.699 0.799805L90.1675 7.60019L88.4501 0.799805H75.2041L80.3996 13.5237L75.6856 20.8787H86.1695C86.1695 20.8787 87.3933 21.0694 88.5289 19.4524C89.8128 17.4499 92.0229 14.003 92.334 13.5293L113.847 0.799805H100.699Z" fill="white"/>
</svg>
