<svg width="90" height="90" viewBox="0 0 90 90" fill="none" xmlns="http://www.w3.org/2000/svg">
<path d="M82.5 45C82.5 65.625 65.625 82.5 45 82.5C24.375 82.5 7.5 65.625 7.5 45C7.5 24.375 24.375 7.5 45 7.5C65.625 7.5 82.5 24.375 82.5 45Z" fill="#FFCA28"/>
<path d="M48.75 50.625H41.25V24.375H48.75V50.625ZM41.25 61.875C41.25 59.8125 42.9375 58.125 45 58.125C47.0625 58.125 48.75 59.8125 48.75 61.875C48.75 63.9375 47.0625 65.625 45 65.625C42.9375 65.625 41.25 63.9375 41.25 61.875Z" fill="#37474F"/>
</svg>
