<svg width="90" height="90" viewBox="0 0 90 90" fill="none" xmlns="http://www.w3.org/2000/svg">
<g clip-path="url(#clip0_2391_3913)">
<path d="M65.625 9.375H13.125C8.98312 9.375 5.625 12.7331 5.625 16.875V48.75C5.625 52.89 8.98312 56.25 13.125 56.25H65.625C69.7669 56.25 73.125 52.89 73.125 48.75V16.875C73.125 12.7331 69.7669 9.375 65.625 9.375Z" fill="#B0BEC5"/>
<path d="M7.66497 11.7617C6.8006 12.6861 6.17435 13.8205 5.8631 15.088L39.375 39.3748L72.8869 15.088C72.5756 13.8205 71.9494 12.6861 71.085 11.7636L39.375 34.7455L7.66497 11.7617Z" fill="#607D8B"/>
<path d="M76.875 30H24.375C20.2331 30 16.875 33.3581 16.875 37.5V69.375C16.875 73.515 20.2331 76.875 24.375 76.875H76.875C81.0169 76.875 84.375 73.515 84.375 69.375V37.5C84.375 33.3581 81.0169 30 76.875 30Z" fill="#CFD8DC"/>
<path d="M18.915 32.3867C18.0506 33.3092 17.4243 34.4455 17.1131 35.7111L50.625 59.9998L84.1369 35.713C83.8256 34.4455 83.1994 33.3111 82.335 32.3886L50.625 55.3705L18.915 32.3867Z" fill="#78909C"/>
<path d="M90 75L73.125 60V90L90 75Z" fill="#2E73E5"/>
<path d="M50.625 69.375H75V80.625H50.625V69.375Z" fill="#2E73E5"/>
</g>
<defs>
<clipPath id="clip0_2391_3913">
<rect width="90" height="90" fill="white"/>
</clipPath>
</defs>
</svg>
