<svg width="90" height="90" viewBox="0 0 90 90" fill="none" xmlns="http://www.w3.org/2000/svg">
<path d="M69.375 73.125H20.625L9.375 84.375V20.625C9.375 14.4375 14.4375 9.375 20.625 9.375H69.375C75.5625 9.375 80.625 14.4375 80.625 20.625V61.875C80.625 68.0625 75.5625 73.125 69.375 73.125Z" fill="#009688"/>
<path d="M24.375 33.75H28.125V48.75H24.375V33.75Z" fill="white"/>
<path d="M18.8173 39.124L20.6923 35.8764L33.6827 43.3764L31.8077 46.624L18.8173 39.124Z" fill="white"/>
<path d="M18.8171 43.375L31.8075 35.875L33.6825 39.1226L20.6921 46.6226L18.8171 43.375Z" fill="white"/>
<path d="M43.125 33.75H46.875V48.75H43.125V33.75Z" fill="white"/>
<path d="M37.5673 39.124L39.4423 35.8764L52.4327 43.3764L50.5577 46.624L37.5673 39.124Z" fill="white"/>
<path d="M37.5671 43.375L50.5575 35.875L52.4325 39.1226L39.4421 46.6226L37.5671 43.375Z" fill="white"/>
<path d="M61.875 33.75H65.625V48.75H61.875V33.75Z" fill="white"/>
<path d="M56.3157 39.125L58.1907 35.8774L71.1811 43.3774L69.3061 46.625L56.3157 39.125Z" fill="white"/>
<path d="M56.3159 43.375L69.3062 35.875L71.1812 39.1226L58.1909 46.6226L56.3159 43.375Z" fill="white"/>
</svg>
