<svg width="90" height="90" viewBox="0 0 90 90" fill="none" xmlns="http://www.w3.org/2000/svg">
<g clip-path="url(#clip0_2387_2324)">
<path d="M84.375 60C84.375 64.14 81.0169 67.5 76.875 67.5H13.125C8.98312 67.5 5.625 64.14 5.625 60V18.75C5.625 14.6062 8.98312 11.25 13.125 11.25H76.875C81.0169 11.25 84.375 14.6062 84.375 18.75V60Z" fill="#81D4FA"/>
<path d="M35.625 33.75C35.625 37.89 32.2669 41.25 28.125 41.25C23.9831 41.25 20.625 37.89 20.625 33.75C20.625 29.6081 23.9831 26.25 28.125 26.25C32.2669 26.25 35.625 29.6081 35.625 33.75ZM41.25 50.625C41.25 50.625 37.6162 45 28.125 45C18.63 45 15 50.625 15 50.625V54.375H41.25V50.625ZM75 28.125H46.875V31.875H75V28.125ZM75 37.5H46.875V41.25H75V37.5ZM61.875 46.875H46.875V50.625H61.875V46.875Z" fill="#0277BD"/>
<path d="M90 71.25C90 81.6056 81.6056 90 71.25 90C60.8944 90 52.5 81.6056 52.5 71.25C52.5 60.8944 60.8944 52.5 71.25 52.5C81.6056 52.5 90 60.8944 90 71.25Z" fill="#F44336"/>
<path d="M81.194 77.2161L77.2166 81.1936L61.3064 65.284L65.2838 61.3064L81.194 77.2161Z" fill="white"/>
<path d="M65.2825 81.1921L61.3051 77.2146L77.2139 61.3063L81.1913 65.2838L65.2825 81.1921Z" fill="white"/>
</g>
<defs>
<clipPath id="clip0_2387_2324">
<rect width="90" height="90" fill="white"/>
</clipPath>
</defs>
</svg>
