<svg width="90" height="90" viewBox="0 0 90 90" fill="none" xmlns="http://www.w3.org/2000/svg">
<path d="M84.375 65.625C84.375 69.765 81.0169 73.125 76.875 73.125H13.125C8.98312 73.125 5.625 69.765 5.625 65.625V24.375C5.625 20.2312 8.98312 16.875 13.125 16.875H76.875C81.0169 16.875 84.375 20.2312 84.375 24.375V65.625Z" fill="#03A9F4"/>
<path d="M35.625 39.375C35.625 43.515 32.2669 46.875 28.125 46.875C23.9831 46.875 20.625 43.515 20.625 39.375C20.625 35.2331 23.9831 31.875 28.125 31.875C32.2669 31.875 35.625 35.2331 35.625 39.375ZM41.25 56.25C41.25 56.25 37.6162 50.625 28.125 50.625C18.63 50.625 15 56.25 15 56.25V60H41.25V56.25ZM75 33.75H46.875V37.5H75V33.75ZM75 43.125H46.875V46.875H75V43.125ZM61.875 52.5H46.875V56.25H61.875V52.5Z" fill="#E3F2FD"/>
</svg>
