<svg width="90" height="90" viewBox="0 0 90 90" fill="none" xmlns="http://www.w3.org/2000/svg">
<path d="M82.5 78.75H7.5L13.125 50.625H76.875L82.5 78.75Z" fill="#CFD8DC"/>
<path d="M67.5 67.5H22.5C20.4375 67.5 18.75 65.8125 18.75 63.75C18.75 61.6875 20.4375 60 22.5 60H67.5C69.5625 60 71.25 61.6875 71.25 63.75C71.25 65.8125 69.5625 67.5 67.5 67.5Z" fill="#455A64"/>
<path d="M43.125 11.25L57.6675 28.2169C58.125 29.1319 58.125 30.5044 58.125 31.875L51.2175 47.2388C50.7637 49.5263 49.1644 51.585 46.875 52.5C45.5513 52.9969 47.1394 51.2663 43.2281 52.5C43.2806 49.3631 42.1144 46.2113 39.72 43.8188C39.3019 43.3988 38.8556 43.0331 38.3944 42.69L44.4037 40.7231L43.9462 31.875L33.75 24.375C33.75 24.375 18.75 41.25 16.875 11.25H43.125Z" fill="#FFA726"/>
<path d="M28.125 31.875H61.875V65.625H28.125V31.875Z" fill="#64B5F6"/>
<path d="M41.6606 52.0894C39.12 54.1444 35.8387 53.1806 33.8887 51.0431L18.75 33.75C17.7731 32.6831 16.875 27.5737 16.875 26.4075C16.875 20.7825 16.875 11.25 16.875 11.25L35.625 24.375V33.75L41.9644 43.1981C44.6269 46.6444 44.2162 49.9556 41.6606 52.0894Z" fill="#FFA726"/>
<path d="M35.8592 50.0647C37.196 51.3754 39.341 51.3585 40.6573 50.0216C41.9679 48.6829 41.9492 46.536 40.6104 45.2235C39.2754 43.911 34.5223 48.7522 35.8592 50.0647Z" fill="#FFCDD2"/>
<path d="M28.125 63.75H61.875V67.5H28.125V63.75Z" fill="#1E88E5"/>
<path d="M43.9462 31.8749L35.625 25.7549V31.8749H43.9462Z" fill="#D68022"/>
</svg>
