<svg width="90" height="90" viewBox="0 0 90 90" fill="none" xmlns="http://www.w3.org/2000/svg">
<path d="M74.9998 75H14.9998C13.6554 75 12.4179 74.2819 11.7486 73.1175C11.0811 71.9531 11.0848 70.5206 11.7617 69.36L41.7617 16.86C42.433 15.7087 43.6667 15 44.9998 15C46.333 15 47.5667 15.7087 48.2398 16.86L78.2398 69.36C78.9167 70.5206 78.9204 71.9531 78.253 73.1175C77.5854 74.2819 76.3423 75 74.9998 75Z" fill="#FFB81B"/>
<path d="M41.25 64.0162C41.25 63.5119 41.3381 63.0506 41.5181 62.6175C41.6944 62.19 41.9475 61.8188 42.2737 61.5075C42.5944 61.1925 42.99 60.9469 43.4438 60.7706C43.9013 60.5981 44.415 60.5063 44.9887 60.5063C45.5625 60.5063 46.08 60.5981 46.5413 60.7706C47.01 60.9469 47.4056 61.1925 47.7263 61.5075C48.0544 61.8188 48.3075 62.19 48.4819 62.6175C48.6619 63.0506 48.75 63.5119 48.75 64.0162C48.75 64.5225 48.6619 64.9837 48.4819 65.4037C48.3056 65.8256 48.0525 66.1894 47.7263 66.5063C47.4056 66.8175 47.01 67.0612 46.5413 67.2412C46.08 67.4137 45.5625 67.5 44.9887 67.5C44.4131 67.5 43.9013 67.4137 43.4438 67.2394C42.99 67.0594 42.5944 66.8156 42.2737 66.5044C41.9456 66.1875 41.6925 65.8237 41.5181 65.4019C41.3381 64.9819 41.25 64.5206 41.25 64.0162ZM47.775 56.25H42.2006L41.4113 33.75H48.5625L47.775 56.25Z" fill="#5D4037"/>
</svg>
