<svg width="90" height="90" viewBox="0 0 90 90" fill="none" xmlns="http://www.w3.org/2000/svg">
<g clip-path="url(#clip0_2387_2304)">
<path d="M84.375 60C84.375 64.14 81.0169 67.5 76.875 67.5H13.125C8.98312 67.5 5.625 64.14 5.625 60V18.75C5.625 14.6062 8.98312 11.25 13.125 11.25H76.875C81.0169 11.25 84.375 14.6062 84.375 18.75V60Z" fill="#81D4FA"/>
<path d="M35.625 33.75C35.625 37.89 32.2669 41.25 28.125 41.25C23.9831 41.25 20.625 37.89 20.625 33.75C20.625 29.6081 23.9831 26.25 28.125 26.25C32.2669 26.25 35.625 29.6081 35.625 33.75ZM41.25 50.625C41.25 50.625 37.6162 45 28.125 45C18.63 45 15 50.625 15 50.625V54.375H41.25V50.625ZM75 28.125H46.875V31.875H75V28.125ZM75 37.5H46.875V41.25H75V37.5ZM61.875 46.875H46.875V50.625H61.875V46.875Z" fill="#0277BD"/>
<path d="M90 71.25C90 81.5625 81.5625 90 71.25 90C60.9375 90 52.5 81.5625 52.5 71.25C52.5 60.9375 60.9375 52.5 71.25 52.5C81.5625 52.5 90 60.9375 90 71.25Z" fill="#43A047"/>
<path d="M79.6875 62.625L69 73.125L63.9375 68.0625L60 72.1875L69 81.1875L83.625 66.5625L79.6875 62.625Z" fill="#DCEDC8"/>
</g>
<defs>
<clipPath id="clip0_2387_2304">
<rect width="90" height="90" fill="white"/>
</clipPath>
</defs>
</svg>
