<svg width="67" height="67" viewBox="0 0 67 67" fill="none" xmlns="http://www.w3.org/2000/svg">
<path d="M33.5 58.6252C33.1933 58.6252 32.8876 58.5582 32.6039 58.4242C31.7423 58.0159 12.5625 48.2737 12.5625 34.2854V15.7034C12.5625 14.6481 13.3487 13.7572 14.3966 13.6264C14.5181 13.6106 25.6474 12.055 32.5641 8.59612C33.1535 8.30195 33.8486 8.30195 34.437 8.59612C41.3526 12.055 52.4819 13.6106 52.6044 13.6264C53.6513 13.7572 54.4375 14.6481 54.4375 15.7034V34.2854C54.4375 48.2737 35.2577 58.0159 34.3961 58.4242C34.1124 58.5582 33.8067 58.6252 33.5 58.6252ZM16.75 17.5197V34.2854C16.75 44.1961 29.77 52.2288 33.499 54.1844C37.2279 52.2246 50.25 44.1752 50.25 34.2854V17.5197C46.6079 16.9586 39.4044 15.472 33.5 12.7878C27.5956 15.472 20.3921 16.9586 16.75 17.5197Z" fill="#525252"/>
</svg>
