<svg width="67" height="67" viewBox="0 0 67 67" fill="none" xmlns="http://www.w3.org/2000/svg">
<path d="M55.4844 9.42188C52.2464 9.42188 35.5639 9.95482 25.0187 20.4979C24.0011 21.5158 23.1406 22.598 22.3893 23.7019C20.5168 23.8848 16.8624 24.5607 13.9263 27.0899C9.85713 30.597 9.44275 36.2639 9.426 36.5036C9.38517 37.1181 9.61702 37.7184 10.0598 38.1455C10.4524 38.5245 10.9755 38.7344 11.5157 38.7344C11.5848 38.7344 11.6541 38.7315 11.7222 38.7242L17.8051 38.1148C17.7932 38.4791 17.7958 38.716 17.7969 38.7732C17.8074 39.3155 18.0272 39.8316 18.4103 40.2147L26.7853 48.5897C27.1685 48.9729 27.6845 49.1917 28.2268 49.2011C28.2488 49.2021 28.2958 49.2031 28.3638 49.2031C28.4629 49.2031 28.6961 49.1942 28.8852 49.1888L28.2759 55.2758C28.2152 55.8882 28.4274 56.4974 28.8545 56.9402C29.2492 57.3495 29.793 57.5781 30.3594 57.5781C30.4044 57.5781 30.4503 57.5772 30.4964 57.574C30.7351 57.5583 36.4021 57.144 39.9081 53.0737C42.4348 50.1422 43.1136 46.4836 43.2981 44.6108C44.4021 43.8593 45.4823 42.9993 46.5001 41.9813C57.0442 31.4393 57.5782 14.7536 57.5782 11.5156C57.5782 10.3599 56.6402 9.42188 55.4844 9.42188ZM53.3273 13.6728C53.0352 18.9888 51.4758 31.0843 43.5394 39.0206C38.5406 44.0195 31.472 44.8509 29.106 44.989L22.011 37.894C22.1492 35.527 22.9816 28.4595 27.9794 23.4606C35.9168 15.5243 48.0123 13.9648 53.3273 13.6728ZM41.875 20.9375C39.5625 20.9375 37.6875 22.8125 37.6875 25.125C37.6875 27.4375 39.5625 29.3125 41.875 29.3125C44.1876 29.3125 46.0625 27.4375 46.0625 25.125C46.0625 22.8125 44.1876 20.9375 41.875 20.9375ZM19.8518 28.5089C19.0868 30.4329 18.6018 32.2732 18.3019 33.8578L14.1512 34.2729C14.5836 32.9622 15.341 31.3971 16.6601 30.2612C17.6455 29.4121 18.7832 28.8708 19.8518 28.5089ZM16.3166 42.4884C14.5023 44.3026 12.5625 47.8443 12.5625 52.3438C12.5625 53.4995 13.5005 54.4375 14.6563 54.4375C19.1537 54.4375 22.6964 52.4988 24.5116 50.6835L21.5509 47.7228C21.3447 47.9301 19.8647 48.4722 18.5289 48.4711C18.5289 47.1311 19.071 45.6553 19.2773 45.4491L16.3166 42.4884ZM38.489 47.1503C38.1267 48.2179 37.5855 49.3552 36.7368 50.34C35.5988 51.6611 34.0368 52.4185 32.7271 52.8488L33.1422 48.6981C34.7262 48.3984 36.5663 47.9147 38.489 47.1503Z" fill="#1C4C9C"/>
</svg>
