<svg width="90" height="90" viewBox="0 0 90 90" fill="none" xmlns="http://www.w3.org/2000/svg">
<path d="M45 3.75L53.4488 13.1794L65.625 9.375L68.3719 21.6281L80.625 24.375L76.875 36.5512L86.25 45L76.875 53.4488L80.625 65.625L68.3719 68.3719L65.625 80.625L53.4488 76.8206L45 86.25L36.5512 76.8206L24.375 80.625L21.6281 68.3719L9.375 65.625L13.125 53.4488L3.75 45L13.125 36.5512L9.375 24.375L21.6281 21.6281L24.375 9.375L36.5512 13.1794L45 3.75Z" fill="#01A14C"/>
<path d="M64.8788 27.3789L39.3751 52.8733L28.8713 42.377L23.627 47.6214L39.3751 63.377L70.1213 32.6233L64.8788 27.3789Z" fill="#C2FFD1"/>
</svg>
