<svg width="23" height="23" viewBox="0 0 23 23" fill="none" xmlns="http://www.w3.org/2000/svg">
<g clip-path="url(#clip0_2163_2048)">
<path d="M18.4555 18.9161H15.5723L13.8416 21.2231L11.812 14.7637H16.3257L18.4555 18.9161Z" fill="#E53935"/>
<path d="M3.69141 18.9161H6.5746L8.30526 21.2231L10.3349 14.7637H5.82116L3.69141 18.9161Z" fill="#E53935"/>
<path d="M18.6051 10.4252C18.3527 9.96704 18.3527 9.41107 18.6051 8.95292L18.726 8.7333C19.1205 8.01585 18.8796 7.1143 18.1783 6.69029L17.9638 6.56017C17.5162 6.28888 17.2385 5.80812 17.2274 5.28537L17.2219 5.03437C17.2052 4.21542 16.5455 3.55564 15.7265 3.53903L15.4755 3.53349C14.9523 3.52288 14.4711 3.24466 14.2007 2.79712L14.0706 2.58257C13.6466 1.88173 12.745 1.64043 12.0276 2.03491L11.808 2.15579C11.3498 2.40817 10.7938 2.40817 10.3357 2.15579L10.1165 2.03537C9.39907 1.64089 8.49799 1.88219 8.07398 2.58304L7.94387 2.79758C7.67257 3.24512 7.19181 3.52288 6.66906 3.53395L6.41807 3.53949C5.59911 3.5561 4.93933 4.21588 4.92272 5.03484L4.91718 5.28583C4.90657 5.80904 4.62835 6.29027 4.18081 6.56064L3.96626 6.69075C3.26588 7.11476 3.02412 8.01631 3.4186 8.73376L3.53948 8.95338C3.79186 9.41154 3.79186 9.9675 3.53948 10.4257L3.41906 10.6448C3.02458 11.3623 3.26542 12.2638 3.96673 12.6878L4.18127 12.8179C4.62881 13.0892 4.90657 13.57 4.91764 14.0927L4.92318 14.3437C4.93979 15.1627 5.59957 15.8225 6.41853 15.8391L6.66952 15.8446C7.19273 15.8552 7.67396 16.1335 7.94433 16.581L8.07444 16.7955C8.49845 17.4959 9.4 17.7377 10.1175 17.3432L10.3371 17.2223C10.7952 16.9699 11.3512 16.9699 11.8094 17.2223L12.029 17.3432C12.7464 17.7377 13.648 17.4968 14.072 16.7955L14.2021 16.581C14.4734 16.1335 14.9541 15.8557 15.4769 15.8446L15.7279 15.8391C16.5469 15.8225 17.2066 15.1627 17.2232 14.3437L17.2288 14.0927C17.2394 13.5695 17.5176 13.0883 17.9651 12.8179L18.1797 12.6878C18.8801 12.2638 19.1218 11.3623 18.7274 10.6448L18.6051 10.4252Z" fill="#FBC02D"/>
<path d="M11.0728 15.2256C14.1305 15.2256 16.6094 12.7468 16.6094 9.68896C16.6094 6.63117 14.1305 4.15234 11.0728 4.15234C8.01496 4.15234 5.53613 6.63117 5.53613 9.68896C5.53613 12.7468 8.01496 15.2256 11.0728 15.2256Z" fill="#FFEE58"/>
<path d="M11.0731 6.27344L12.0974 8.26616L14.3088 8.6242L12.7299 10.2141L13.0727 12.4279L11.0731 11.4179L9.07345 12.4279L9.41626 10.2141L7.8374 8.6242L10.0488 8.26616L11.0731 6.27344Z" fill="#FBC02D"/>
</g>
<defs>
<clipPath id="clip0_2163_2048">
<rect width="22.1465" height="22.1465" fill="white"/>
</clipPath>
</defs>
</svg>
