<svg width="17" height="17" viewBox="0 0 17 17" fill="none" xmlns="http://www.w3.org/2000/svg">
<path d="M3.62701 14.3316H5.62045C5.88036 14.3316 6.13868 14.3625 6.39065 14.4244L8.49695 14.9362C8.95398 15.0476 9.43009 15.0584 9.89189 14.9687L12.2208 14.5156C12.836 14.3958 13.4019 14.1012 13.8454 13.6698L15.4931 12.0669C15.9636 11.61 15.9636 10.8685 15.4931 10.4108C15.0694 9.99866 14.3986 9.95227 13.9193 10.3017L11.999 11.7028C11.724 11.9038 11.3894 12.012 11.0452 12.012H9.19085L10.3712 12.012C11.0364 12.012 11.5753 11.4878 11.5753 10.8406V10.6063C11.5753 10.069 11.1994 9.60042 10.6637 9.47052L8.84191 9.02749C8.54544 8.95558 8.24181 8.91924 7.9366 8.91924C7.19979 8.91924 5.86606 9.52928 5.86606 9.52928L3.62701 10.4656M0.572266 10.1411L0.572266 14.5705C0.572266 14.9982 0.572266 15.2121 0.655502 15.3754C0.72872 15.5191 0.845549 15.636 0.989245 15.7092C1.15261 15.7924 1.36646 15.7924 1.79416 15.7924H2.40511C2.83282 15.7924 3.04667 15.7924 3.21003 15.7092C3.35373 15.636 3.47056 15.5191 3.54377 15.3754C3.62701 15.2121 3.62701 14.9982 3.62701 14.5705V10.1411C3.62701 9.71343 3.62701 9.49958 3.54377 9.33622C3.47056 9.19252 3.35373 9.07569 3.21003 9.00248C3.04667 8.91924 2.83282 8.91924 2.40511 8.91924H1.79416C1.36646 8.91924 1.15261 8.91924 0.989246 9.00248C0.845549 9.07569 0.72872 9.19252 0.655502 9.33622C0.572266 9.49958 0.572266 9.71343 0.572266 10.1411ZM12.1737 1.73468C11.7179 0.780941 10.6671 0.275676 9.64519 0.763357C8.62326 1.25104 8.18789 2.40758 8.61575 3.42286C8.88018 4.05033 9.63779 5.26882 10.178 6.10814C10.3776 6.41825 10.4774 6.57331 10.6231 6.66402C10.7482 6.74183 10.9047 6.78376 11.0519 6.7789C11.2235 6.77322 11.3874 6.68884 11.7153 6.52007C12.6028 6.06329 13.8681 5.38685 14.4109 4.97566C15.2891 4.31033 15.5066 3.08741 14.8491 2.15775C14.1917 1.22808 13.0453 1.13661 12.1737 1.73468Z" stroke="white" stroke-width="1.14553" stroke-linecap="round" stroke-linejoin="round"/>
</svg>
