<svg width="67" height="67" viewBox="0 0 67 67" fill="none" xmlns="http://www.w3.org/2000/svg">
<path d="M25.8488 14.6562C23.711 14.6562 21.6219 15.0589 19.637 15.8524C18.1494 16.4481 16.582 16.75 14.9793 16.75H14.3168C11.0945 16.75 8.28297 18.8156 7.32194 21.8924L4.80085 29.9648C3.42421 34.37 4.56599 39.1609 7.78199 42.468C10.619 45.3846 14.3036 49.1579 15.7378 50.5628L16.294 51.1129C18.9112 53.7102 22.7882 57.5556 26.9181 57.5556C27.1809 57.5556 27.4435 57.5401 27.7094 57.5066C29.3153 57.3097 30.7132 56.5224 31.8826 55.1715C32.6595 55.4273 33.4772 55.5517 34.3137 55.4537C36.0776 55.2464 37.6117 54.1549 38.902 52.2333C40.5226 52.7922 42.0201 52.4074 42.3575 52.3151C44.1547 51.8228 45.6501 50.5793 46.637 48.8208C48.1635 49.0644 49.7665 48.6943 51.0494 47.7105L51.0535 47.7146L58.7558 41.7176C62.1801 39.0512 63.6095 34.4773 62.3156 30.3348L59.678 21.8924C58.7169 18.8166 55.9054 16.75 52.6831 16.75H52.0206C50.4179 16.75 48.8505 16.4481 47.3629 15.8524C45.3769 15.0589 43.2868 14.6562 41.1491 14.6562H34.7124C34.6567 14.6562 34.6024 14.6629 34.5468 14.6644V14.6562H25.8488ZM25.8488 18.8438H28.1286C26.6255 20.3525 25.6146 20.9764 24.992 21.2115C22.7779 22.0469 20.0238 23.0866 20.0521 27.0081C20.0636 28.5512 20.9987 29.9803 22.6182 30.9298C25.8595 32.8296 30.8747 32.3604 36.2357 29.7603L48.6612 42.0345C49.2737 42.6469 49.2726 43.6426 48.6612 44.255C48.0467 44.8674 47.0531 44.8653 46.4407 44.255L40.8894 38.7037C40.0718 37.8861 38.7463 37.8861 37.9287 38.7037C37.1111 39.5213 37.1111 40.8468 37.9287 41.6644L43.0077 46.7434C42.5686 47.5408 41.9555 48.0843 41.2513 48.2769C40.7415 48.4172 40.243 48.3463 39.9489 48.0908C38.7743 47.068 37.5255 45.7773 35.7982 43.9892L35.0743 43.2408C34.2714 42.4096 32.9428 42.3878 32.1137 43.1918C31.2824 43.9958 31.2616 45.3223 32.0666 46.1525L32.7864 46.8988C33.8577 48.0075 34.7358 48.8999 35.561 49.7082C34.9634 50.6608 34.3512 51.2306 33.825 51.2928C33.3487 51.3556 31.9477 51.1194 29.2123 47.8291C28.4721 46.9393 27.1505 46.8212 26.2638 47.5592C25.374 48.2993 25.2528 49.6178 25.9919 50.5076C26.0981 50.6355 26.9552 51.7566 28.2288 52.9019C27.747 53.2784 27.3677 53.3311 27.1982 53.3518C24.8197 53.647 21.1823 50.064 19.2424 48.1399L18.6658 47.5715C17.5551 46.4827 14.8297 43.7084 10.7836 39.5482C8.64167 37.3445 7.88008 34.1505 8.79819 31.2141L11.3193 23.1417C11.7307 21.8236 12.9359 20.9375 14.3168 20.9375H14.9793C17.117 20.9375 19.2061 20.5349 21.191 19.7414C22.6786 19.1457 24.246 18.8438 25.8488 18.8438ZM34.7145 18.8438H41.1511C42.7539 18.8438 44.3203 19.1457 45.8069 19.7414C47.7928 20.5349 49.8829 20.9375 52.0206 20.9375H52.6831C54.065 20.9375 55.2692 21.8226 55.6806 23.1417L58.3182 31.5841C59.095 34.0694 58.2386 36.8137 56.1836 38.4134L52.8835 40.9835C52.6017 40.2851 52.1797 39.6301 51.6137 39.0636L38.1107 25.7282C37.4361 25.0614 36.4254 24.9572 35.6346 25.3929L35.6305 25.3847C29.6528 28.675 26.2543 27.909 25.3539 27.595C24.6306 27.3427 24.3192 27.0245 24.2396 26.8957C24.2365 26.0969 24.3043 25.9477 26.4724 25.1291C28.4248 24.391 30.5312 22.6351 33.1012 19.6044C33.5127 19.1207 34.1 18.8438 34.7145 18.8438Z" fill="#FFB81B"/>
</svg>
