<svg width="67" height="67" viewBox="0 0 67 67" fill="none" xmlns="http://www.w3.org/2000/svg">
<path d="M40.3048 12.5625C38.844 12.5625 37.512 13.1141 36.4956 14.0142C35.6822 13.3466 34.6926 12.8701 33.6024 12.677C31.5939 12.3202 29.7355 12.9964 28.368 14.4293C27.5079 13.9123 26.5066 13.6094 25.4319 13.6094C22.2755 13.6094 19.7068 16.1781 19.7068 19.3345V22.8431C18.6146 23.3227 17.5946 23.9877 16.7052 24.8469C14.6365 26.8454 13.4971 29.548 13.4971 32.4552V34.506C13.4971 45.4971 22.4395 54.4375 33.4306 54.4375C44.4218 54.4375 53.3622 45.4971 53.3622 34.506L53.3192 21.1461C53.3192 17.5082 50.8069 14.6562 47.5982 14.6562C46.7268 14.6562 45.903 14.8715 45.163 15.2451C44.1406 13.6363 42.3476 12.5625 40.3048 12.5625ZM40.3048 16.75C41.1706 16.75 41.8752 17.4545 41.8752 18.3203V20.7678V23.0312V24.0781V27.7422C41.8752 28.608 41.1706 29.3125 40.3048 29.3125C39.4391 29.3125 38.7345 28.608 38.7345 27.7422V24.0781V18.6025V18.3203C38.7345 17.4545 39.4391 16.75 40.3048 16.75ZM32.441 16.7766C32.5759 16.7674 32.7182 16.7742 32.8704 16.8011C33.6953 16.9466 34.547 17.6613 34.547 18.6025V22.4792C34.108 22.3574 33.6579 22.2712 33.1894 22.2706L31.157 22.2072V19.3345C31.157 18.8317 31.085 18.3456 30.9627 17.8807C31.2785 17.3129 31.7468 16.8236 32.441 16.7766ZM25.4319 17.7969C26.0386 17.7969 26.5579 18.1525 26.8079 18.6638C26.8134 18.6757 26.8206 18.6868 26.8263 18.6986C26.9151 18.8927 26.9695 19.1074 26.9695 19.3345V22.0784L24.0987 21.9905C24.0302 21.9882 23.9626 21.9955 23.8943 21.9946V19.3345C23.8943 18.4876 24.5839 17.7969 25.4319 17.7969ZM47.6003 18.8417C48.4325 18.8417 49.1338 19.8981 49.1338 21.1481L49.1562 28.145C49.1523 28.1578 49.1457 28.1689 49.1419 28.1818C48.9493 28.8487 48.3281 29.3125 47.633 29.3125C46.7672 29.3125 46.0627 28.608 46.0627 27.7422V23.0312V20.7678C46.0627 19.7073 46.7512 18.8438 47.6003 18.8417ZM23.9617 26.1739L33.1239 26.4581C33.8986 26.4602 34.4718 27.2502 34.5409 27.9589C34.6225 28.8027 33.9973 29.3636 32.6761 29.6253L25.8919 30.8072C24.7529 31.0061 23.9908 32.0911 24.1887 33.2301C24.2536 33.6049 24.8696 35.2391 26.6116 34.9313L33.4409 33.7413C34.8679 33.4589 35.9486 32.9289 36.7553 32.2671C37.7345 33.0369 38.9658 33.5 40.3048 33.5C41.6956 33.5 42.9725 33.0034 43.9689 32.1791C44.9653 33.0034 46.2422 33.5 47.633 33.5C48.1636 33.5 48.6775 33.4103 49.1726 33.271L49.1767 34.5039C49.1767 43.1857 42.1144 50.248 33.4327 50.248C24.7509 50.248 17.6866 43.1857 17.6866 34.5039V32.4552C17.6866 30.6943 18.3731 29.0605 19.6168 27.8587C20.7998 26.7155 22.3412 26.131 23.9617 26.1739Z" fill="#00843D"/>
</svg>
