<svg width="67" height="67" viewBox="0 0 67 67" fill="none" xmlns="http://www.w3.org/2000/svg">
<path d="M31.676 7.73696C31.0931 7.74612 30.5091 7.85447 29.9442 8.06411C28.4063 8.63465 27.2365 9.86342 26.7361 11.4337C24.7596 17.6365 21.9974 21.3082 19.5613 24.5483C17.0425 27.8983 14.664 31.0633 13.8893 36.0067C12.9168 42.2105 14.7818 48.7748 18.8824 53.5684C22.8271 58.1788 28.39 60.7186 34.5467 60.7186C46.4434 60.7186 54.4373 52.0945 54.4373 39.2577C54.4373 27.8709 46.7855 16.0892 34.469 8.50985C33.6139 7.98379 32.6474 7.72169 31.676 7.73696ZM31.8048 11.9101C31.9601 11.9269 32.1171 11.981 32.271 12.0758C43.192 18.7946 50.2498 29.4652 50.2498 39.2577C50.2498 44.0101 48.9741 47.9885 46.7044 50.9328C46.9586 49.8797 47.1092 48.7793 47.1092 47.6327C47.1092 34.7216 38.3044 27.6938 37.9307 27.4006C37.2512 26.8699 36.3122 26.8117 35.5731 27.2514C34.8309 27.6921 34.434 28.5431 34.5753 29.3942C35.0883 32.4992 35.2574 37.7923 33.9865 39.2904C33.8368 39.4663 33.7239 39.5194 33.4998 39.5194C32.9827 39.5194 31.8025 37.33 31.3795 34.739C31.2518 33.9392 30.674 33.2833 29.8951 33.0582C29.1162 32.8332 28.2791 33.0777 27.742 33.686C22.9829 39.0795 21.9842 44.2471 21.9842 47.6327C21.9842 48.911 22.1779 50.1513 22.524 51.3295C22.3726 51.1662 22.2098 51.0174 22.064 50.8469C18.7485 46.9704 17.2406 41.6662 18.0257 36.6548C18.6392 32.7448 20.5226 30.2384 22.9084 27.0653C25.4146 23.7331 28.5257 19.5824 30.7252 12.7055C30.9027 12.1488 31.3388 11.8598 31.8048 11.9101ZM39.1493 35.0498C41.0389 37.9056 42.9217 42.1303 42.9217 47.6327C42.9217 51.9469 39.9863 56.5311 34.5467 56.5311C30.0849 56.5311 26.1717 52.373 26.1717 47.6327C26.1717 45.6332 26.6317 42.8227 28.5088 39.6789C29.4436 41.7308 30.9936 43.7069 33.4998 43.7069C34.9613 43.7069 36.2338 43.1146 37.1823 41.9955C38.5935 40.33 39.0676 37.6157 39.1493 35.0498Z" fill="#E30613"/>
</svg>
