<svg width="20" height="18" viewBox="0 0 20 18" fill="currentColor" xmlns="http://www.w3.org/2000/svg">
<path d="M10.0002 2.66699C7.2095 2.66699 3.5874 3.36621 3.5874 3.36621L3.57829 3.37663C2.30727 3.5799 1.3335 4.67208 1.3335 6.00033V10.0003V10.0016V14.0003V14.0016C1.33474 14.636 1.56208 15.2491 1.97469 15.7309C2.38731 16.2128 2.95818 16.5317 3.5848 16.6305L3.5874 16.6344C3.5874 16.6344 7.2095 17.335 10.0002 17.335C12.7908 17.335 16.4129 16.6344 16.4129 16.6344L16.4142 16.6331C17.0415 16.5345 17.613 16.2153 18.026 15.7329C18.4389 15.2505 18.6662 14.6366 18.6668 14.0016V14.0003V10.0016V10.0003V6.00033C18.6659 5.36574 18.4387 4.75229 18.0261 4.2702C17.6134 3.7881 17.0424 3.46896 16.4155 3.37012L16.4129 3.36621C16.4129 3.36621 12.7908 2.66699 10.0002 2.66699ZM8.00016 6.93262L13.3335 10.0003L8.00016 13.068V6.93262Z" fill="#F1F1F1"/>
</svg>
